<svg width="820" height="820" viewBox="0 0 820 820" fill="none" xmlns="http://www.w3.org/2000/svg">
<circle cx="410" cy="410" r="410" fill="#C4C4C4" fill-opacity="0.6"/>
<path opacity="0.1" d="M679.634 547.199C663.014 580.334 629.248 602.49 594.268 617.102C566.261 628.723 536.656 636.356 506.38 639.76C500.581 640.425 494.763 640.941 488.927 641.308C474.014 642.247 459.052 642.23 444.141 641.259C435.172 640.683 426.234 639.762 417.327 638.497C386.38 634.135 356.208 625.647 327.675 613.275C319.439 609.692 311.371 605.781 303.47 601.541C290.273 594.474 277.628 586.485 265.636 577.638C262.983 575.679 260.363 573.678 257.777 571.635L256.713 570.794C254.679 569.174 252.664 567.518 250.618 565.91C247.217 563.157 243.607 560.655 239.818 558.425C239.561 558.28 239.304 558.135 239.042 557.996C238.341 557.603 237.627 557.234 236.902 556.884C235.406 556.156 233.873 555.502 232.308 554.925C225.081 552.265 217.34 551.298 209.493 551.461C208.192 551.461 206.89 551.546 205.582 551.63C203.755 551.751 201.921 551.933 200.094 552.162L199.418 552.253C193.596 553.049 187.839 554.243 182.191 555.826C173.468 558.244 164.901 561.267 156.278 563.993C152.618 565.16 148.951 566.272 145.252 567.27L144.439 567.487C139.179 568.917 133.825 569.999 128.413 570.728C116.115 572.247 103.625 571.275 91.7373 567.874L91.3243 567.759L90.5609 567.542L89.5159 567.227C87.7637 566.696 86.0262 566.113 84.3033 565.48L83.2583 565.093C81.5896 564.473 79.9563 563.806 78.3585 563.092L77.3135 562.633C75.6448 561.883 74.0116 561.091 72.4138 560.257C71.8381 559.967 71.2687 559.653 70.7055 559.356C69.0034 558.438 67.3347 557.474 65.6994 556.467C63.9639 555.399 62.266 554.284 60.6057 553.124C59.8381 552.592 59.0788 552.046 58.3279 551.485C53.9992 548.287 49.9456 544.755 46.2069 540.924C46.0004 540.725 45.8064 540.519 45.6124 540.319C44.6175 539.28 43.6413 538.222 42.6964 537.14C42.346 536.741 41.9955 536.342 41.6514 535.931C40.5292 534.609 39.4466 533.256 38.4037 531.874C38.2472 531.675 38.097 531.469 37.9468 531.27C33.6713 525.557 30.1266 519.366 27.3902 512.831C27.3026 512.632 27.2213 512.426 27.1462 512.227C26.3119 510.151 25.5505 508.041 24.8622 505.897C24.5806 505.002 24.3115 504.083 24.0737 503.189C23.9924 502.923 23.9173 502.651 23.8484 502.385C20.3942 489.248 20 475.592 20 462.014C20 460.43 20 458.848 20 457.268C20.1001 435.305 20.4505 412.968 23.8046 391.307C23.8046 391.156 23.8484 391.005 23.8735 390.86C24.9961 383.567 26.523 376.339 28.4478 369.205C30.4622 361.72 33.0367 354.385 36.1509 347.26C43.8666 329.729 55.0865 313.775 67.5454 298.988C82.5637 281.196 99.7721 264.777 118.939 251.229C121.693 249.283 124.483 247.393 127.312 245.559L128.62 244.731C129.077 244.434 129.533 244.126 129.99 243.866C130.929 243.262 131.867 242.693 132.819 242.119L133.882 241.478L135.91 240.269L136.536 239.924L137.618 239.32L138.688 238.715C139.94 238.002 141.206 237.305 142.487 236.624C147.956 233.678 153.554 230.985 159.282 228.547C160.972 227.826 162.672 227.13 164.382 226.461C172.147 223.406 180.124 220.879 188.255 218.899C191.258 218.165 194.281 217.52 197.322 216.964C200.91 216.295 204.516 215.741 208.142 215.302C213.91 214.6 219.712 214.183 225.525 214.05C266.4 213.089 307.688 225.942 339.72 250.576C352.486 260.394 363.956 272.019 378.292 279.546C390.808 286.099 405.457 288.813 418.861 283.657C429.936 279.395 437.145 277.279 449.585 277.926C475.327 279.327 500.705 284.454 524.871 293.136C525.847 293.481 526.823 293.837 527.793 294.194C590.814 317.499 644.998 363.776 673.145 423.245C673.888 424.816 674.611 426.4 675.316 427.996C692.106 465.871 698.163 510.274 679.634 547.199Z" fill="#AFAFAF"/>
<path opacity="0.1" d="M150 346.921V593.53L149.156 593.765C143.696 595.302 138.139 596.467 132.522 597.251C119.759 598.885 106.795 597.839 94.4564 594.181L94.0278 594.057L93.2354 593.823L92.1508 593.485C90.3322 592.912 88.5288 592.286 86.7406 591.605L85.656 591.189C83.924 590.521 82.2289 589.804 80.5705 589.036L79.4859 588.542C77.754 587.735 76.0588 586.883 74.4005 585.986C73.803 585.673 73.2119 585.335 72.6274 585.016C70.8608 584.028 69.1289 582.992 67.4316 581.908C65.6303 580.758 63.8681 579.56 62.1448 578.311C61.3481 577.738 60.56 577.151 59.7807 576.548C55.2879 573.107 51.0806 569.307 47.2002 565.185C46.9859 564.971 46.7846 564.75 46.5832 564.535C45.5506 563.416 44.5374 562.278 43.5567 561.114C43.1929 560.685 42.8292 560.255 42.472 559.813C41.3073 558.391 40.1837 556.936 39.1012 555.449C38.9388 555.234 38.783 555.013 38.6271 554.798C34.1894 548.652 30.5105 541.992 27.6704 534.961C27.5794 534.746 27.495 534.525 27.4171 534.31C26.5511 532.077 25.7609 529.807 25.0465 527.501C24.7542 526.538 24.4749 525.549 24.2281 524.587C24.1437 524.301 24.0657 524.008 23.9943 523.722C20.4092 509.588 20 494.896 20 480.287C20 478.583 20 476.881 20 475.182C20.1039 451.552 20.4676 427.519 23.9488 404.215C23.9488 404.053 23.9943 403.89 24.0203 403.734C25.1854 395.889 26.7703 388.111 28.768 380.436H95.0929V346.921H108.316V320H136.777V346.921H150Z" fill="#AFAFAF"/>
<path opacity="0.9" d="M755.5 588.5C750.5 618.5 754 649.5 660 636.5C630.936 648.992 561 636.936 531 640.5C524.982 641.215 514.556 640.106 508.5 640.5C493.024 641.509 469.474 640.544 454 639.5C444.692 638.88 405.743 640.86 396.5 639.5C364 639.5 343.5 639.5 288.5 639.5C279.177 639.5 252.966 644.057 244.766 639.5C244.766 626.5 257.21 533.011 244.766 523.5C242.013 521.395 273.88 547.814 271.196 545.617L270.092 544.714C267.982 542.973 265.891 541.192 263.767 539.464C260.238 536.505 256.491 533.816 252.559 531.419C252.293 531.263 252.026 531.107 251.754 530.957C251.026 530.535 250.286 530.138 249.533 529.762C247.981 528.979 246.39 528.276 244.766 527.656V426.861H365.284V449.3H418.176V285.166H480.432V350.799H511.225V311.939H536.668V270.428H548.357V246.254C549.37 246.625 550.383 247.008 551.389 247.392V270.428H562.766V311.965H588.189V350.825H625.678V498.875H685.265V391.205H751.5C751.5 437.5 748 689 755.5 588.5Z" fill="#656565"/>
<path d="M464 324H437V353H464V324Z" fill="white"/>
<path d="M464 382H437V410H464V382Z" fill="white"/>
<path d="M464 440H437V468H464V440Z" fill="white"/>
<path d="M464 498H437V526H464V498Z" fill="white"/>
<path d="M354 457H280V472H354V457Z" fill="white"/>
<path d="M354 490H280V505H354V490Z" fill="white"/>
<path d="M351 584H277V599H351V584Z" fill="white"/>
<path d="M735 420H716V435H735V420Z" fill="white"/>
<path d="M735 464H716V479H735V464Z" fill="white"/>
<path d="M735 505H716V520H735V505Z" fill="white"/>
<path d="M735 549H716V564H735V549Z" fill="white"/>
<path d="M464 555H437V583H464V555Z" fill="white"/>
<path opacity="0.1" d="M347 553H249V566H347V553Z" fill="#AFAFAF"/>
<path d="M526 383H508V401H526V383Z" fill="white"/>
<path opacity="0.1" d="M133 353H114V372H133V353Z" fill="#AFAFAF"/>
<path opacity="0.1" d="M133 396H114V413H133V396Z" fill="#AFAFAF"/>
<path opacity="0.1" d="M133 438H114V456H133V438Z" fill="#AFAFAF"/>
<path opacity="0.1" d="M133 480H114V497H133V480Z" fill="#AFAFAF"/>
<path opacity="0.1" d="M133 522H114V540H133V522Z" fill="#AFAFAF"/>
<path opacity="0.1" d="M133 564H114V582H133V564Z" fill="#AFAFAF"/>
<path d="M596 383H578V401H596V383Z" fill="white"/>
<path d="M526 427H508V446H526V427Z" fill="white"/>
<path d="M596 427H578V446H596V427Z" fill="white"/>
<path d="M526 472H508V490H526V472Z" fill="white"/>
<path d="M596 472H578V490H596V472Z" fill="white"/>
<path d="M526 517H508V535H526V517Z" fill="white"/>
<path d="M596 517H578V535H596V517Z" fill="white"/>
<path d="M526 561H508V580H526V561Z" fill="white"/>
<path d="M596 561H578V580H596V561Z" fill="white"/>
<path opacity="0.1" d="M24 404V414H93V404H24ZM30.1451 413.375H25.0802V404.625H30.1451V413.375ZM36.2902 413.375H31.2254V404.625H36.2902V413.375ZM42.4354 413.375H37.3705V404.625H42.4354V413.375ZM48.5805 413.375H43.5156V404.625H48.5805V413.375ZM54.7256 413.375H49.6607V404.625H54.7256V413.375ZM60.8707 413.375H55.8058V404.625H60.8707V413.375ZM67.0158 413.375H61.951V404.625H67.0158V413.375ZM73.161 413.375H68.0961V404.625H73.161V413.375ZM79.3061 413.375H74.2412V404.625H79.3061V413.375ZM85.4512 413.375H80.3863V404.625H85.4512V413.375ZM91.9197 413.375H86.5315V404.625H91.9197V413.375Z" fill="#AFAFAF"/>
<path opacity="0.1" d="M24 434V445H93V434H24ZM30.1451 444.31H25.0802V434.69H30.1451V444.31ZM36.2902 444.31H31.2254V434.69H36.2902V444.31ZM42.4354 444.31H37.3705V434.69H42.4354V444.31ZM48.5805 444.31H43.5156V434.69H48.5805V444.31ZM54.7256 444.31H49.6607V434.69H54.7256V444.31ZM60.8707 444.31H55.8058V434.69H60.8707V444.31ZM67.0158 444.31H61.951V434.69H67.0158V444.31ZM73.161 444.31H68.0961V434.69H73.161V444.31ZM79.3061 444.31H74.2412V434.69H79.3061V444.31ZM85.4512 444.31H80.3863V434.69H85.4512V444.31ZM91.9197 444.31H86.5315V434.69H91.9197V444.31Z" fill="#AFAFAF"/>
<path opacity="0.1" d="M24 464V475H93V464H24ZM30.1451 474.31H25.0802V464.69H30.1451V474.31ZM36.2902 474.31H31.2254V464.69H36.2902V474.31ZM42.4354 474.31H37.3705V464.69H42.4354V474.31ZM48.5805 474.31H43.5156V464.69H48.5805V474.31ZM54.7256 474.31H49.6607V464.69H54.7256V474.31ZM60.8707 474.31H55.8058V464.69H60.8707V474.31ZM67.0158 474.31H61.951V464.69H67.0158V474.31ZM73.161 474.31H68.0961V464.69H73.161V474.31ZM79.3061 474.31H74.2412V464.69H79.3061V474.31ZM85.4512 474.31H80.3863V464.69H85.4512V474.31ZM91.9197 474.31H86.5315V464.69H91.9197V474.31Z" fill="#AFAFAF"/>
<path opacity="0.1" d="M24 494V505H93V494H24ZM30.1451 504.312H25.0802V494.688H30.1451V504.312ZM36.2902 504.312H31.2254V494.688H36.2902V504.312ZM42.4354 504.312H37.3705V494.688H42.4354V504.312ZM48.5805 504.312H43.5156V494.688H48.5805V504.312ZM54.7256 504.312H49.6607V494.688H54.7256V504.312ZM60.8707 504.312H55.8058V494.688H60.8707V504.312ZM67.0158 504.312H61.951V494.688H67.0158V504.312ZM73.161 504.312H68.0961V494.688H73.161V504.312ZM79.3061 504.312H74.2412V494.688H79.3061V504.312ZM85.4512 504.312H80.3863V494.688H85.4512V504.312ZM91.9197 504.312H86.5315V494.688H91.9197V504.312Z" fill="#AFAFAF"/>
<path opacity="0.1" d="M24 525C24.2467 525.938 24.5258 526.875 24.8179 527.8V525.625H29.9004V534.375H27.1871C27.265 534.581 27.3494 534.794 27.4403 535H93V525H24ZM36.0669 534.375H30.9844V525.625H36.0669V534.375ZM42.2334 534.375H37.1509V525.625H42.2334V534.375ZM48.3999 534.375H43.3174V525.625H48.3999V534.375ZM54.5664 534.375H49.4839V525.625H54.5664V534.375ZM60.7329 534.375H55.6504V525.625H60.7329V534.375ZM66.8994 534.375H61.8169V525.625H66.8994V534.375ZM73.0659 534.375H67.9834V525.625H73.0659V534.375ZM79.2324 534.375H74.15V525.625H79.2324V534.375ZM85.399 534.375H80.3165V525.625H85.399V534.375ZM91.89 534.375H86.483V525.625H91.89V534.375Z" fill="#AFAFAF"/>
<path opacity="0.1" d="M39 555C39.1541 555.206 39.3082 555.418 39.4688 555.625H42.8016V559.816C43.1548 560.234 43.5144 560.646 43.8741 561.065V555.631H48.9022V564.375H46.8666C47.0656 564.582 47.2647 564.794 47.4766 565H93V555.006L39 555ZM55.0029 564.369H49.9747V555.625H55.0029V564.369ZM61.1035 564.369H56.0753V555.625H61.1035V564.369ZM67.2041 564.369H62.1759V555.625H67.2041V564.369ZM73.3047 564.369H68.2765V555.625H73.3047V564.369ZM79.4053 564.369H74.3771V555.625H79.4053V564.369ZM85.5059 564.369H80.4777V555.625H85.5059V564.369ZM91.9276 564.369H86.5783V555.625H91.9276V564.369Z" fill="#AFAFAF"/>
<path opacity="0.1" d="M73 585C73.5673 585.302 74.1409 585.592 74.7208 585.882V585.592H79.6562V588.207L80.7088 588.657V585.592H85.6442V590.615L86.6968 590.994V585.592H91.9474V592.692L93 593V585H73Z" fill="#AFAFAF"/>
<path opacity="0.1" d="M286.667 314.021C286.667 314.021 270.201 313.065 272.162 324.147C272.062 324.71 272.149 325.289 272.412 325.802C272.675 326.314 273.1 326.734 273.627 327C273.627 327 273.627 326.177 275.312 326.456C275.903 326.549 276.503 326.576 277.101 326.535C277.909 326.484 278.678 326.182 279.29 325.673V325.673C279.29 325.673 283.918 323.835 285.721 316.569C285.721 316.569 287.047 314.983 286.999 314.578L284.236 315.719C284.236 315.719 285.189 317.644 284.443 319.243C284.443 319.243 284.353 315.792 283.815 315.872C283.711 315.872 282.371 316.536 282.371 316.536C282.371 316.536 284.008 319.893 282.772 322.328C282.772 322.328 283.241 318.201 281.867 316.781L279.864 317.889C279.864 317.889 281.777 321.353 280.478 324.18C280.478 324.18 280.817 319.847 279.456 318.161L277.681 319.488C277.681 319.488 279.477 322.899 278.372 325.248C278.372 325.248 278.227 320.198 277.287 319.814C276.613 320.359 276.012 320.984 275.498 321.672C275.498 321.672 276.728 324.147 275.968 325.454C275.968 325.454 275.498 322.096 275.112 322.076C275.112 322.076 273.571 324.306 273.412 325.832C273.483 324.416 273.941 323.043 274.739 321.851C273.849 322.012 273.028 322.421 272.376 323.025C272.376 323.025 272.618 321.453 275.139 321.313C275.139 321.313 276.417 319.628 276.762 319.522C276.762 319.522 274.269 319.323 272.756 319.966C272.756 319.966 274.089 318.48 277.218 319.157L278.966 317.783C278.966 317.783 275.685 317.352 274.297 317.83C274.297 317.83 275.892 316.502 279.435 317.471L281.342 316.376C279.877 316.068 278.378 315.943 276.88 316.005C276.88 316.005 278.634 315.096 281.901 316.084L283.283 315.494C283.283 315.494 281.211 315.109 280.637 315.049C280.064 314.989 280.002 314.83 280.002 314.83C281.299 314.622 282.631 314.765 283.849 315.242C283.849 315.242 286.716 314.193 286.667 314.021Z" fill="#AFAFAF"/>
<path opacity="0.1" d="M245.336 367.127C245.336 367.127 239.82 381.427 251.205 382.734C251.726 382.975 252.315 383.055 252.888 382.962C253.46 382.87 253.987 382.609 254.393 382.217C254.393 382.217 253.601 381.969 254.332 380.573C254.588 380.078 254.783 379.556 254.914 379.018C255.085 378.288 255 377.526 254.67 376.845V376.845C254.67 376.845 254.163 372.251 247.556 368.676C247.556 368.676 246.379 367.064 245.966 367L246.304 369.772C246.304 369.772 248.45 369.453 249.81 370.549C249.81 370.549 246.426 369.689 246.338 370.186C246.338 370.282 246.588 371.646 246.588 371.646C246.588 371.646 250.325 371.11 252.362 372.869C252.362 372.869 248.45 371.327 246.683 372.162L247.211 374.188C247.211 374.188 251.13 373.449 253.533 375.361C253.533 375.361 249.391 373.889 247.36 374.628L248.165 376.54C248.165 376.54 252.003 375.902 253.993 377.489C253.993 377.489 249.012 376.215 248.382 376.967C248.729 377.709 249.17 378.408 249.695 379.05C249.695 379.05 252.464 378.642 253.526 379.688C253.526 379.688 250.108 379.184 249.986 379.516C249.986 379.516 251.739 381.491 253.188 382.065C251.828 381.611 250.617 380.831 249.675 379.802C249.585 380.636 249.757 381.475 250.169 382.217C250.169 382.217 248.693 381.58 249.255 379.318C249.255 379.318 247.956 377.731 247.956 377.406C247.956 377.406 247.062 379.554 247.279 381.07C247.279 381.07 246.196 379.484 247.726 376.903L246.873 374.991C246.873 374.991 245.519 377.776 245.614 379.14C245.614 379.14 244.774 377.362 246.697 374.488L246.162 372.506C245.454 373.71 244.914 374.995 244.558 376.329C244.558 376.329 244.152 374.526 246.027 371.907L245.83 370.543C245.83 370.543 244.883 372.251 244.659 372.767C244.436 373.283 244.267 373.264 244.267 373.264C244.423 372.059 244.931 370.918 245.736 369.97C245.736 369.97 245.519 367.127 245.336 367.127Z" fill="#AFAFAF"/>
<path opacity="0.1" d="M348.212 355.134C348.212 355.134 343.203 369.46 353.548 370.735C354.023 370.976 354.56 371.055 355.082 370.962C355.603 370.868 356.083 370.606 356.452 370.212C356.452 370.212 355.726 369.964 356.397 368.574C356.631 368.078 356.807 367.554 356.92 367.013C357.077 366.284 357.002 365.521 356.704 364.84C356.704 364.84 356.243 360.245 350.237 356.67C350.237 356.67 349.16 355.064 348.785 355L349.099 357.766C349.099 357.766 351.049 357.454 352.286 358.55C352.286 358.55 349.209 357.689 349.123 358.18C349.123 358.282 349.351 359.64 349.351 359.64C349.351 359.64 352.748 359.111 354.606 360.863C354.606 360.863 351.049 359.327 349.437 360.156L349.923 362.189C349.923 362.189 353.486 361.443 355.671 363.361C355.671 363.361 351.898 361.883 350.052 362.622L350.785 364.534C350.785 364.534 354.274 363.897 356.083 365.484C356.083 365.484 351.56 364.209 350.982 364.967C351.307 365.712 351.72 366.412 352.212 367.051C352.212 367.051 354.723 366.637 355.695 367.689C355.695 367.689 352.588 367.185 352.477 367.523C352.477 367.523 354.064 369.492 355.381 370.072C354.145 369.621 353.046 368.841 352.194 367.81C352.112 368.642 352.266 369.482 352.637 370.225C352.637 370.225 351.302 369.588 351.812 367.332C351.812 367.332 350.631 365.739 350.625 365.42C350.625 365.42 349.819 367.574 350.009 369.084C350.009 369.084 349.025 367.504 350.415 364.916L349.64 363.004C349.64 363.004 348.409 365.789 348.496 367.147C348.496 367.147 347.732 365.375 349.48 362.501L348.988 360.513C348.344 361.716 347.854 363.002 347.529 364.336C347.529 364.336 347.166 362.533 348.871 359.914L348.692 358.55C348.692 358.55 347.831 360.258 347.622 360.774C347.413 361.29 347.265 361.271 347.265 361.271C347.411 360.066 347.875 358.926 348.606 357.976C348.606 357.976 348.385 355.14 348.212 355.134Z" fill="#AFAFAF"/>
<path opacity="0.1" d="M201.336 474.121C201.336 474.121 195.821 488.428 207.203 489.734C207.725 489.976 208.314 490.056 208.887 489.962C209.46 489.868 209.986 489.605 210.39 489.212C210.39 489.212 209.599 488.963 210.33 487.574C210.59 487.078 210.785 486.553 210.912 486.013C211.086 485.283 211.001 484.519 210.668 483.84V483.84C210.668 483.84 210.16 479.245 203.556 475.676C203.556 475.676 202.378 474.064 201.965 474L202.304 476.766C202.304 476.766 204.456 476.454 205.809 477.55C205.809 477.55 202.425 476.689 202.337 477.18C202.337 477.282 202.588 478.639 202.588 478.639C202.588 478.639 206.323 478.11 208.36 479.863C208.36 479.863 204.449 478.327 202.683 479.156L203.21 481.188C203.21 481.188 207.129 480.443 209.531 482.361C209.531 482.361 205.389 480.883 203.359 481.622L204.165 483.534C204.165 483.534 208.002 482.896 209.991 484.483C209.991 484.483 205.017 483.209 204.381 483.967C204.728 484.709 205.169 485.409 205.694 486.051C205.694 486.051 208.462 485.637 209.531 486.688C209.531 486.688 206.107 486.185 205.985 486.522C205.985 486.522 207.738 488.492 209.186 489.072C207.826 488.622 206.615 487.844 205.674 486.816C205.584 487.647 205.756 488.484 206.168 489.224C206.168 489.224 204.692 488.587 205.254 486.331C205.254 486.331 203.962 484.738 203.955 484.419C203.955 484.419 203.062 486.573 203.278 488.084C203.278 488.084 202.195 486.503 203.725 483.916L202.872 482.004C202.872 482.004 201.519 484.789 201.62 486.146C201.62 486.146 200.781 484.375 202.703 481.501L202.161 479.519C201.452 480.722 200.913 482.007 200.558 483.342C200.558 483.342 200.152 481.533 202.026 478.92L201.83 477.55C201.83 477.55 200.882 479.258 200.659 479.774C200.436 480.29 200.267 480.271 200.267 480.271C200.423 479.065 200.934 477.924 201.742 476.976C201.742 476.976 201.519 474.121 201.336 474.121Z" fill="#AFAFAF"/>
<path opacity="0.1" d="M181.212 336.127C181.212 336.127 176.203 350.428 186.548 351.734C187.023 351.975 187.559 352.055 188.08 351.962C188.602 351.87 189.082 351.609 189.452 351.218C189.452 351.218 188.726 350.97 189.397 349.574C189.629 349.076 189.804 348.552 189.92 348.013C190.077 347.285 190.002 346.525 189.704 345.846C189.704 345.846 189.243 341.251 183.231 337.676C183.231 337.676 182.16 336.064 181.785 336L182.099 338.772C182.099 338.772 184.049 338.454 185.28 339.55C185.28 339.55 182.203 338.689 182.123 339.186C182.123 339.282 182.351 340.646 182.351 340.646C182.351 340.646 185.748 340.11 187.606 341.869C187.606 341.869 184.049 340.327 182.437 341.162L182.917 343.188C182.917 343.188 186.48 342.443 188.671 344.361C188.671 344.361 184.898 342.883 183.052 343.628L183.785 345.54C183.785 345.54 187.274 344.903 189.083 346.496C189.083 346.496 184.56 345.221 183.982 345.973C184.297 346.715 184.698 347.415 185.175 348.057C185.175 348.057 187.692 347.649 188.664 348.694C188.664 348.694 185.557 348.191 185.446 348.522C185.446 348.522 187.034 350.498 188.351 351.071C187.115 350.617 186.014 349.837 185.157 348.809C185.075 349.642 185.232 350.482 185.606 351.224C185.606 351.224 184.265 350.587 184.781 348.325C184.781 348.325 183.6 346.738 183.594 346.413C183.594 346.413 182.788 348.561 182.979 350.077C182.979 350.077 181.988 348.491 183.385 345.91L182.603 343.998C182.603 343.998 181.372 346.783 181.465 348.146C181.465 348.146 180.702 346.368 182.449 343.494L181.957 341.512C181.313 342.716 180.823 344.001 180.499 345.336C180.499 345.336 180.136 343.533 181.834 340.913L181.662 339.55C181.662 339.55 180.794 341.258 180.591 341.767C180.388 342.277 180.234 342.271 180.234 342.271C180.376 341.065 180.841 339.924 181.576 338.976C181.576 338.976 181.385 336.127 181.212 336.127Z" fill="#AFAFAF"/>
<path opacity="0.1" d="M219 415.47C219 415.47 223.349 429.981 233.663 424.934C234.249 424.849 234.791 424.597 235.211 424.214C235.631 423.83 235.907 423.336 236 422.801C236 422.801 235.184 423.028 234.928 421.508C234.831 420.968 234.664 420.441 234.431 419.937C234.124 419.252 233.577 418.679 232.875 418.309C232.875 418.309 229.577 414.864 221.814 415.52C221.814 415.52 219.823 414.858 219.436 415.028L221.454 417.079C221.454 417.079 223.051 415.672 224.869 415.817C224.869 415.817 221.489 416.952 221.738 417.388C221.793 417.476 222.858 418.435 222.858 418.435C222.858 418.435 225.623 415.993 228.444 416.315C228.444 416.315 224.22 417.173 223.266 418.801L224.973 420.158C224.973 420.158 227.78 417.451 230.988 417.703C230.988 417.703 226.598 418.738 225.367 420.429L227.248 421.558C227.248 421.558 230.013 418.965 232.709 419.198C232.709 419.198 227.773 420.858 227.697 421.792C228.452 422.206 229.26 422.535 230.103 422.77C230.103 422.77 232.177 420.953 233.691 421.211C233.691 421.211 230.518 422.643 230.628 422.978C230.628 422.978 233.325 423.609 234.88 423.306C233.464 423.672 231.967 423.694 230.538 423.369C230.983 424.091 231.652 424.677 232.46 425.054C232.46 425.054 230.829 425.325 229.889 423.199C229.889 423.199 227.815 422.612 227.593 422.347C227.593 422.347 228.202 424.568 229.322 425.678C229.322 425.678 227.427 424.978 227.089 422.063L225.174 420.971C225.174 420.971 225.803 423.943 226.715 424.997C226.715 424.997 224.904 424.013 224.71 420.656L223.024 419.344C223.188 420.705 223.546 422.041 224.088 423.319C224.088 423.319 222.63 422.057 222.553 418.952L221.537 417.949C221.537 417.949 221.814 419.842 221.945 420.378C222.076 420.915 221.945 421.009 221.945 421.009C221.322 419.949 221.035 418.752 221.115 417.552C221.115 417.552 219.159 415.375 219 415.47Z" fill="#AFAFAF"/>
<path d="M288.684 579C288.684 579 321.947 567.592 315.061 527.173L272.81 516L263 549.165L288.684 579Z" fill="#CED7E7"/>
<path opacity="0.1" d="M263 549.066L288.681 579C288.681 579 321.948 567.554 315.061 527L263 549.066Z" fill="black"/>
<path d="M121.049 252.269C121.049 252.269 125.715 259.659 132.095 255.967C138.475 252.275 132.355 242.076 132.355 242.076C132.355 242.076 120.135 240.447 121.049 252.269Z" fill="#FED253"/>
<path opacity="0.1" d="M132.1 255.972C131.347 256.446 130.502 256.766 129.618 256.911C128.734 257.056 127.829 257.024 126.958 256.816C124.617 256.238 122.816 254.485 121.849 253.336C121.561 253 121.294 252.646 121.049 252.278C120.722 248.058 122.069 245.546 123.937 244.065C126.504 242.033 130.059 241.949 131.593 242.014C132.066 242.014 132.34 242.079 132.34 242.079L132.466 242.287C132.646 242.618 133.04 243.351 133.46 244.332C134.887 247.545 136.588 253.369 132.1 255.972Z" fill="black"/>
<path d="M292.248 525L315.579 526.909L359 527.27L324.788 569.913C324.788 569.913 313.933 570.51 311.697 572.058C309.461 573.606 278.068 572.78 278.068 572.78L273 550.92L292.248 525Z" fill="#DABC8F"/>
<path d="M268.413 411.916L273.795 421.138L274.965 437.219C274.965 437.219 278.714 450.929 281.524 454.949C284.334 458.97 285.504 469.614 285.504 469.614C285.504 469.614 286.675 479.545 288.076 481.668C289.478 483.792 291.356 499.204 291.356 499.204C291.356 499.204 303.766 524.267 315 527.339C315 527.339 259.282 545.784 288.546 578.887C288.546 578.887 267.712 584.083 262.793 578.179C257.873 572.276 245 484.779 245 484.779L248.98 411L268.413 411.916Z" fill="#CED7E7"/>
<path opacity="0.05" d="M268.413 411.916L273.795 421.138L274.965 437.219C274.965 437.219 278.714 450.929 281.524 454.949C284.334 458.97 285.504 469.614 285.504 469.614C285.504 469.614 286.675 479.545 288.076 481.668C289.478 483.792 291.356 499.204 291.356 499.204C291.356 499.204 303.766 524.267 315 527.339C315 527.339 259.282 545.784 288.546 578.887C288.546 578.887 267.712 584.083 262.793 578.179C257.873 572.276 245 484.779 245 484.779L248.98 411L268.413 411.916Z" fill="black"/>
<path d="M200.766 322.374C199.163 330.558 199.639 339.004 202.15 346.963L193.265 372C193.265 372 125.587 334.915 131.348 325.936C134.611 320.843 135.026 307.368 134.763 296.663C134.571 288.527 133.985 282 133.985 282C133.985 282 217.041 290.038 205.987 308.698C203.485 312.939 201.721 317.561 200.766 322.374V322.374Z" fill="#DABC8F"/>
<path opacity="0.1" d="M206.004 308.701C203.537 312.942 201.797 317.565 200.856 322.379C188.701 326.26 175.574 325.82 163.708 321.132C151.842 316.444 141.969 307.798 135.767 296.664C135.579 288.528 135 282 135 282C135 282 216.886 290.039 206.004 308.701Z" fill="black"/>
<path d="M238 267.972C238.005 276.625 235.987 285.156 232.11 292.874C228.233 300.591 222.605 307.276 215.685 312.386C208.765 317.496 200.748 320.886 192.285 322.281C183.822 323.676 175.153 323.036 166.981 320.413C158.81 317.791 151.366 313.259 145.257 307.188C139.148 301.117 134.544 293.676 131.821 285.472C129.098 277.267 128.332 268.53 129.585 259.97C130.839 251.411 134.076 243.271 139.034 236.211C139.805 235.118 140.616 234.05 141.469 233.009C146.325 227.054 152.367 222.195 159.205 218.749V218.749C162.914 216.876 166.827 215.445 170.864 214.484C178.154 212.741 185.72 212.531 193.094 213.866C200.467 215.201 207.49 218.052 213.724 222.243C219.959 226.434 225.272 231.874 229.333 238.226C233.395 244.578 236.117 251.704 237.332 259.163C237.785 262.077 238.009 265.023 238 267.972Z" fill="#DABC8F"/>
<path d="M260.298 494.645C259.473 499.048 260.505 507.094 262.071 515.283C262.135 515.641 262.207 515.998 262.278 516.355C262.35 516.712 262.454 517.264 262.545 517.712C263.265 521.232 264.051 524.719 264.817 527.889C265.584 531.058 266.272 533.772 266.857 536.006C267.74 539.351 268.344 541.455 268.344 541.455C268.344 541.455 268.422 543.52 268.526 546.806C268.584 548.703 268.649 551.014 268.714 553.567C268.714 554.307 268.759 555.06 268.779 555.84C268.811 557.197 268.844 558.606 268.876 560.048C268.876 560.515 268.876 560.983 268.909 561.457C268.909 563.009 268.967 564.594 268.993 566.172C269.026 568.341 269.052 570.51 269.065 572.614C269.065 573.419 269.065 574.212 269.065 574.991C269.065 577.004 269.065 578.933 269.065 580.706C268.993 585.739 268.792 589.538 268.363 590.636C268.214 591.012 268.077 591.421 267.948 591.85C267.384 593.866 266.976 595.922 266.727 598L265.623 597.097C263.512 595.357 261.421 593.577 259.298 591.85C255.768 588.893 252.021 586.206 248.089 583.81C247.823 583.654 247.556 583.498 247.284 583.349C246.556 582.927 245.816 582.531 245.063 582.154C243.511 581.372 241.92 580.669 240.296 580.05C232.796 577.193 224.762 576.154 216.619 576.329C213.372 577.569 211.261 578.459 211.261 578.459L207.131 579.706L206.443 579.914C201.969 581.277 195.676 583.213 193.409 584.018C189.747 585.317 157.946 591.934 157.946 591.934C155.04 592.727 152.073 593.271 149.075 593.558C143.616 595.093 138.06 596.256 132.444 597.039C119.681 598.67 106.719 597.627 94.3823 593.974C94.0141 593.996 93.6447 593.985 93.2784 593.941C93.5056 593.941 93.7264 593.889 93.9278 593.85L93.1355 593.616L92.051 593.279C90.2327 592.707 88.4295 592.082 86.6415 591.402L85.557 590.986C83.8253 590.32 82.1303 589.603 80.4722 588.837L79.3877 588.343C77.656 587.538 75.961 586.687 74.3029 585.791C73.7054 585.479 73.1145 585.141 72.53 584.823C70.7637 583.836 69.0319 582.801 67.3348 581.719C67.0491 579.271 66.8997 577.634 66.8997 577.634L64.3671 565.022L64.2372 564.373L62.4189 555.281L62.289 554.632L58.3341 534.85L58.2042 534.201L56.3859 525.109L56.256 524.46L52.2492 504.691L52.1194 504.042L50.301 494.95L50.1712 494.301L46.1968 474.493L46.067 473.844L44.2486 464.784L44.1188 464.135L43.3979 460.563L42.3134 455.154C42.3134 455.154 38.8521 450.205 34.9557 444.354L34.5206 443.704C33.4101 442.061 32.2672 440.353 31.1567 438.678C30.7866 438.126 30.4294 437.58 30.0722 437.041C29.5311 436.223 29.0072 435.424 28.5007 434.645L28.15 434.106L28.0786 433.995C22.4807 425.332 26.2278 421.566 26.2278 421.566C26.2278 421.566 28.5786 418.383 31.6113 414.175C31.7607 413.961 31.9165 413.747 32.0789 413.526C33.3777 411.707 34.8064 409.72 36.2091 407.733L37.2936 406.187C37.7027 405.609 38.1053 405.031 38.4949 404.46C38.6508 404.246 38.8002 404.025 38.943 403.81C41.9368 399.485 44.4045 395.712 44.911 394.374C45.7033 392.264 50.7556 386.023 55.7885 380.548C59.7563 376.223 63.7047 372.378 65.4775 371.456C69.4973 369.333 71.1533 362.468 71.1533 362.468C71.1533 362.468 79.9007 359.403 81.0826 357.039C82.2645 354.675 98.8177 344.051 98.8177 344.051C98.8177 344.051 105.513 339.739 108.221 337.141C108.604 336.801 108.939 336.41 109.215 335.978C110.156 334.29 116.306 332.9 118.806 332.4C119.456 332.27 119.858 332.199 119.858 332.199C120.868 330.365 122.144 328.69 123.644 327.231C124.664 326.328 125.937 323.217 127.008 320.204C128.171 316.918 129.073 313.755 129.073 313.755C130.97 307.372 134.749 309.261 134.749 309.261C134.744 310.133 134.827 311.004 134.996 311.859C136.574 319.652 145.146 322.899 149.646 326.542C154.614 330.556 162.414 340.966 168.563 343.09C173.655 344.85 179.558 351.487 181.428 353.701L181.571 353.87C181.883 354.234 182.038 354.442 182.038 354.442C182.038 354.442 185.526 354.26 187.649 354.221H188.422C188.854 354.177 189.264 354.011 189.604 353.74C191.714 352.305 194.858 348.097 196.228 347.129C197.877 345.941 199.54 326.789 199.54 326.789L199.624 326.75C205.514 323.99 211.833 351.617 211.833 351.617C211.833 351.617 222.944 354.929 223.892 357.292C224.074 357.76 224.912 358.591 226.172 359.598C231.908 363.982 238.014 367.86 244.42 371.19C244.563 371.261 244.699 371.333 244.842 371.391C244.971 371.461 245.103 371.524 245.238 371.58C245.478 371.697 245.712 371.8 245.933 371.898C246.284 372.054 246.608 372.184 246.907 372.288L247.297 372.424C248.227 372.734 249.104 373.187 249.894 373.768C250.128 373.937 250.362 374.112 250.589 374.301C251.473 375.037 252.287 375.854 253.018 376.743C253.128 376.872 253.232 377.009 253.336 377.139C253.83 377.756 254.271 378.366 254.635 378.931C255.232 379.803 255.776 380.709 256.265 381.646C256.265 381.646 265.954 398.199 269.032 400.083C272.11 401.966 274 421.13 274 421.13L263.61 459.648C263.61 459.648 263.123 469.389 262.213 479.325C261.707 484.897 261.064 490.566 260.298 494.645Z" fill="#CED7E7"/>
<path d="M182 355.965C182 355.965 174.936 359.642 169.419 359.989C168.697 360.022 167.973 359.981 167.26 359.869C161.479 359.029 153 354.468 153 354.468L162.948 344L175.048 349.755L179.498 353.729L182 355.965Z" fill="#63667E"/>
<path opacity="0.1" d="M238 259.267C237.754 259.616 237.475 259.94 237.166 260.235C233.765 263.484 227.727 262.139 223.091 261.385C219.063 260.723 215.127 259.58 211.369 257.98C208.098 256.576 204.173 254.861 201.231 256.875C200.1 257.642 199.324 258.87 198.147 259.546C196.971 260.222 195.471 260.267 194.081 260.287C189.555 260.287 185.029 260.339 180.613 259.312C174.025 257.765 167.21 253.873 160.946 256.44C156.045 258.441 153.387 263.802 152.062 268.955C151.416 271.483 150.937 274.154 149.476 276.298C148.015 278.443 145.189 279.963 142.784 278.956C139.235 277.468 138.711 271.412 134.431 271.106C129.731 270.775 129.789 275.655 131.159 279.183C133.19 284.382 135.847 289.581 135.963 295C130.912 285.906 128.525 275.561 129.078 265.161C129.632 254.761 133.104 244.73 139.093 236.231C140.135 235.582 140.95 234.624 141.427 233.488C141.474 233.335 141.513 233.179 141.543 233.02C141.898 231.207 140.896 229.303 140.838 227.406C140.612 222.773 145.603 219.543 150.181 218.958C153.226 218.569 156.342 218.867 159.394 218.77C160.931 218.736 162.46 218.531 163.952 218.159C166.526 217.384 168.937 216.139 171.064 214.488C178.4 212.741 186.016 212.53 193.437 213.868C200.859 215.206 207.926 218.065 214.201 222.266C220.476 226.468 225.823 231.922 229.911 238.289C233.999 244.657 236.739 251.802 237.961 259.28L238 259.267Z" fill="black"/>
<path d="M238.663 255.873C238.342 257.157 237.673 258.326 236.731 259.249C233.344 262.497 227.331 261.146 222.714 260.392C218.703 259.745 214.783 258.612 211.042 257.016C207.784 255.619 203.876 253.905 200.946 255.918C199.819 256.684 199.047 257.912 197.875 258.587C196.703 259.262 195.209 259.308 193.825 259.321C189.318 259.353 184.811 259.379 180.414 258.353C173.853 256.801 167.067 252.918 160.828 255.476C155.948 257.477 153.301 262.841 151.982 267.991C151.338 270.517 150.861 273.186 149.406 275.323C147.951 277.459 145.137 278.992 142.742 277.985C139.208 276.498 138.686 270.445 134.424 270.14C129.743 269.809 129.801 274.686 131.166 278.212C133.561 284.362 136.819 290.48 135.75 297C134.688 297 132.93 296.961 131.887 296.935C132.698 295.539 131.153 293.876 129.614 293.402C128.076 292.928 126.279 292.935 125.107 291.805C123.936 290.675 123.929 288.928 124.051 287.363C124.319 284.018 125.13 280.74 126.453 277.66C127.296 275.712 128.385 273.602 127.741 271.562C127.354 270.638 126.889 269.749 126.35 268.906C125.011 266.309 125.326 263.062 126.472 260.379C126.962 259.237 127.316 258.158 127.721 257.132C128.234 255.674 128.975 254.308 129.917 253.087C131.391 251.236 132.834 248.45 131.205 246.729C130.793 246.294 131.617 245.995 131.353 245.43C131.306 245.333 131.274 245.231 131.256 245.125C131.18 244.441 131.344 243.751 131.72 243.176C131.796 243.027 131.88 242.882 131.971 242.741C132.045 242.593 132.129 242.45 132.222 242.313C133.648 239.912 135.542 237.828 137.791 236.189C139.188 235.169 140.824 234.189 141.377 232.539C142.021 230.591 140.888 228.519 140.791 226.461C140.566 221.83 145.537 218.603 150.095 218.018C154.653 217.434 159.379 218.401 163.822 217.213C170.125 215.537 174.555 209.926 180.279 206.777C183.41 205.088 186.882 204.143 190.431 204.015C193.979 203.887 197.51 204.578 200.753 206.036C207.436 209.115 212.477 215.336 219.457 217.674C221.929 218.505 224.607 218.836 226.835 220.213C229.41 221.811 230.975 224.603 232.314 227.357C234.355 231.532 234.767 235.728 236.177 240.15C237.298 243.657 238.849 248.242 238.978 252.281C239.05 253.488 238.944 254.698 238.663 255.873V255.873Z" fill="#896363"/>
<g opacity="0.1">
<path opacity="0.1" d="M131.45 247.617C131.554 247.202 131.564 246.769 131.48 246.349C131.396 245.929 131.219 245.533 130.963 245.19C131.132 245.696 130.399 245.988 130.801 246.41C131.122 246.747 131.346 247.164 131.45 247.617Z" fill="black"/>
<path opacity="0.1" d="M130.944 243.704C130.868 243.93 130.822 244.166 130.808 244.405C130.931 244.197 131.1 243.983 130.944 243.704Z" fill="black"/>
<path opacity="0.1" d="M237.168 257.541C233.747 260.787 227.691 259.443 223.025 258.684C218.984 258.033 215.036 256.893 211.27 255.289C207.98 253.887 204.047 252.174 201.087 254.186C199.958 254.952 199.179 256.178 197.991 256.853C196.803 257.528 195.304 257.574 193.908 257.587C189.365 257.587 184.822 257.645 180.382 256.613C173.775 255.069 166.934 251.194 160.645 253.744C155.725 255.75 153.057 261.105 151.727 266.252C151.078 268.776 150.604 271.444 149.13 273.586C147.657 275.728 144.821 277.247 142.413 276.247C138.849 274.754 138.324 268.712 134.027 268.407C130.671 268.166 129.737 270.568 129.964 273.235C130.159 271.197 131.262 269.627 134.027 269.821C138.324 270.126 138.849 276.176 142.413 277.662C144.821 278.668 147.664 277.156 149.13 275.001C150.597 272.846 151.078 270.191 151.727 267.673C153.057 262.526 155.725 257.165 160.645 255.166C166.934 252.609 173.775 256.464 180.382 258.035C184.796 259.067 189.378 259.034 193.908 259.002C195.304 259.002 196.777 258.963 197.991 258.275C199.205 257.587 199.938 256.373 201.087 255.601C204.047 253.595 207.98 255.309 211.27 256.704C215.037 258.307 218.984 259.449 223.025 260.105C227.691 260.858 233.747 262.215 237.168 258.956C239.024 257.184 239.582 254.621 239.459 251.817C239.355 254.043 238.706 256.062 237.168 257.541Z" fill="black"/>
<path opacity="0.1" d="M140.498 225.18C140.462 225.503 140.449 225.828 140.459 226.153C140.524 227.503 141.037 228.853 141.199 230.171C141.439 228.555 140.693 226.867 140.498 225.18Z" fill="black"/>
<path opacity="0.1" d="M127.309 271.23C127.363 271.424 127.404 271.621 127.433 271.82C127.538 271.151 127.496 270.466 127.309 269.815C126.922 268.888 126.453 267.997 125.907 267.154C125.42 266.194 125.131 265.145 125.057 264.071C124.925 265.622 125.219 267.179 125.907 268.575C126.454 269.415 126.924 270.304 127.309 271.23Z" fill="black"/>
<path opacity="0.1" d="M135.364 295.232L131.567 295.173C131.656 295.403 131.691 295.649 131.671 295.894C131.651 296.139 131.575 296.376 131.45 296.588C132.521 296.588 134.3 296.627 135.345 296.653C135.526 295.542 135.589 294.415 135.533 293.291C135.518 293.941 135.462 294.589 135.364 295.232Z" fill="black"/>
<path opacity="0.1" d="M129.153 291.642C127.601 291.175 125.797 291.169 124.642 290.033C123.962 289.289 123.578 288.321 123.564 287.313C123.467 288.806 123.564 290.416 124.642 291.454C125.797 292.59 127.601 292.597 129.153 293.064C129.657 293.211 130.127 293.459 130.532 293.794C130.937 294.129 131.269 294.543 131.509 295.011C132.164 293.667 130.658 292.09 129.153 291.642Z" fill="black"/>
</g>
<path opacity="0.1" d="M247 583C246.277 582.58 245.542 582.185 244.793 581.81C243.251 581.031 241.671 580.332 240.057 579.715C232.605 576.87 224.623 575.835 216.532 576.01C213.306 577.245 211.209 578.131 211.209 578.131L207.105 579.372L206.421 579.579C206.376 579.127 206.324 578.674 206.279 578.215C206.234 577.756 206.182 577.316 206.131 576.863C204.685 563.148 203.55 549.057 203.55 549.057V536.887V535.471L203.472 499.614L202.827 487.793L202.524 482.561L202.466 481.565L202.35 479.522L202.285 478.306C202.143 477.921 202.022 477.528 201.924 477.129C201.878 476.968 201.833 476.787 201.795 476.599C201.633 475.952 201.459 475.118 201.278 474.213C200.098 468.264 198.62 458.234 198.53 456.197C198.414 453.481 196.065 437.237 196.065 437.237C195.826 428.294 188.322 411.455 186.431 408.28C184.541 405.105 182.431 386.028 183.141 385C183.509 384.45 183.747 381.198 183.896 378.197C183.896 377.855 183.928 377.518 183.941 377.189C184.038 374.841 184.083 372.882 184.083 372.882L191.464 371.42L193.445 371.032L193.6 371L193.665 371.129C193.878 371.524 194.542 372.785 195.323 374.44C195.413 374.615 195.497 374.802 195.587 374.99C195.626 375.08 195.671 375.171 195.716 375.261C197.162 378.43 198.833 382.601 198.762 385C198.646 389.242 203.466 399.485 203.466 399.485C203.93 401.839 214.151 425.261 214.151 425.261C214.151 425.261 222.494 448.217 222.023 451.987C221.552 455.757 226.017 480.712 226.017 480.712L230.598 506.378C232.824 511.434 235.76 523.087 235.76 523.087L236.876 529.696L237.089 530.957L240.064 548.591L241.522 557.231C241.522 557.231 242.135 561.822 243.064 566.931C243.141 567.39 243.232 567.855 243.322 568.321C243.895 571.684 244.708 575.001 245.755 578.247C246.274 579.802 246.69 581.39 247 583V583Z" fill="black"/>
<path d="M248 584C247.736 583.844 247.472 583.689 247.201 583.54C246.479 583.118 245.745 582.723 244.997 582.347C243.458 581.566 241.879 580.865 240.268 580.247C232.826 577.394 224.855 576.357 216.775 576.532C213.553 577.77 211.459 578.658 211.459 578.658L207.361 579.903C207.309 579.449 207.264 578.995 207.213 578.535C207.161 578.075 207.123 577.705 207.084 577.29C205.641 563.573 204.506 549.512 204.506 549.512V537.195V535.776L204.429 499.92L203.785 488.601L203.656 486.255L203.566 484.667L203.45 482.566L203.334 480.433L203.25 478.897V478.56C203.25 478.527 203.25 478.489 203.205 478.45C203.082 478.1 202.934 477.568 202.773 476.894L202.696 476.57C202.664 476.421 202.625 476.259 202.593 476.097C201.381 470.567 199.603 458.645 199.506 456.409C199.39 453.686 197.045 437.402 197.045 437.402C196.807 428.436 189.313 411.555 187.425 408.372C185.537 405.189 183.436 386.066 184.139 385.035C184.545 384.387 184.783 380.452 184.938 377.204C184.938 376.945 184.938 376.692 184.938 376.452C185.021 374.449 185.054 372.886 185.054 372.886L191.909 371.525L193.649 371.182L193.92 371.13L194.564 371C194.564 371 195.408 372.569 196.42 374.728L196.549 375C198.024 378.202 199.771 382.559 199.719 385.035C199.603 389.288 204.416 399.556 204.416 399.556C204.88 401.916 215.087 425.396 215.087 425.396C215.087 425.396 223.418 448.409 222.948 452.189C222.477 455.968 226.936 480.984 226.936 480.984L231.511 506.714C233.734 511.783 236.666 523.465 236.666 523.465L237.703 529.637L237.916 530.888L240.255 544.838L242.413 557.693C242.413 557.693 243.058 562.277 243.947 567.417C244.031 567.884 244.115 568.351 244.205 568.824C244.776 572.21 245.587 575.551 246.634 578.82C247.205 580.514 247.662 582.244 248 584V584Z" fill="#63667E"/>
<path d="M242 250.815C242 250.815 239.535 254 237.309 254C235.083 254 226.417 253.644 221.9 252.233C217.383 250.821 195.238 249.753 195.238 249.753C195.238 249.753 163.878 249.87 162.819 248.808C161.761 247.746 143.319 242.088 141.442 242.444C141.048 242.522 140.087 242.69 138.803 242.904L137.331 243.143C135.105 243.499 132.324 243.914 129.782 244.218C126.639 244.587 123.878 244.775 123 244.451V241.739C123 241.739 126.639 236.43 126.872 234.909C127.104 233.387 130.162 211.331 138.151 203.44C141.451 197.11 146.792 192.09 153.302 189.197C164.11 184.478 174.918 180.477 174.918 180.477L176.809 180.205L182.907 179.299C183.092 179.114 183.293 178.945 183.507 178.794C185.197 177.499 190.321 174.683 196.999 180.736L198.18 182.626C198.18 182.626 218.732 187.456 228.243 204.307C237.754 221.158 238.232 237.66 238.935 245.202C238.935 245.202 238.464 247.326 239.406 248.148C239.747 248.45 240.072 248.77 240.38 249.106C240.464 249.19 240.548 249.274 240.626 249.365C240.897 249.637 241.148 249.922 241.355 250.155C241.379 250.173 241.401 250.195 241.419 250.219C241.47 250.281 241.524 250.339 241.581 250.394L242 250.815Z" fill="#FED253"/>
<path opacity="0.05" d="M242 250.727C242 250.727 239.526 254 237.292 254C235.057 254 226.359 253.634 221.826 252.184C217.292 250.733 195.065 249.635 195.065 249.635C195.065 249.635 163.589 249.755 162.527 248.664C161.464 247.573 142.955 241.758 141.07 242.124C140.675 242.204 139.71 242.377 138.421 242.596L138.084 240.467L138 239.942C138 239.942 173.724 232.071 197.539 236.196C221.353 240.321 238.924 244.912 238.924 244.912C238.924 244.912 238.451 247.094 239.396 247.939C239.739 248.25 240.065 248.578 240.374 248.924C240.459 249.01 240.543 249.097 240.62 249.19C240.893 249.469 241.145 249.762 241.352 250.001C241.377 250.02 241.399 250.043 241.417 250.068C241.468 250.131 241.522 250.191 241.579 250.248L242 250.727Z" fill="black"/>
<path opacity="0.1" d="M238.631 255.933C234.209 256.28 226.061 255.193 222.497 254.662C221.484 254.512 220.49 254.328 219.49 254.106C215.666 253.268 203.908 250.916 196.766 252.004C188.137 253.313 163.789 250.93 163.789 250.93C163.789 250.93 148.778 247.832 142.746 245.33C140.532 244.407 136.831 244.119 133.15 244.577C132.211 244.695 131.279 244.864 130.358 245.081C125.333 246.28 121.093 249.011 121.827 253.667C121.546 253.327 121.286 252.971 121.048 252.6C120.73 248.343 122.041 245.808 123.859 244.315L124.288 244.138C126.508 243.502 128.768 243.014 131.053 242.678C131.41 242.619 131.78 242.567 132.157 242.521C138.617 241.643 147.96 241.447 155.842 245.448C155.842 245.448 163.166 248.912 168.133 248.912C173.1 248.912 213.517 249.273 222.977 252.01C224.86 252.559 226.781 252.968 228.723 253.235C232.172 253.683 235.677 253.35 238.982 252.259C239.049 253.494 238.931 254.733 238.631 255.933V255.933Z" fill="black"/>
<path opacity="0.1" d="M242 250.629C242 250.629 239.535 254 237.309 254C235.083 254 226.417 253.623 221.9 252.13C217.383 250.636 195.238 249.506 195.238 249.506C195.238 249.506 163.878 249.629 162.819 248.505C161.761 247.382 143.319 241.394 141.442 241.77C141.048 241.853 140.087 242.031 138.803 242.257L137.331 242.51C134.776 242.497 132.233 242.88 129.782 243.648C126.639 244.038 123.878 244.237 123 243.894V243.326C123.677 242.909 124.382 242.547 125.11 242.243C129.464 240.949 133.948 240.208 138.467 240.037C144.1 239.818 150.688 240.517 156.476 243.613C156.476 243.613 163.755 247.238 168.691 247.238C173.628 247.238 213.795 247.608 223.197 250.478C225.069 251.047 226.978 251.473 228.908 251.753C233.142 252.319 237.442 251.664 241.355 249.855C241.379 249.874 241.401 249.897 241.419 249.923C241.47 249.988 241.524 250.05 241.581 250.108L242 250.629Z" fill="black"/>
<path d="M121.914 253.275C121.914 253.275 113.988 247.193 124.279 243.141C124.279 243.141 142.257 237.543 155.862 244.45C155.862 244.45 163.191 247.9 168.161 247.9C173.131 247.9 213.576 248.26 223.043 251.004C224.928 251.548 226.849 251.955 228.793 252.221C233.829 252.837 238.93 251.86 243.392 249.426C244.041 249.066 244.626 248.882 244.802 249.092C245.393 249.812 244.925 253.982 239.721 254.814C235.66 255.468 226.434 254.231 222.555 253.662C221.548 253.511 220.548 253.321 219.554 253.105C215.727 252.267 203.96 249.917 196.781 251.004C188.153 252.313 163.782 249.93 163.782 249.93C163.782 249.93 148.767 246.833 142.731 244.326C136.695 241.818 119.666 243.979 121.914 253.275Z" fill="#FED253"/>
<path opacity="0.1" d="M161.814 225.851L159 230L169.758 229.638L170 225L161.814 225.851Z" fill="black"/>
<path opacity="0.1" d="M225 231L226.211 234.099L233 235L230.092 231.297L225 231Z" fill="black"/>
<path opacity="0.1" d="M112 354C112.688 355.182 135.337 385.834 141.318 384.983C147.299 384.132 112 354 112 354Z" fill="black"/>
<path opacity="0.1" d="M190 381C190 381 195.759 387.224 194.916 389.652C194.072 392.081 190 381 190 381Z" fill="black"/>
<path opacity="0.1" d="M127.993 419C127.993 419 121.633 442.245 124.967 442.984C128.3 443.723 127.993 419 127.993 419Z" fill="black"/>
<path opacity="0.1" d="M191 509C191.88 511.417 199.197 527.131 200.839 527.974C202.481 528.817 191 509 191 509Z" fill="black"/>
<path opacity="0.1" d="M271 447C270.762 447.752 264.896 452.177 266.185 453.794C267.474 455.41 271 447 271 447Z" fill="black"/>
<path opacity="0.1" d="M225.383 489C225.275 489.613 224.182 502.328 226.26 504.774C228.337 507.22 225.383 489 225.383 489Z" fill="black"/>
<path opacity="0.1" d="M285.293 553.352C283.587 554.307 281.823 555.229 280.026 556.112C278.087 557.06 276.148 557.963 274.17 558.814C273.382 559.158 272.593 559.496 271.811 559.82C270.622 560.314 269.446 560.788 268.282 561.243C264.747 562.632 261.341 563.84 258.31 564.86C257.134 565.256 256.009 565.62 254.962 565.957C249.688 567.639 246.185 568.555 246.185 568.555C245.385 568.383 244.566 568.315 243.748 568.353C243.522 568.353 243.29 568.353 243.05 568.353C241.956 568.433 240.866 568.572 239.787 568.769C232.567 570.068 222.368 573.711 216.222 576.094C212.99 577.335 210.89 578.224 210.89 578.224L206.779 579.471L206.094 579.679C201.641 581.043 195.379 582.978 193.123 583.783C189.478 585.082 157.828 591.699 157.828 591.699C154.936 592.492 151.983 593.035 148.999 593.323C141.647 594.001 134.258 594.17 126.883 593.829C119.476 594.31 107.493 592.673 100.519 591.569L99.4078 591.394C96.7127 590.953 95 590.634 95 590.634L95.9048 589.381L114.46 563.658L114.57 563.502L131.859 539.546L132.505 538.676L134.076 536.501C134.076 536.501 135.02 535.202 138.652 535.117C139.078 535.117 139.544 535.117 140.054 535.117C143.105 535.364 146.115 535.981 149.019 536.955L149.859 537.208C162.378 540.813 181.728 539.91 181.728 539.91C181.728 539.91 193.769 537.962 203.231 536.793L203.936 536.702C207.028 536.263 210.141 535.992 213.262 535.89C219.027 536.007 231.501 532.935 231.501 532.935C234.183 532.357 235.314 531.87 236.826 530.786C237.027 530.643 237.24 530.487 237.473 530.318C238.119 529.831 238.862 529.234 239.819 528.493C241.564 527.149 244.013 525.324 247.865 522.766C248.202 522.545 248.557 522.324 248.938 522.116C249.32 521.909 249.804 521.629 250.27 521.396C254 519.62 257.933 518.312 261.981 517.499C265.338 516.774 268.745 516.303 272.173 516.09H272.684C282.378 515.57 292.28 517.239 298.071 522.714C299.083 523.676 299.966 524.768 300.695 525.961C301.049 526.527 301.364 527.118 301.638 527.727C302.167 528.89 302.559 530.11 302.808 531.364C302.856 531.598 302.894 531.831 302.925 532.065C302.925 532.137 302.925 532.202 302.925 532.273C302.925 532.461 302.963 532.65 302.976 532.838C303.493 540.611 295.466 547.638 285.293 553.352Z" fill="black"/>
<path d="M95 589.643C95 589.643 115.941 593.537 126.883 592.829C126.883 592.829 147.002 593.894 157.828 590.707C157.828 590.707 189.498 584.087 193.123 582.789C196.749 581.491 210.891 577.233 210.891 577.233C210.891 577.233 238.424 565.655 246.186 567.543C246.186 567.543 307.133 551.713 302.777 530.328C298.421 508.943 259.952 513.791 247.84 521.819C235.728 529.848 237.499 530.685 231.489 531.983C231.489 531.983 219.015 535.053 213.25 534.936C207.485 534.819 181.716 538.954 181.716 538.954C181.716 538.954 161.48 539.901 149.012 536C136.545 532.1 134.07 535.527 134.07 535.527L95 589.643Z" fill="#DABC8F"/>
<path opacity="0.1" d="M140.998 534.056C141.001 534.082 141.001 534.108 140.998 534.134C140.952 534.616 140.827 535.087 140.626 535.528C138.126 541.635 123.929 558.107 123.929 558.107C123.282 560.064 122.501 561.974 121.591 563.825C119.635 567.781 117.382 571.584 114.851 575.202C111.099 580.615 107.003 585.784 102.588 590.676H102.556C101.994 591.091 101.409 591.474 100.804 591.824C99.2735 592.731 96.9746 593.853 94.806 593.989C94.4368 594.011 94.0663 594 93.699 593.957C93.9269 593.957 94.1483 593.905 94.3502 593.866L93.5557 593.632L92.4681 593.295C90.6447 592.725 88.8365 592.1 87.0434 591.422L85.9559 591.007C84.2193 590.341 82.5196 589.626 80.8568 588.861L79.7692 588.369C78.0326 587.565 76.3329 586.715 74.6701 585.821C74.071 585.51 73.4784 585.173 72.8923 584.855C71.1209 583.869 69.3843 582.837 67.6824 581.756C65.8764 580.611 64.1094 579.416 62.3814 578.171C61.079 575.766 60.0045 573.633 59.4184 572.486C58.3503 570.353 58.2592 567.3 58.3894 565.089C58.3894 564.862 58.3894 564.648 58.4285 564.441C58.5392 563.054 58.7085 562.101 58.7085 562.101C57.7436 560.816 56.873 559.464 56.1036 558.055C55.6616 557.356 55.4102 556.554 55.3742 555.728C55.4037 555.397 55.3728 555.063 55.2831 554.743C54.7816 552.694 52.6261 549.174 50.6333 546.963C49.1485 545.336 49.0573 539.256 49.2006 534.945C49.2853 532.351 49.4481 530.446 49.4481 530.446C49.1563 530.258 48.9379 529.977 48.8294 529.648C48.3058 528.229 47.9517 526.754 47.7744 525.253C47.7744 525.039 47.7158 524.825 47.6832 524.605C47.2665 521.629 47.0776 518.641 47.0776 518.641C42.2585 515.146 39.9662 509.694 38.8982 504.832L38.7614 504.184C38.1749 501.196 37.9259 498.152 38.019 495.108C38.019 494.817 38.019 494.596 38.019 494.46C38.019 494.324 38.019 494.298 38.019 494.298C38.019 494.298 38.6572 480.25 40.4416 474.766C40.5132 474.532 40.5914 474.318 40.6695 474.117C40.801 473.773 40.9714 473.445 41.1775 473.138C41.8287 472.276 42.2911 470.649 42.6753 468.724C42.9423 467.388 43.1637 465.904 43.3265 464.426C43.4763 463.194 43.5935 461.969 43.6847 460.834C43.9387 457.8 44.0168 455.434 44.0168 455.434L42.8121 449.522C42.4799 447.908 42.226 446.281 42.0501 444.653C42.0501 444.44 41.998 444.226 41.972 444.005C41.6674 441 41.613 437.976 41.8092 434.962C41.8092 434.741 41.8092 434.528 41.8483 434.314C42.3567 427.449 44.1595 420.741 47.1623 414.541L47.4879 413.893C47.922 413.029 48.3779 412.179 48.8555 411.345C49.2006 410.729 49.5653 410.12 49.943 409.517C50.9443 407.903 52.0312 406.343 53.1991 404.843C53.3685 404.623 53.5443 404.409 53.7201 404.195C55.7522 401.687 58.0105 399.37 60.4668 397.271C67.0442 391.644 73.0811 389.2 78.5644 389.012C102.543 388.17 115.99 430.385 118.166 437.782C118.374 438.495 118.478 438.884 118.478 438.884C118.478 438.884 128.194 448.563 125.349 452.809C124.797 453.743 124.461 454.789 124.365 455.869C123.584 461.58 125.824 470.986 125.824 470.986C125.824 470.986 126.618 473.579 128.937 479.79L129.621 481.605C131.073 485.495 131.412 492.023 130.578 497.87C129.777 503.471 127.895 508.424 124.88 509.694C118.713 512.287 120.373 514.881 121.793 517.013C122.637 518.542 123.34 520.143 123.896 521.798C124.789 524.19 125.616 526.705 125.928 527.684C126.019 527.956 126.065 528.105 126.065 528.105C126.929 527.772 127.826 527.533 128.741 527.392C129.907 527.23 131.06 527.347 131.281 528.339C131.399 528.87 132.069 529.499 133.014 530.128C135.814 532.047 140.998 534.056 140.998 534.056Z" fill="black"/>
<path d="M139 534.138C138.96 534.631 138.835 535.114 138.629 535.565C136.141 541.681 121.93 558.202 121.93 558.202C121.28 560.159 120.499 562.07 119.592 563.923C118.02 567.119 116.243 570.211 114.271 573.179C110.188 579.313 105.665 585.144 100.737 590.627L100.587 590.789C100.587 590.789 100.014 591.224 99.1022 591.782C97.473 592.817 95.6777 593.568 93.7942 594L92.9997 593.766L91.912 593.429C90.0884 592.858 88.28 592.234 86.4868 591.555L85.3992 591.14C83.6624 590.474 81.9625 589.758 80.2996 588.993L79.2119 588.5C77.4752 587.695 75.7753 586.846 74.1124 585.951C73.5132 585.639 72.9205 585.302 72.3344 584.984C70.5629 583.998 68.8261 582.965 67.1241 581.884C65.3178 580.738 63.5507 579.542 61.8226 578.297C61.0237 577.726 60.2335 577.14 59.4519 576.539C58.5727 574.878 57.8693 573.477 57.4329 572.608C56.3648 570.474 56.2737 567.419 56.4039 565.207C56.4039 564.98 56.4039 564.766 56.443 564.559C56.5537 563.171 56.723 562.217 56.723 562.217C56.723 562.217 56.1955 561.51 55.5572 560.55C55.199 560.018 54.8148 559.402 54.4696 558.792C53.8183 557.651 53.3103 556.496 53.408 555.841C53.4212 555.729 53.4212 555.616 53.408 555.504C53.3982 555.285 53.3655 555.067 53.3103 554.855C52.8088 552.805 50.6465 549.283 48.6536 547.072C47.1687 545.444 47.0775 539.359 47.2143 535.046C47.2143 534.825 47.2143 534.611 47.2143 534.397C47.3054 532.16 47.4422 530.544 47.4422 530.544C46.7063 530.227 46.1396 527.872 45.7749 525.355L45.6772 524.707C45.2604 521.73 45.0715 518.739 45.0715 518.739C40.252 515.243 37.9595 509.788 36.8979 504.924C36.1583 501.516 35.8736 498.027 36.0512 494.545C36.0512 494.442 36.0512 494.383 36.0512 494.383C36.0512 494.383 36.6113 480.256 38.3959 474.762C38.4675 474.529 38.5456 474.315 38.6238 474.114C38.7801 473.777 38.9746 473.459 39.2034 473.167C40.1934 471.792 40.8512 468.483 41.281 465.098L41.3592 464.449C41.8998 459.909 42.0496 455.452 42.0496 455.452L40.8382 449.537C40.5082 447.915 40.2542 446.292 40.0762 444.666C40.0436 444.452 40.0241 444.231 39.998 444.017C39.6935 441.011 39.639 437.984 39.8352 434.969C39.8352 434.748 39.8352 434.534 39.8808 434.32C40.3862 427.451 42.1893 420.739 45.1953 414.537C45.2995 414.316 45.4037 414.102 45.5209 413.888C46.3583 412.204 47.2889 410.567 48.3084 408.985C48.6601 408.433 49.0183 407.888 49.3961 407.35C49.9887 406.494 50.6075 405.651 51.2522 404.833L51.7733 404.185C53.7881 401.685 56.0269 399.373 58.462 397.277C65.6261 391.16 72.139 388.799 78.0006 389.013C101.089 389.837 114.049 430.558 116.179 437.81C116.387 438.523 116.492 438.912 116.492 438.912C116.492 438.912 126.215 448.596 123.369 452.845C122.817 453.78 122.481 454.826 122.386 455.907C121.598 461.621 123.845 471.033 123.845 471.033C123.845 471.033 124.639 473.627 126.958 479.841C127.166 480.418 127.394 481.022 127.609 481.657C129.061 485.549 129.4 492.081 128.566 497.931C127.765 503.542 125.89 508.491 122.868 509.762C116.706 512.357 118.361 514.951 119.787 517.085C120.631 518.615 121.335 520.217 121.891 521.872C123.017 524.927 124.053 528.183 124.053 528.183C124.479 528.02 124.914 527.879 125.356 527.762C126.262 527.465 127.221 527.366 128.169 527.47C128.431 527.49 128.681 527.593 128.881 527.763C129.081 527.933 129.222 528.162 129.283 528.417C129.459 529.195 130.807 530.162 132.442 531.076C134.564 532.227 136.754 533.249 139 534.138V534.138Z" fill="#CED7E7"/>
<path opacity="0.1" d="M54 471.502C56.2452 471.386 80.3458 462.107 85.3099 465.275C90.2741 468.443 121 489 121 489C121 489 101.747 463.985 84.9725 458.114C68.1982 452.242 54 471.502 54 471.502Z" fill="black"/>
<path opacity="0.1" d="M88 509C88 509 112.309 514.346 116 518L88 509Z" fill="black"/>
<path opacity="0.1" d="M84 546C83.6256 546.34 74.294 565 75.0427 565C75.7915 565 83.7504 553.882 83.7504 553.882L84 546Z" fill="black"/>
<path opacity="0.1" d="M100 522C100 522 93.2819 524.722 94.0632 524.978C94.8445 525.234 99.7724 523.166 100 522Z" fill="black"/>
<path opacity="0.1" d="M93 552C94.2092 554.516 98.0758 562.071 98.9262 560.872C99.7766 559.673 93 552 93 552Z" fill="black"/>
<path opacity="0.1" d="M181 355.825L179.981 357.272C179.981 357.272 171.884 351.583 168.558 348.736C165.231 345.888 157.376 358.933 151.188 362.491C144.999 366.049 134.537 367 134.537 367C134.537 367 126.447 358.933 126.695 356.574C126.943 354.216 122.892 353.492 122.65 351.831C122.408 350.169 120.984 345.426 119.082 343.054C118.076 341.803 117.932 337.887 118.023 334.479C118.677 334.348 119.082 334.277 119.082 334.277C120.098 332.436 121.382 330.757 122.892 329.292C125.035 327.396 128.361 315.771 128.361 315.771C130.263 309.366 134.066 311.262 134.066 311.262C134.066 320.991 144.065 324.548 149.057 328.582C154.05 332.615 161.905 343.054 168.094 345.191C173.171 346.918 179.111 353.597 181 355.825Z" fill="black"/>
<path d="M181 353.819L179.981 355.272C179.981 355.272 171.856 349.597 168.531 346.731C165.207 343.864 157.356 356.927 151.171 360.485C144.985 364.042 134.528 365 134.528 365C134.528 365 126.442 356.927 126.691 354.575C126.939 352.223 122.889 351.493 122.648 349.825C122.406 348.158 120.982 343.421 119.081 341.049C118.076 339.798 117.932 335.882 118.023 332.475L119.081 332.279C120.097 330.439 121.38 328.759 122.889 327.295C125.032 325.392 128.356 313.775 128.356 313.775C130.257 307.371 134.058 309.26 134.058 309.26C134.058 318.988 144.051 322.552 149.041 326.585C154.031 330.618 161.882 341.049 168.068 343.186C173.175 344.939 179.112 351.591 181 353.819Z" fill="#CED7E7"/>
<path opacity="0.1" d="M182 356.255C182 356.255 175.291 359.667 170.051 359.99C169.365 360.02 168.678 359.983 168 359.879C168 359.879 173.784 355.827 179.155 355L182 356.255Z" fill="black"/>
<path opacity="0.1" d="M196.973 375.334C196.973 375.334 187.973 372.033 185 377C185.1 374.72 185.14 372.829 185.14 372.829L194.951 371C194.951 371 195.896 372.647 197 374.864C196.973 375.159 196.973 375.334 196.973 375.334Z" fill="black"/>
<path d="M168 359.84C168 359.84 178.131 353.497 183 354.032C188.106 354.586 198 354.977 198 354.977C198 354.977 194.587 363.047 195.044 364.709C195.5 366.371 195.612 374.441 195.612 374.441C195.612 374.441 185.375 370.289 183.669 378C183.669 378 178.094 369.337 174.337 366.723C171.845 364.845 169.698 362.513 168 359.84Z" fill="#63667E"/>
<path opacity="0.1" d="M227.363 368C224.254 368 213.245 361.139 210.853 356.654C208.46 352.169 205.108 357.121 202 358.783C200.028 359.847 192.213 357.621 188 356.005C190.136 354.57 194.868 350.533 196.255 349.566C197.925 348.378 199.607 329.236 199.607 329.236C205.588 326.166 212.049 354.051 212.049 354.051C212.049 354.051 223.301 357.361 224.254 359.724C224.438 360.191 225.286 361.022 226.561 362.028C227.876 365.3 228.599 368 227.363 368Z" fill="black"/>
<path d="M227.371 366C224.298 366 213.418 359.142 211.053 354.655C208.689 350.167 205.376 355.122 202.303 356.778C200.354 357.843 194.164 355.785 190 354.181C192.111 352.752 195.255 348.544 196.626 347.57C198.276 346.388 199.939 327.236 199.939 327.236C205.85 324.164 212.235 352.063 212.235 352.063C212.235 352.063 223.356 355.376 224.298 357.739C224.48 358.207 225.318 359.038 226.578 360.045C227.877 363.298 228.592 366 227.371 366Z" fill="#CED7E7"/>
<path d="M269.519 573.429L372.157 487.306C373.181 486.436 374.486 485.972 375.827 486.001L414.118 487.013C414.118 487.013 416.769 488.97 412.879 493.25L316.056 573.207C315.01 574.068 313.712 574.558 312.361 574.603L270.491 575.999C270.19 576.009 269.894 575.924 269.644 575.756C269.394 575.588 269.202 575.346 269.095 575.063C268.988 574.78 268.971 574.47 269.047 574.177C269.123 573.885 269.288 573.623 269.519 573.429Z" fill="white"/>
<path d="M319 562.071C319 562.071 341.21 594.115 365.886 564.31C390.562 534.504 383.427 518.844 375.944 518.015C368.462 517.187 326.36 549.821 319 562.071Z" fill="#DABC8F"/>
<path opacity="0.1" d="M590 232.641C590 232.641 602.804 207.894 617.934 220.656C617.934 220.656 621.24 221.853 620.986 225.329C620.986 225.329 619.715 224.639 618.704 227.297C618.338 228.239 617.859 229.134 617.28 229.963C616.506 231.081 615.392 231.923 614.101 232.362V232.362C614.101 232.362 607.305 237.427 594.724 233.521C594.724 233.521 591.17 234.027 590.598 233.59L594.73 230.577C594.73 230.577 596.828 233.685 599.905 234.033C599.905 234.033 594.743 230.805 595.328 230.102C595.442 229.963 597.584 228.608 597.584 228.608C597.584 228.608 601.259 233.989 606.027 234.388C606.027 234.388 599.352 231.356 598.398 228.057L601.755 226.202C601.755 226.202 605.353 232.084 610.763 232.742C610.763 232.742 603.897 229.336 602.499 225.848L606.046 224.468C606.046 224.468 609.67 230.134 614.171 230.653C614.171 230.653 606.637 225.917 606.879 224.208C606.879 224.208 610.21 223.138 611.234 223.277C611.234 223.277 613.929 227.285 616.574 227.348C616.574 227.348 611.876 223.657 612.187 223.087C612.187 223.087 616.905 222.847 619.359 223.98C619.359 223.98 615.856 222.037 612.187 222.353C613.199 221.207 614.525 220.38 616.002 219.973C616.002 219.973 613.402 218.909 611.024 222.423C611.024 222.423 607.356 222.758 606.904 223.163C606.904 223.163 608.761 219.365 611.043 217.751C611.043 217.751 607.635 218.346 605.957 223.499L602.397 224.828C602.397 224.828 604.578 219.682 606.51 218.086C606.51 218.086 603.128 219.232 601.513 225.234L598.207 227.019C598.207 227.019 599.746 222.435 601.507 220.207C601.507 220.207 598.602 221.942 597.279 227.563L595.207 229.013C595.207 229.013 596.396 225.689 596.821 224.765C597.247 223.841 597.031 223.651 597.031 223.651C595.593 225.35 594.656 227.412 594.323 229.608C594.323 229.608 590.223 232.869 590 232.641Z" fill="#AFAFAF"/>
<path opacity="0.1" d="M448 262.51C448 262.51 461.201 236.388 476.84 249.86C476.84 249.86 480.242 251.123 479.986 254.798C479.986 254.798 478.675 254.063 477.633 256.87C477.253 257.863 476.76 258.807 476.165 259.683C475.359 260.869 474.198 261.758 472.855 262.216V262.216C472.855 262.216 465.855 267.562 452.883 263.438C452.883 263.438 449.219 263.98 448.629 263.512L452.89 260.331C452.89 260.331 455.053 263.612 458.219 263.986C458.219 263.986 452.896 260.572 453.499 259.83C453.624 259.683 455.833 258.253 455.833 258.253C455.833 258.253 459.621 263.933 464.531 264.354C464.531 264.354 457.655 261.153 456.665 257.671L460.126 255.72C460.126 255.72 463.842 261.922 469.42 262.617C469.42 262.617 462.341 259.021 460.899 255.339L464.557 253.882C464.557 253.882 468.299 259.863 472.94 260.411C472.94 260.411 465.173 255.413 465.415 253.608C465.415 253.608 468.857 252.479 469.912 252.626C469.912 252.626 472.691 256.856 475.418 256.93C475.418 256.93 470.574 253.027 470.895 252.426C470.895 252.426 475.752 252.172 478.289 253.368C478.289 253.368 474.671 251.316 470.889 251.651C471.932 250.441 473.299 249.568 474.821 249.138C474.821 249.138 472.147 248.015 469.696 251.724C469.696 251.724 465.914 252.078 465.448 252.506C465.448 252.506 467.356 248.496 469.715 246.792C469.715 246.792 466.202 247.42 464.472 252.86L460.755 254.263C460.755 254.263 463.01 248.83 464.996 247.153C464.996 247.153 461.515 248.356 459.851 254.691L456.436 256.576C456.436 256.576 458.028 251.737 459.844 249.385C459.844 249.385 456.849 251.216 455.479 257.15L453.342 258.681C453.342 258.681 454.568 255.172 455.007 254.197C455.446 253.221 455.23 253.02 455.23 253.02C453.744 254.812 452.777 256.989 452.437 259.309C452.437 259.309 448.229 262.75 448 262.51Z" fill="#AFAFAF"/>
</svg>
