<svg width="820" height="820" viewBox="0 0 820 820" fill="none" xmlns="http://www.w3.org/2000/svg">
<circle cx="410" cy="410" r="410" fill="#C4C4C4" fill-opacity="0.6"/>
<rect x="76" y="243" width="476" height="242" rx="12" fill="#565656"/>
<path d="M536.358 489H89.642C85.4949 488.995 81.519 487.343 78.5866 484.404C75.6542 481.466 74.0047 477.482 74 473.327V256.673C74.0047 252.518 75.6542 248.534 78.5866 245.596C81.519 242.657 85.4949 241.005 89.642 241H536.358C540.505 241.005 544.481 242.657 547.413 245.596C550.346 248.534 551.995 252.518 552 256.673V473.327C551.995 477.482 550.346 481.466 547.413 484.404C544.481 487.343 540.505 488.995 536.358 489V489ZM89.642 242.844C85.9828 242.848 82.4747 244.306 79.8872 246.899C77.2998 249.491 75.8444 253.006 75.8402 256.673V473.327C75.8444 476.994 77.2998 480.509 79.8872 483.101C82.4747 485.694 85.9828 487.152 89.642 487.156H536.358C540.017 487.152 543.525 485.694 546.113 483.101C548.7 480.509 550.156 476.994 550.16 473.327V256.673C550.156 253.006 548.7 249.491 546.113 246.899C543.525 244.306 540.017 242.848 536.358 242.844H89.642Z" fill="white"/>
<path d="M159.5 296C164.194 296 168 292.194 168 287.5C168 282.806 164.194 279 159.5 279C154.806 279 151 282.806 151 287.5C151 292.194 154.806 296 159.5 296Z" fill="#CCCCCC"/>
<path d="M159.5 327C164.194 327 168 323.194 168 318.5C168 313.806 164.194 310 159.5 310C154.806 310 151 313.806 151 318.5C151 323.194 154.806 327 159.5 327Z" fill="#CCCCCC"/>
<path d="M159.5 359C164.194 359 168 354.971 168 350C168 345.029 164.194 341 159.5 341C154.806 341 151 345.029 151 350C151 354.971 154.806 359 159.5 359Z" fill="#CCCCCC"/>
<path d="M159.5 389C164.194 389 168 385.194 168 380.5C168 375.806 164.194 372 159.5 372C154.806 372 151 375.806 151 380.5C151 385.194 154.806 389 159.5 389Z" fill="#CCCCCC"/>
<path d="M298.5 452C303.194 452 307 448.194 307 443.5C307 438.806 303.194 435 298.5 435C293.806 435 290 438.806 290 443.5C290 448.194 293.806 452 298.5 452Z" fill="#CCCCCC"/>
<path d="M239.5 452C244.194 452 248 448.194 248 443.5C248 438.806 244.194 435 239.5 435C234.806 435 231 438.806 231 443.5C231 448.194 234.806 452 239.5 452Z" fill="#CCCCCC"/>
<path d="M422.5 452C427.194 452 431 448.194 431 443.5C431 438.806 427.194 435 422.5 435C417.806 435 414 438.806 414 443.5C414 448.194 417.806 452 422.5 452Z" fill="#CCCCCC"/>
<path d="M360 452C364.971 452 369 448.194 369 443.5C369 438.806 364.971 435 360 435C355.029 435 351 438.806 351 443.5C351 448.194 355.029 452 360 452Z" fill="#CCCCCC"/>
<path d="M473.081 320H200.919C200.676 320 200.442 319.895 200.269 319.707C200.097 319.52 200 319.265 200 319C200 318.735 200.097 318.48 200.269 318.293C200.442 318.105 200.676 318 200.919 318H473.081C473.324 318 473.558 318.105 473.731 318.293C473.903 318.48 474 318.735 474 319C474 319.265 473.903 319.52 473.731 319.707C473.558 319.895 473.324 320 473.081 320Z" fill="#CCCCCC"/>
<path d="M473.081 351H200.919C200.676 351 200.442 350.842 200.269 350.561C200.097 350.279 200 349.898 200 349.5C200 349.102 200.097 348.721 200.269 348.439C200.442 348.158 200.676 348 200.919 348H473.081C473.324 348 473.558 348.158 473.731 348.439C473.903 348.721 474 349.102 474 349.5C474 349.898 473.903 350.279 473.731 350.561C473.558 350.842 473.324 351 473.081 351Z" fill="#CCCCCC"/>
<path d="M473.081 382H200.919C200.676 382 200.442 381.895 200.269 381.707C200.097 381.52 200 381.265 200 381C200 380.735 200.097 380.48 200.269 380.293C200.442 380.105 200.676 380 200.919 380H473.081C473.324 380 473.558 380.105 473.731 380.293C473.903 380.48 474 380.735 474 381C474 381.265 473.903 381.52 473.731 381.707C473.558 381.895 473.324 382 473.081 382Z" fill="#CCCCCC"/>
<path d="M253.256 413H225.744C224.486 412.999 223.28 412.514 222.391 411.653C221.502 410.791 221.001 409.624 221 408.405V383.595C221.001 382.376 221.502 381.209 222.391 380.347C223.28 379.486 224.486 379.001 225.744 379H253.256C254.514 379.001 255.72 379.486 256.609 380.347C257.498 381.209 257.999 382.376 258 383.595V408.405C257.999 409.624 257.498 410.791 256.609 411.653C255.72 412.514 254.514 412.999 253.256 413V413Z" fill="white"/>
<path d="M312.513 413H286.487C285.298 412.999 284.157 412.508 283.316 411.637C282.475 410.766 282.001 409.584 282 408.352V351.648C282.001 350.416 282.475 349.234 283.316 348.363C284.157 347.492 285.298 347.001 286.487 347H312.513C313.702 347.001 314.843 347.492 315.684 348.363C316.525 349.234 316.999 350.416 317 351.648V408.352C316.999 409.584 316.525 410.766 315.684 411.637C314.843 412.508 313.702 412.999 312.513 413V413Z" fill="white"/>
<path d="M373.385 413H346.615C345.392 412.999 344.219 412.511 343.353 411.646C342.488 410.78 342.001 409.606 342 408.381V320.619C342.001 319.394 342.488 318.22 343.353 317.354C344.219 316.489 345.392 316.001 346.615 316H373.385C374.608 316.001 375.781 316.489 376.647 317.354C377.512 318.22 377.999 319.394 378 320.619V408.381C377.999 409.606 377.512 410.78 376.647 411.646C375.781 412.511 374.608 412.999 373.385 413V413Z" fill="white"/>
<path d="M435.513 413H409.487C408.298 412.999 407.157 412.513 406.316 411.651C405.475 410.788 405.001 409.619 405 408.399V290.601C405.001 289.381 405.475 288.212 406.316 287.349C407.157 286.487 408.298 286.001 409.487 286H435.513C436.702 286.001 437.843 286.487 438.684 287.349C439.525 288.212 439.999 289.381 440 290.601V408.399C439.999 409.619 439.525 410.788 438.684 411.651C437.843 412.513 436.702 412.999 435.513 413V413Z" fill="white"/>
<path d="M596.724 429C595.678 428.997 594.636 428.891 593.61 428.684H593.61C593.422 428.647 593.235 428.606 593.048 428.562L367.814 375.611C365.368 375.036 363.742 373.482 364.034 371.996C364.157 371.558 364.397 371.163 364.728 370.855C365.059 370.547 365.467 370.336 365.909 370.248C366.996 369.945 368.141 369.919 369.24 370.173L595.873 417.963C600.976 419.039 604.518 422.201 603.938 425.162C603.634 426.711 602.282 427.912 600.133 428.544C599.023 428.857 597.876 429.01 596.724 429Z" fill="#3F3D56"/>
<path d="M549.652 421.712C550.821 422.404 552.126 422.829 553.476 422.958C554.826 423.087 556.187 422.916 557.464 422.458C558.742 422 559.904 421.265 560.868 420.305C561.833 419.346 562.577 418.185 563.048 416.904L596 417.596L586.871 403L556.979 404.58C554.791 403.926 552.44 404.103 550.373 405.077C548.305 406.052 546.664 407.756 545.761 409.868C544.858 411.98 544.755 414.352 545.472 416.535C546.189 418.717 547.676 420.56 549.652 421.712V421.712Z" fill="#FFDFAE"/>
<path d="M564.169 415.906L564 405.771C563.988 404.725 564.361 403.712 565.045 402.932C565.73 402.152 566.676 401.661 567.699 401.555L626.075 395.821L674.712 379.591C676.181 379.101 677.73 378.913 679.27 379.037C680.81 379.162 682.31 379.598 683.683 380.318C685.057 381.038 686.275 382.029 687.269 383.233C688.263 384.437 689.011 385.83 689.471 387.331C689.931 388.832 690.094 390.411 689.949 391.977C689.804 393.542 689.354 395.063 688.627 396.45C687.899 397.837 686.908 399.063 685.711 400.057C684.514 401.051 683.134 401.792 681.653 402.239L627.818 418.462L568.363 419.999C567.465 420.021 566.584 419.742 565.856 419.205C565.129 418.667 564.595 417.901 564.337 417.025C564.231 416.661 564.175 416.285 564.169 415.906V415.906Z" fill="#424249"/>
<path d="M651.998 676L640.479 675.999L635 633L652 633.001L651.998 676Z" fill="#FFDFAE"/>
<path d="M682.998 676L672.835 675.999L668 633L683 633.001L682.998 676Z" fill="#FFDFAE"/>
<path d="M688 500.872L685.389 663.046C685.381 663.559 685.271 664.066 685.068 664.533C684.864 665 684.571 665.419 684.205 665.762C683.84 666.105 683.412 666.366 682.946 666.527C682.48 666.689 681.988 666.749 681.499 666.702L668.704 665.485C667.864 665.405 667.079 665.016 666.487 664.388C665.895 663.76 665.535 662.933 665.47 662.054L657.979 560.895C657.961 560.657 657.858 560.436 657.689 560.275C657.52 560.115 657.3 560.029 657.072 560.033C656.844 560.038 656.627 560.134 656.465 560.301C656.302 560.468 656.207 560.693 656.198 560.932L652.454 664.407C652.419 665.372 652.029 666.286 651.364 666.956C650.699 667.626 649.812 668 648.889 668H635.167C634.258 668 633.384 667.637 632.723 666.985C632.061 666.334 631.661 665.442 631.606 664.493L622 499.939L679.081 485L688 500.872Z" fill="#303030"/>
<path d="M649.5 356C661.926 356 672 344.583 672 330.5C672 316.417 661.926 305 649.5 305C637.074 305 627 316.417 627 330.5C627 344.583 637.074 356 649.5 356Z" fill="#FFDFAE"/>
<path d="M622.756 503.829C622.368 503.451 622.059 502.999 621.845 502.499C621.632 501.999 621.519 501.461 621.513 500.917L620.004 391.928C619.913 386.383 621.564 380.953 624.72 376.416C627.876 371.879 632.375 368.469 637.57 366.676C639.666 357.07 650.823 355.867 657.328 356.011C658.951 356.046 660.542 356.476 661.966 357.265C663.39 358.053 664.604 359.177 665.506 360.541L670.169 367.605L680.446 373.689C685.202 376.493 688.953 380.75 691.159 385.847C693.364 390.943 693.91 396.616 692.717 402.046L691.135 409.315C685.564 435.043 686.094 461.737 692.682 487.218L695.866 499.479C696.032 500.117 696.044 500.787 695.902 501.431C695.759 502.075 695.467 502.676 695.048 503.183C694.629 503.69 694.096 504.088 693.494 504.344C692.892 504.601 692.237 504.708 691.586 504.658L687.888 504.37C686.928 504.297 686.025 503.884 685.336 503.204C684.648 502.525 684.218 501.622 684.123 500.654L683.512 494.474C683.5 494.36 683.448 494.255 683.364 494.178C683.28 494.102 683.171 494.059 683.058 494.059C682.945 494.059 682.836 494.102 682.753 494.178C682.669 494.255 682.616 494.36 682.605 494.474L682.013 500.457C681.913 501.468 681.448 502.407 680.708 503.094C679.967 503.782 679.002 504.17 677.996 504.186L625.675 504.999C625.653 504.999 625.632 505 625.61 505C624.544 505.002 623.519 504.582 622.756 503.829V503.829Z" fill="#424249"/>
<path d="M650.915 340.806C651.006 344.019 653.202 345.877 655.897 347.56C658.592 349.242 661.742 349.972 664.829 350.676C665.244 350.899 665.708 351.011 666.177 350.999C666.646 350.987 667.105 350.853 667.508 350.609C667.911 350.365 668.246 350.019 668.479 349.606C668.713 349.192 668.837 348.724 668.841 348.247L671.672 337.308C672.673 333.814 673.402 330.245 673.851 326.634C674.533 319.686 672.912 312.212 668.139 307.189C663.366 302.165 655.088 300.381 649.368 304.251C642.58 295.443 611.552 314.904 619.206 321.028C620.567 322.118 622.649 320.739 624.377 320.606C626.105 320.472 628.042 320.781 629.14 322.144C630.574 323.924 629.95 326.576 630.541 328.797C630.785 329.578 631.18 330.303 631.701 330.929C632.223 331.554 632.861 332.069 633.579 332.443C634.297 332.817 635.081 333.043 635.886 333.108C636.691 333.172 637.5 333.075 638.267 332.82C639.696 332.105 641.04 331.227 642.274 330.203C643.6 329.306 645.275 328.643 646.767 329.209C648.734 329.955 649.433 332.401 649.611 334.527C649.911 336.646 650.346 338.744 650.915 340.806V340.806Z" fill="#323232"/>
<path opacity="0.2" d="M646.194 401L642.323 446.08L622 493L652 447L646.194 401Z" fill="black"/>
<path d="M617.75 509.903C618.775 509.051 619.608 507.978 620.188 506.758C620.769 505.538 621.084 504.202 621.111 502.843C621.138 501.483 620.877 500.134 620.345 498.891C619.813 497.647 619.024 496.539 618.034 495.645L630 465L613.72 468.399L604.852 496.98C603.51 498.8 602.86 501.066 603.025 503.348C603.191 505.631 604.16 507.772 605.75 509.365C607.34 510.957 609.439 511.892 611.651 511.991C613.863 512.09 616.033 511.347 617.75 509.903V509.903Z" fill="#FFDFAE"/>
<path d="M617.288 496.752L607.749 493.333C606.766 492.975 605.954 492.264 605.471 491.341C604.989 490.417 604.872 489.347 605.143 488.342L620.879 431.045L623.278 379.262C623.35 377.699 623.734 376.166 624.407 374.752C625.081 373.338 626.03 372.071 627.2 371.025C628.37 369.979 629.737 369.175 631.222 368.659C632.707 368.144 634.281 367.927 635.851 368.022C637.421 368.116 638.956 368.521 640.368 369.211C641.78 369.901 643.039 370.864 644.074 372.042C645.108 373.221 645.896 374.593 646.393 376.078C646.89 377.562 647.085 379.13 646.967 380.691L642.682 437.392L622.632 494.227C622.327 495.086 621.748 495.821 620.983 496.32C620.217 496.82 619.308 497.055 618.395 496.989C618.017 496.961 617.644 496.881 617.288 496.752Z" fill="#424249"/>
<path d="M473.081 413H200.919C200.676 413 200.442 412.895 200.269 412.707C200.097 412.52 200 412.265 200 412C200 411.735 200.097 411.48 200.269 411.293C200.442 411.105 200.676 411 200.919 411H473.081C473.324 411 473.558 411.105 473.731 411.293C473.903 411.48 474 411.735 474 412C474 412.265 473.903 412.52 473.731 412.707C473.558 412.895 473.324 413 473.081 413Z" fill="#3F3D56"/>
<path d="M651.999 686L620 685.999V685.59C620 683.936 620.322 682.299 620.948 680.772C621.574 679.244 622.491 677.856 623.648 676.687C624.805 675.518 626.178 674.591 627.689 673.958C629.2 673.326 630.819 673 632.455 673H632.456L652 673.001L651.999 686Z" fill="#303030"/>
<path d="M687.999 686L655 685.999V685.59C655 683.936 655.332 682.299 655.978 680.772C656.623 679.244 657.569 677.856 658.762 676.687C659.955 675.518 661.371 674.591 662.929 673.958C664.487 673.326 666.158 673 667.844 673H667.845L688 673.001L687.999 686Z" fill="#303030"/>
</svg>
