<svg width="820" height="820" viewBox="0 0 820 820" fill="none" xmlns="http://www.w3.org/2000/svg">
<circle cx="410" cy="410" r="410" fill="#C4C4C4" fill-opacity="0.6"/>
<path opacity="0.1" d="M743 632.921C743 637.69 726.206 642.159 696.899 646H142.575C117.912 646.051 93.6752 639.712 72.3283 627.628L72 627.446C80.4222 624.443 95.625 621.643 116.317 619.115L117.244 619.004C126.523 617.893 136.894 616.839 148.228 615.84C148.514 615.84 148.806 615.798 149.092 615.764C158.085 614.981 167.652 614.248 177.791 613.564C178.113 613.564 178.427 613.508 178.748 613.494C182.659 613.219 186.651 612.959 190.725 612.712L192.295 612.614C221.951 610.813 255.661 609.374 292.219 608.425H292.262C297.382 608.285 302.557 608.162 307.786 608.054C313.601 607.919 319.487 607.801 325.444 607.698C329.991 607.601 334.594 607.531 339.212 607.461H339.319C360.154 607.154 381.68 607 403.692 607C458.122 607 509.569 607.971 555.156 609.716H555.285C562.294 609.982 569.174 610.275 575.883 610.575L581.593 610.841C589.164 611.194 596.539 611.574 603.72 611.979C688.156 616.678 743 624.311 743 632.921Z" fill="#AFAFAF"/>
<g opacity="0.2">
<path opacity="0.2" d="M469.05 602.829C469.027 603.6 468.939 604.367 468.786 605.122C463.818 604.331 458.821 603.617 453.795 602.979C453.795 602.779 453.795 602.572 453.795 602.365C453.842 600.223 454.458 598.132 455.58 596.308C457.05 593.979 459.285 592.522 461.747 592.601C464.21 592.679 466.345 594.272 467.665 596.679C468.664 598.57 469.142 600.693 469.05 602.829V602.829Z" fill="#3F3D56"/>
<path opacity="0.2" d="M469.46 590.623C469.634 585.099 466.358 580.513 462.142 580.38C457.925 580.247 454.366 584.617 454.192 590.141C454.017 595.665 457.294 600.251 461.51 600.384C465.726 600.517 469.286 596.147 469.46 590.623Z" fill="#3F3D56"/>
<path opacity="0.2" d="M469.849 578.395C470.024 572.871 466.747 568.285 462.531 568.151C458.315 568.018 454.755 572.388 454.581 577.912C454.407 583.436 457.683 588.022 461.899 588.155C466.116 588.289 469.675 583.919 469.849 578.395Z" fill="#3F3D56"/>
<path opacity="0.2" d="M470.232 566.166C470.406 560.642 467.13 556.056 462.913 555.923C458.697 555.789 455.138 560.159 454.963 565.683C454.789 571.207 458.065 575.793 462.282 575.927C466.498 576.06 470.057 571.69 470.232 566.166Z" fill="#3F3D56"/>
<path opacity="0.2" d="M470.614 553.937C470.789 548.413 467.512 543.827 463.296 543.694C459.079 543.56 455.52 547.93 455.346 553.454C455.171 558.978 458.448 563.565 462.664 563.698C466.88 563.831 470.44 559.461 470.614 553.937Z" fill="#3F3D56"/>
<path opacity="0.2" d="M436.999 469.088C435.993 467.726 435.087 466.294 434.286 464.802L454.459 462.138L432.744 461.616C430.806 457.017 429.827 452.071 429.865 447.079C429.903 442.088 430.958 437.157 432.965 432.588L461.605 448.624L435.371 428.024C438.018 423.741 441.518 420.05 445.654 417.182C449.79 414.313 454.473 412.329 459.41 411.353C464.346 410.377 469.431 410.43 474.347 411.508C479.263 412.587 483.903 414.668 487.979 417.622C492.054 420.575 495.477 424.338 498.034 428.675C500.591 433.012 502.227 437.83 502.84 442.828C503.452 447.826 503.028 452.897 501.594 457.723C500.16 462.55 497.747 467.029 494.505 470.881C496.069 472.999 497.397 475.282 498.467 477.688L471.991 490.402L500.066 481.952C501.834 487.789 502.119 493.976 500.895 499.951C499.671 505.927 496.977 511.502 493.056 516.173C497.132 521.707 499.57 528.277 500.09 535.131C500.61 541.986 499.192 548.849 495.998 554.935C492.803 561.021 487.962 566.085 482.027 569.547C476.092 573.01 469.303 574.731 462.436 574.515C455.569 574.298 448.902 572.152 443.197 568.322C437.491 564.493 432.978 559.134 430.174 552.858C427.369 546.583 426.386 539.644 427.336 532.836C428.287 526.028 431.133 519.625 435.55 514.359C430.68 507.746 428.173 499.686 428.432 491.476C428.691 483.266 431.7 475.381 436.977 469.088H436.999Z" fill="#AFAFAF"/>
<path opacity="0.1" d="M501.622 493.788C501.372 502.003 498.354 509.892 493.056 516.173C497.132 521.707 499.57 528.277 500.09 535.131C500.61 541.986 499.192 548.849 495.998 554.935C492.803 561.021 487.962 566.085 482.027 569.547C476.092 573.01 469.303 574.731 462.436 574.515C455.569 574.298 448.902 572.152 443.197 568.322C437.491 564.493 432.978 559.134 430.174 552.858C427.369 546.583 426.386 539.644 427.336 532.836C428.287 526.028 431.133 519.625 435.55 514.359C430.86 507.98 501.751 489.68 501.622 493.788Z" fill="black"/>
</g>
<g opacity="0.2">
<path opacity="0.2" d="M360.547 602.829C360.524 603.6 360.436 604.367 360.283 605.122C355.314 604.331 350.318 603.617 345.292 602.979C345.292 602.779 345.292 602.572 345.292 602.365C345.339 600.223 345.955 598.132 347.077 596.308C348.547 593.979 350.782 592.522 353.244 592.601C355.707 592.679 357.841 594.272 359.162 596.679C360.161 598.57 360.639 600.693 360.547 602.829V602.829Z" fill="#3F3D56"/>
<path opacity="0.2" d="M360.949 590.626C361.124 585.102 357.847 580.516 353.631 580.383C349.414 580.25 345.855 584.62 345.681 590.144C345.506 595.668 348.783 600.254 352.999 600.387C357.215 600.52 360.775 596.15 360.949 590.626Z" fill="#3F3D56"/>
<path opacity="0.2" d="M361.339 578.398C361.513 572.874 358.236 568.287 354.02 568.154C349.804 568.021 346.245 572.391 346.07 577.915C345.896 583.439 349.172 588.025 353.388 588.158C357.605 588.292 361.164 583.922 361.339 578.398Z" fill="#3F3D56"/>
<path opacity="0.2" d="M361.721 566.169C361.895 560.645 358.619 556.059 354.403 555.925C350.186 555.792 346.627 560.162 346.452 565.686C346.278 571.21 349.555 575.796 353.771 575.93C357.987 576.063 361.546 571.693 361.721 566.169Z" fill="#3F3D56"/>
<path opacity="0.2" d="M362.103 553.94C362.278 548.416 359.001 543.83 354.785 543.697C350.569 543.563 347.009 547.933 346.835 553.457C346.66 558.981 349.937 563.567 354.153 563.701C358.369 563.834 361.929 559.464 362.103 553.94Z" fill="#3F3D56"/>
<path opacity="0.2" d="M328.496 469.088C327.49 467.726 326.584 466.294 325.783 464.802L345.956 462.138L324.241 461.616C322.303 457.017 321.323 452.071 321.362 447.079C321.4 442.088 322.455 437.157 324.462 432.588L353.102 448.624L326.868 428.024C329.514 423.741 333.015 420.05 337.151 417.182C341.287 414.313 345.97 412.329 350.907 411.353C355.843 410.377 360.928 410.43 365.844 411.508C370.759 412.587 375.4 414.668 379.476 417.622C383.551 420.575 386.974 424.338 389.531 428.675C392.088 433.012 393.724 437.83 394.336 442.828C394.949 447.826 394.525 452.897 393.091 457.723C391.657 462.55 389.244 467.029 386.002 470.881C387.566 472.999 388.894 475.282 389.964 477.688L363.488 490.402L391.563 481.952C393.331 487.789 393.616 493.976 392.392 499.951C391.168 505.927 388.474 511.502 384.553 516.173C388.629 521.707 391.067 528.277 391.587 535.131C392.107 541.986 390.689 548.849 387.495 554.935C384.3 561.021 379.459 566.085 373.524 569.547C367.589 573.01 360.8 574.731 353.933 574.515C347.066 574.298 340.399 572.152 334.694 568.322C328.988 564.493 324.475 559.134 321.671 552.858C318.866 546.583 317.882 539.644 318.833 532.836C319.784 526.028 322.63 519.625 327.047 514.359C322.177 507.746 319.67 499.686 319.929 491.476C320.188 483.266 323.197 475.381 328.474 469.088H328.496Z" fill="#AFAFAF"/>
<path opacity="0.1" d="M393.119 493.788C392.869 502.003 389.85 509.892 384.553 516.173C388.629 521.707 391.067 528.277 391.587 535.131C392.107 541.986 390.689 548.849 387.495 554.935C384.3 561.021 379.459 566.085 373.524 569.547C367.589 573.01 360.8 574.731 353.933 574.515C347.066 574.298 340.399 572.152 334.694 568.322C328.988 564.493 324.475 559.134 321.671 552.858C318.866 546.583 317.882 539.644 318.833 532.836C319.784 526.028 322.63 519.625 327.047 514.359C322.357 507.98 393.248 489.68 393.119 493.788Z" fill="black"/>
</g>
<g opacity="0.2">
<path opacity="0.2" d="M656.931 610.643C656.877 612.103 656.703 613.555 656.41 614.986C646.845 613.457 637.211 612.091 627.507 610.886C627.507 610.5 627.507 610.107 627.507 609.707C627.598 605.582 628.785 601.556 630.948 598.043C633.803 593.565 638.086 590.758 642.819 590.9C647.552 591.043 651.67 594.122 654.24 598.758C656.178 602.409 657.107 606.512 656.931 610.643V610.643Z" fill="#3F3D56"/>
<path opacity="0.2" d="M657.708 587.127C658.044 576.489 651.733 567.657 643.612 567.4C635.49 567.143 628.635 575.559 628.299 586.197C627.963 596.835 634.274 605.667 642.395 605.923C650.516 606.18 657.372 597.765 657.708 587.127Z" fill="#3F3D56"/>
<path opacity="0.2" d="M658.45 563.584C658.786 552.946 652.475 544.114 644.354 543.857C636.232 543.6 629.376 552.016 629.04 562.654C628.704 573.292 635.016 582.124 643.137 582.38C651.258 582.637 658.114 574.222 658.45 563.584Z" fill="#3F3D56"/>
<path opacity="0.2" d="M659.199 540.041C659.535 529.403 653.224 520.571 645.103 520.314C636.981 520.058 630.125 528.473 629.789 539.111C629.454 549.749 635.765 558.581 643.886 558.838C652.007 559.094 658.863 550.679 659.199 540.041Z" fill="#3F3D56"/>
<path opacity="0.2" d="M659.104 515.427C659.423 504.784 653.095 495.958 644.97 495.714C636.844 495.47 629.999 503.9 629.68 514.543C629.361 525.187 635.689 534.012 643.814 534.256C651.939 534.5 658.785 526.07 659.104 515.427Z" fill="#3F3D56"/>
<path opacity="0.2" d="M595.22 353.175C593.294 350.552 591.551 347.801 590.002 344.939L628.835 339.81L587.04 338.803C583.307 329.95 581.418 320.427 581.489 310.818C581.56 301.209 583.59 291.715 587.454 282.918L642.598 313.782L592.101 274.125C597.207 265.9 603.951 258.815 611.913 253.311C619.876 247.808 628.885 244.005 638.381 242.138C647.876 240.272 657.655 240.383 667.106 242.463C676.557 244.544 685.478 248.55 693.314 254.232C701.15 259.914 707.733 267.149 712.651 275.488C717.57 283.827 720.72 293.091 721.904 302.701C723.088 312.311 722.281 322.063 719.534 331.347C716.787 340.632 712.158 349.251 705.936 356.667C708.944 360.749 711.502 365.144 713.567 369.774L662.592 394.267L716.637 377.981C720.043 389.206 720.597 401.103 718.25 412.596C715.903 424.089 710.729 434.815 703.195 443.802C711.041 454.456 715.732 467.103 716.732 480.299C717.732 493.494 715.002 506.705 708.852 518.421C702.702 530.136 693.382 539.884 681.957 546.549C670.531 553.214 657.462 556.528 644.244 556.111C631.025 555.694 618.19 551.563 607.207 544.191C596.224 536.819 587.536 526.503 582.136 514.423C576.736 502.343 574.842 488.986 576.672 475.88C578.501 462.774 583.979 450.447 592.479 440.309C583.11 427.578 578.286 412.067 578.783 396.264C579.28 380.461 585.069 365.284 595.22 353.167V353.175Z" fill="#939191"/>
<path opacity="0.1" d="M653.49 415.538C653.022 431.344 713.389 431.709 703.224 443.816C711.069 454.47 715.76 467.117 716.761 480.313C717.761 493.508 715.03 506.719 708.881 518.435C702.731 530.151 693.411 539.898 681.985 546.563C670.56 553.229 657.491 556.542 644.272 556.125C631.053 555.708 618.219 551.577 607.236 544.205C596.253 536.833 587.565 526.518 582.165 514.437C576.765 502.357 574.871 489.001 576.7 475.894C578.529 462.788 584.007 450.461 592.508 440.324C583.414 428.031 653.74 407.631 653.49 415.538Z" fill="black"/>
</g>
<path d="M97 612L104.461 611.979H114.981L128.281 394.777L260 173.822L254.274 167.644V152L111.823 389.658L97 612Z" fill="#FFC267"/>
<path opacity="0.1" d="M104 612H113.802L127.211 394.962L260 174.173L254.228 168L117.258 391.654L104 612Z" fill="black"/>
<path d="M74 614.017L416.242 639.979L416.535 640L747.75 619.808L748 619.793V605.929L383.041 599.29L78.5575 599H76.3322L76.0898 600.555L74 614.017Z" fill="#FFC267"/>
<path opacity="0.1" d="M74 614.017L416.242 639.979L416.535 640L747.75 619.808L748 619.539V606.219H747.708L416.242 617.192L78.5575 599H78.5076L77.9085 599.389L76.0898 600.555L74 614.017Z" fill="black"/>
<path opacity="0.1" d="M74 613.776L417 640V616.983L77.9171 599L76.0944 600.178L74 613.776Z" fill="black"/>
<path d="M253 167.197L404.296 329.655L399.618 615.419L412.47 616.971L412.685 617H425.536L427.074 341.925L710.377 436.598L715.154 605.166L725.496 606.325L729 606.719L720.89 424.907L424.735 320.89L262.347 152H253V167.197Z" fill="#FFC267"/>
<path opacity="0.1" d="M426 337L427.163 342.265L709.911 437.058L714.679 605.839L725 607L716.906 433.548L426 337Z" fill="black"/>
<path opacity="0.1" d="M253 167.198L405.248 329.666L400.541 615.447L413.474 617L417 320.314L253 152V167.198Z" fill="black"/>
<path d="M427 451.336L530.814 471.559L530.85 471.566L712.676 507L721 503.699L720.971 503.119L720.428 491.633L427.107 433L427 451.336Z" fill="#FFC267"/>
<path opacity="0.1" d="M531 472L712.682 507L721 503.739L720.971 503.167L531 472Z" fill="black"/>
<path d="M538 379L540.798 533.656L542.244 613L554.982 612.571L563 612.299L560.508 381.238L554.982 379.393L553.772 379H538Z" fill="#FFC267"/>
<path opacity="0.1" d="M538 379V379.036L540.546 533.668L541.917 613L554 612.571V379H538Z" fill="black"/>
<path d="M337.088 418.079C337.839 418.497 338.556 418.974 339.234 419.506C340.035 420.224 340.754 421.032 341.379 421.914C344.447 425.976 347.278 430.696 346.978 435.819C346.984 436.564 346.847 437.303 346.573 437.994C346.3 438.685 345.895 439.313 345.383 439.844C344.118 440.949 342.301 441 340.642 441C338.84 441 336.945 441 335.386 440.049C333.827 439.097 332.526 437.246 330.681 437.29C330.42 437.334 330.155 437.334 329.894 437.29C329.258 437.077 329.129 436.221 328.714 435.68C327.999 434.706 326.49 434.948 325.368 435.372C324.245 435.797 323.001 436.433 321.892 435.943C321.249 435.596 320.723 435.057 320.383 434.399C317.73 430.008 317.165 424.731 316.665 419.631C316.357 416.528 314.012 405.945 320.484 408.353C323.344 409.407 326.018 411.515 328.621 413.059L337.088 418.079Z" fill="#303030"/>
<path d="M331.257 419.794C331.809 420.199 332.478 420.404 333.157 420.377C333.837 420.349 334.488 420.09 335.006 419.641C336.023 418.704 336.671 417.421 336.83 416.032C337.512 415.816 337.861 416.729 338.298 417.286C339.063 418.234 340.62 418.22 341.316 419.23C341.801 419.927 341.692 420.895 342.033 421.682C342.477 422.699 343.577 423.229 344.328 424.051C345.037 424.949 345.55 425.992 345.83 427.109L346.95 430.537C347.486 431.962 347.831 433.455 347.975 434.974C348.045 435.734 347.967 436.5 347.744 437.229C347.522 437.957 347.159 438.633 346.677 439.217C345.175 440.868 342.709 441.042 340.531 440.993C339.803 441.009 339.077 440.922 338.373 440.735C336.44 440.122 335.204 438.137 334.692 436.138C334.18 434.138 334.234 432.041 333.934 429.993C333.609 427.981 333.036 426.02 332.227 424.155C331.626 422.706 329.973 420.547 330 419.007C330.492 419.007 330.847 419.467 331.257 419.794Z" fill="#303030"/>
<path d="M334.363 412.263C334.007 411.243 333.8 410.182 333.747 409.109C333.747 406.953 334.788 404.926 335.836 403L327.153 404.114C326.105 404.25 324.935 404.452 324.343 405.278C324.118 405.688 324 406.142 324 406.604C324 407.066 324.118 407.52 324.343 407.93C324.778 408.75 325.124 409.609 325.376 410.496C325.395 411.271 325.489 412.043 325.657 412.802C325.927 413.36 326.306 413.865 326.773 414.29C329.258 416.891 331.119 419.96 332.972 423C332.919 422.914 338.206 419.04 337.994 417.775C337.872 417.057 336.345 416.194 335.859 415.504C335.188 414.503 334.683 413.41 334.363 412.263V412.263Z" fill="#DABC8F"/>
<path d="M404 385V391.97L283.759 415.25L277.522 419H256V415.073L374.138 386.741L404 385Z" fill="#FFC267"/>
<path opacity="0.1" d="M404 391L283.759 415.115L277.522 419H256L375.015 392.81L404 391Z" fill="black"/>
<path d="M307.486 584.227C306.183 582.68 304.383 581.611 302.381 581.194C300.378 580.777 298.29 581.036 296.457 581.93C296.065 582.111 295.718 582.376 295.444 582.705C294.75 583.656 295.194 584.968 295.257 586.144C295.416 589.013 293.086 591.344 290.991 593.349C289.867 594.423 288.722 595.572 288.216 597.033C287.71 598.495 288.084 600.35 289.444 601.112C290.037 601.403 290.683 601.579 291.344 601.628C293.562 602.052 295.835 602.114 298.073 601.812C300.286 601.397 302.457 600.167 303.415 598.168C303.599 597.627 303.905 597.132 304.309 596.721C305.53 595.776 307.403 596.884 308.791 596.211C309.935 595.653 309.984 594.777 309.998 593.621C310.039 590.426 309.554 586.81 307.486 584.227Z" fill="#AFAFAF"/>
<path d="M324.827 584.39C325.726 586.665 325.85 589.144 325.967 591.574C326.033 592.979 326.077 594.482 325.287 595.669C324.498 596.856 322.955 597.481 321.479 597.776C318.43 598.38 314.899 597.811 312.932 595.486C311.426 593.709 311.112 591.273 311.39 588.969C311.624 587.08 312.121 584.867 310.71 583.526C310.344 583.168 309.869 582.915 309.533 582.529C308.802 581.672 308.919 580.38 309.313 579.326C309.828 578.319 310.213 577.255 310.461 576.159C310.52 575.639 320.36 576.524 321.267 576.953C322.502 577.535 322.312 578.512 322.685 579.691C323.204 581.335 324.198 582.817 324.827 584.39Z" fill="#AFAFAF"/>
<path d="M325.723 482.181C327.582 483.387 328.301 485.757 328.59 487.958C329.386 493.989 327.991 500.084 327.885 506.172C327.787 514.701 330.252 523.384 328.146 531.645C326.885 536.583 327.956 542.226 326.772 547.214C326.42 548.695 325.772 550.092 325.434 551.573C324.729 554.783 325.469 558.141 326.462 561.28C326.78 562.126 326.981 563.011 327.061 563.911C327.013 565.296 326.662 566.655 326.033 567.889L321.806 577.899C321.334 579.021 319.474 579.204 318.284 579.353C316.044 579.621 313.543 579.811 311.761 578.421C309.978 577.032 309.549 574.704 309.274 572.531C308.747 568.36 308.511 564.157 308.569 559.953C308.647 558.856 308.549 557.754 308.281 556.687C307.893 555.481 307.041 554.437 306.808 553.16C306.512 551.51 307.351 549.887 307.661 548.222C307.873 546.702 307.849 545.157 307.59 543.644C307.315 541.387 306.998 539.129 306.639 536.886C306.132 533.747 306.858 530.65 307.344 527.504C307.801 524.548 307.217 521.536 306.639 518.602C306.689 520.983 306.392 523.36 305.759 525.656C305.385 526.777 304.85 527.85 304.526 528.992C303.082 534.121 306.16 539.503 305.723 544.815C305.519 547.298 304.547 549.753 304.822 552.201C305.012 553.993 305.843 555.636 306.414 557.343C306.984 559.051 307.28 561.005 306.414 562.599C304.124 566.93 305.836 572.82 307.886 577.265C308.302 578.053 308.665 578.868 308.971 579.705C309.577 581.709 309.07 583.86 309.232 585.948C308.642 586.045 308.037 586.006 307.465 585.833C306.892 585.661 306.367 585.36 305.928 584.954C305.618 584.629 305.364 584.248 305.061 583.91C304.215 583.102 303.213 582.475 302.117 582.068C301.473 581.708 300.74 581.539 300.003 581.582C299.229 581.798 298.533 582.231 297.996 582.83C297.299 583.444 296.56 584.007 295.784 584.516C295.453 584.771 295.067 584.942 294.656 585.017C294.45 585.049 294.239 585.015 294.053 584.92C293.867 584.825 293.716 584.674 293.621 584.488C293.577 584.37 293.551 584.247 293.543 584.121C293.282 581.991 293.143 579.848 293.128 577.702C293.128 574.013 288.718 571.473 288.161 567.826C287.718 564.884 288.542 561.886 288.267 558.924C288.133 557.4 287.711 555.904 287.739 554.381C287.739 553.393 287.964 552.427 288.042 551.446C288.106 550.358 288.09 549.266 287.992 548.18L287.774 544.773C287.563 541.408 287.33 537.972 286.006 534.897C284.435 531.305 283.505 527.466 283.258 523.554C283.118 521.085 283.209 518.616 282.927 516.14C282.674 513.903 282.11 511.681 282.272 509.438C282.406 507.703 282.977 506.024 283.11 504.288C283.385 500.952 282.117 497.707 281.124 494.511C280.131 491.316 279.398 487.775 280.701 484.692C280.887 484.186 281.198 483.735 281.603 483.38C282.103 483.049 282.671 482.836 283.265 482.759C295.352 480.217 307.741 479.425 320.052 480.41C322.059 480.524 324.007 481.132 325.723 482.181Z" fill="#303030"/>
<path d="M285.5 405C291.851 405 297 399.851 297 393.5C297 387.149 291.851 382 285.5 382C279.149 382 274 387.149 274 393.5C274 399.851 279.149 405 285.5 405Z" fill="#DABC8F"/>
<path d="M283.298 408.503C283.459 409.174 283.459 409.876 283.298 410.547C283.123 411.016 282.876 411.452 282.568 411.837C281.489 413.302 280.296 414.67 279 415.925C279.66 417.479 280.849 418.715 282.332 419.391C283.804 420.051 285.348 420.516 286.929 420.776C287.718 420.994 288.539 421.054 289.349 420.951C290.096 420.754 290.803 420.416 291.436 419.955L297.626 416.05C298.56 415.517 299.425 414.859 300.2 414.093C301.335 412.864 301.978 411.222 301.994 409.507C302.023 409.2 301.944 408.892 301.772 408.642C301.534 408.425 301.237 408.294 300.923 408.269C298.746 407.763 297.028 405.902 296.054 403.792C295.174 401.629 294.604 399.34 294.364 397L287.764 400.663C286.783 401.213 285.809 401.762 284.794 402.239C284.147 402.546 282.839 402.803 282.38 403.426C281.504 404.576 283.069 407.118 283.298 408.503Z" fill="#DABC8F"/>
<path d="M279.365 413.314C278.405 414.108 277.655 415.13 277.184 416.288C276.743 417.721 277.184 419.233 277.581 420.652C279.446 426.7 280.871 432.877 281.845 439.134C282.442 443.434 282.662 447.798 282.953 452.148C283.55 461.019 284.417 475.165 285.576 483.98C289.839 484.173 293.996 482.919 298.224 482.461C306.126 481.615 314.262 483.55 322 481.744C320.124 474.27 318.248 461.507 316.372 454.04C315.542 451.098 314.967 448.088 314.653 445.046C314.489 442.86 314.589 440.668 314.617 438.467C314.681 434.168 314.447 429.868 314.212 425.568C313.942 420.552 313.672 415.536 312.492 410.627C312.41 410.001 312.12 409.423 311.668 408.986C310.958 408.463 310.034 408.649 309.188 408.764C306.599 409.095 303.979 408.469 301.812 407.001C300.874 406.356 299.617 405.568 298.743 406.284C298.37 406.716 298.124 407.245 298.032 407.811C297.645 408.824 297.048 409.743 296.281 410.506C295.514 411.268 294.595 411.857 293.584 412.232C291.559 412.972 289.438 413.411 287.288 413.536C286.63 413.679 285.944 413.601 285.334 413.314C284.325 412.691 284.254 410.448 282.982 410.297C281.866 410.168 280.118 412.59 279.365 413.314Z" fill="#303030"/>
<path d="M295.83 431.05C293.204 428.551 292.052 424.925 290.138 421.845C288.835 419.773 287.169 417.951 285.221 416.463C284.242 415.819 283.344 415.061 282.546 414.204C281.87 413.376 281.358 412.271 280.333 411.952C279.91 411.861 279.47 411.873 279.053 411.987C278.635 412.102 278.252 412.316 277.935 412.611C277.308 413.206 276.714 413.835 276.157 414.494C273.14 417.603 267.839 418.035 265.448 421.632C264.803 422.395 264.365 423.309 264.175 424.288C263.486 429.523 264.847 434.822 267.974 439.088C268.58 440.076 269.51 440.827 270.607 441.212C270.458 442.532 270.634 443.869 271.119 445.107C272.437 449.588 274.055 453.977 275.965 458.242C275.508 459.911 275.189 461.614 275.011 463.334C274.513 467.66 274.976 472.051 274.506 476.384C274.122 479.925 273.083 483.374 273.047 486.921C273.047 487.488 273.097 488.16 273.588 488.451C273.849 488.584 274.142 488.645 274.435 488.628L283.186 488.89C288.267 489.039 293.397 489.187 298.398 488.253C299.065 488.154 299.711 487.951 300.312 487.651C302.006 486.709 302.568 484.584 302.838 482.694C303.191 480.241 303.332 477.763 303.258 475.287C304.318 478.622 305.578 482.071 308.779 483.515C310.473 484.28 312.408 484.223 314.265 484.174C318.268 483.996 322.257 483.587 326.211 482.949C326.455 482.979 326.703 482.952 326.934 482.87C327.165 482.787 327.374 482.652 327.543 482.475C327.713 482.299 327.838 482.085 327.91 481.851C327.981 481.617 327.996 481.37 327.955 481.129L327.997 477.262C328.083 469.409 326.126 461.903 325.365 454.086C325.123 451.621 325.144 449.129 324.539 446.714C324.29 445.701 323.927 444.71 323.707 443.69C323.517 442.692 323.398 441.682 323.351 440.667L322.796 432.877C322.533 429.273 322.156 425.796 321.878 422.199C321.726 418.696 321.216 415.218 320.356 411.818C319.737 409.693 318.449 407.286 316.222 407.024C315.034 406.889 313.881 407.406 312.75 407.767C309.969 408.638 306.985 408.626 304.211 407.732C303.355 407.395 302.462 407.158 301.55 407.024C301.092 406.962 300.625 407.022 300.197 407.199C299.769 407.375 299.397 407.662 299.117 408.029C298.841 408.583 298.711 409.197 298.74 409.814C298.406 416.888 297.787 424.174 295.83 431.05Z" fill="#AFAFAF"/>
<path d="M284.446 431.506C281.05 428.033 277.566 424.495 273.19 422.287C271.466 421.415 269.506 420.757 267.598 421.086C265.69 421.415 263.915 423.023 264.003 424.903C264.062 426.067 264.791 427.097 265.02 428.24C265.285 429.527 264.902 430.899 265.314 432.142C265.65 432.962 266.151 433.708 266.788 434.336L272.004 440.333C274.214 442.834 276.424 445.371 279.267 447.101C282.111 448.83 285.794 449.638 288.918 448.408C291.14 447.406 292.988 445.761 294.207 443.699C295.504 441.698 296.418 439.511 297.633 437.445C299.525 434.145 302.021 431.207 305 428.776C303.468 428.39 301.545 427.847 300.58 426.632C300.305 426.246 300.071 425.834 299.88 425.403L298.687 422.901C298.281 422.881 297.875 422.942 297.494 423.081C297.114 423.22 296.768 423.434 296.476 423.709C295.965 424.283 295.416 424.825 294.834 425.331C293.795 426.089 292.388 426.296 291.445 427.161C291.08 427.532 290.75 427.934 290.458 428.362C289.745 429.271 288.839 430.022 287.802 430.564C286.766 431.107 285.621 431.428 284.446 431.506V431.506Z" fill="#303030"/>
<path d="M304.587 415.755C307.06 411.356 306.946 406.082 307.652 401.113C307.728 399.797 308.202 398.533 309.013 397.479C310.439 395.908 312.955 395.887 315.107 396.089C315.742 396.158 316.533 396.45 316.497 397.069C316.447 397.29 316.336 397.494 316.177 397.659C314.09 400.285 312.863 403.462 312.655 406.777C313.774 407.534 315.507 405.977 316.583 406.777C317.296 407.36 316.968 408.514 316.54 409.348C315.547 411.28 314.523 413.198 313.468 415.102C312.626 416.78 311.528 418.324 310.211 419.681C309.305 420.529 308.243 421.196 307.324 422.03C305.185 423.983 303.895 426.742 301.686 428.646C301.499 428.843 301.246 428.968 300.973 429C300.692 428.98 300.427 428.865 300.224 428.673C299.121 427.798 298.205 426.719 297.53 425.498C296.689 423.983 296.817 423.538 298.143 422.468C300.624 420.557 303.04 418.507 304.587 415.755Z" fill="#DABC8F"/>
<path d="M280.027 427.621C280.444 427.86 280.958 428.13 281.416 427.93C281.603 427.825 281.762 427.682 281.881 427.511C282.676 426.528 283.338 425.459 283.854 424.327C283.943 424.167 283.993 423.991 284 423.811C284 423.399 283.604 423.096 283.236 422.857C281.263 421.69 279.142 420.755 276.922 420.072C275.088 419.428 273.171 418.867 271.226 419.028C270.495 419.073 269.782 419.256 269.129 419.564C268.476 419.872 267.897 420.299 267.426 420.82C266.037 422.477 268.364 422.98 269.823 423.579C273.199 425.004 276.852 425.829 280.027 427.621Z" fill="#AFAFAF"/>
<path opacity="0.1" d="M278.009 440.146C277.989 440.301 278.001 440.459 278.045 440.607C278.088 440.755 278.162 440.89 278.26 441C278.433 440.038 278.206 439.022 278.385 438.053C278.647 436.597 279.893 435.499 280 434.036C277.717 433.528 278.027 438.575 278.009 440.146Z" fill="black"/>
<path opacity="0.2" d="M404 385V391.396L374.881 393L374 386.597L404 385Z" fill="black"/>
<path d="M275.49 395.664C277.304 394.206 276.254 391.149 277.483 389.191C278.197 388.121 279.404 387.557 280.59 387.078C282.021 386.418 283.554 385.999 285.126 385.839C285.913 385.764 286.707 385.865 287.449 386.135C288.191 386.404 288.861 386.835 289.411 387.395C289.876 387.916 290.19 388.55 290.626 389.093C291.165 389.725 291.868 390.202 292.661 390.472C293.453 390.743 294.305 390.796 295.126 390.628C296.076 390.417 297.061 389.705 296.997 388.747C296.89 388.165 296.588 387.634 296.14 387.24L294.097 385.008C291.776 382.472 289.197 379.782 285.79 379.148C283.419 378.704 280.99 379.331 278.704 380.084C277.783 380.387 276.747 380.838 276.49 381.761C276.319 382.395 276.576 383.085 276.426 383.726C276.133 385.001 274.476 385.43 273.704 386.501C272.933 387.571 273.169 388.839 272.947 390.022C272.726 391.205 272.083 392.36 272.004 393.586C271.954 394.325 272.333 395.699 273.176 395.967C274.019 396.234 274.969 394.783 275.49 395.664Z" fill="#303030"/>
<path d="M296 387.477C295.42 384.386 294.169 381.468 292.339 378.935C290.712 376.569 288.449 374.735 285.823 373.653C284.51 373.13 283.098 372.916 281.693 373.029C280.287 373.143 278.926 373.579 277.709 374.307C275.904 375.622 274.499 377.431 273.656 379.525C271.874 383.445 271.213 388.235 273.285 392C274.11 390.974 275.528 391.438 276.78 391.066C278.349 390.609 279.678 389.542 281.171 388.874C285.678 386.844 291.183 388.488 296 387.477Z" fill="#FED253"/>
<path opacity="0.1" d="M274.14 387.871C274.025 386.583 273.95 385.088 274.59 384.172C274.622 384.116 274.662 384.071 274.708 384.041C274.754 384.012 274.805 383.998 274.855 384C274.9 384.021 274.941 384.055 274.976 384.099C275.011 384.143 275.04 384.197 275.06 384.258C275.429 385.092 275.744 385.974 276 386.891C275.627 386.768 275.238 386.808 274.881 387.006C274.524 387.204 274.217 387.55 274 388" fill="black"/>
<path opacity="0.1" d="M290.29 384.585L290.068 381.292C290.032 381.021 290.047 380.74 290.111 380.48C290.204 380.263 290.347 380.105 290.513 380.037C290.679 379.969 290.856 379.995 291.01 380.111C291.313 380.363 291.563 380.737 291.731 381.191C292.244 382.369 292.669 383.628 293 384.945C292.008 384.658 290.987 384.677 290 385" fill="black"/>
<path opacity="0.1" d="M297 487V492.68L292.048 493H266V487H297Z" fill="black"/>
<path d="M297 486.864V493H266.097L184 390.826V386H201.21L297 486.864Z" fill="#F1C0C0"/>
<path d="M297 486.864V493H266.097L184 390.826V386H201.21L297 486.864Z" fill="#FFC267"/>
<path opacity="0.1" d="M297 486.864V493H266.097L184 390.826V386L266.541 486.864H297Z" fill="black"/>
<path d="M194.585 589.929C194.64 590.225 194.633 590.528 194.566 590.821C194.499 591.114 194.374 591.39 194.197 591.631C194.02 591.872 193.796 592.074 193.539 592.224C193.282 592.373 192.997 592.468 192.703 592.501C190.705 593.185 188.585 593.863 187.169 595.414C185.754 596.966 185.473 599.843 187.169 601.103C188.036 601.633 189.031 601.908 190.044 601.897C193.299 602.123 196.691 602.08 199.644 600.681C201.757 599.69 203.748 598 206.069 598.153C207.269 598.226 208.548 598.794 209.619 598.241C210.69 597.687 210.992 596.143 210.999 594.853C211.026 592.162 210.626 589.483 209.813 586.921C209.705 586.571 205.135 586.302 204.589 586.192L199.048 585.464C197.999 585.326 195.735 584.524 194.909 585.413C194.082 586.302 194.585 588.873 194.585 589.929Z" fill="#AFAFAF"/>
<path d="M228.191 572.175C228.424 573.409 228.802 574.613 229.318 575.765C230.081 577.629 231.058 579.609 232.927 580.513C234.625 581.329 236.708 581.034 238.435 580.26C239.155 579.973 239.786 579.513 240.268 578.924C240.825 577.991 241.073 576.919 240.981 575.847C240.981 573.196 240.817 570.455 239.554 568.098C238.47 566.042 236.58 564.275 236.551 562L230.053 563.206C229.705 563.238 229.373 563.364 229.097 563.569C228.891 563.777 228.748 564.035 228.683 564.316C227.989 566.88 227.822 569.549 228.191 572.175V572.175Z" fill="#AFAFAF"/>
<path d="M150.119 504.191C149.854 506.568 149.966 509.115 151.14 511.167C152.314 513.219 154.789 514.577 156.927 513.758C157.037 513.728 157.14 513.676 157.23 513.603C157.32 513.531 157.395 513.441 157.452 513.337C157.509 513.088 157.476 512.825 157.361 512.599C156.417 509.938 156.494 506.992 157.578 504.39C157.717 504.051 158.018 503.652 158.346 503.785C158.484 503.859 158.594 503.978 158.661 504.125C158.999 504.743 159.169 505.448 159.15 506.162C159.052 506.809 159.033 507.466 159.094 508.118C159.227 508.753 159.87 509.351 160.429 509.078C160.591 508.973 160.731 508.834 160.84 508.671C160.95 508.507 161.026 508.322 161.065 508.126C162.624 503.364 161.918 498.16 161.205 493.178C161.211 493.063 161.193 492.949 161.153 492.842C161.112 492.736 161.05 492.641 160.971 492.562C160.892 492.484 160.797 492.425 160.694 492.39C160.59 492.355 160.481 492.344 160.373 492.358C157.074 492.011 155.271 491.177 153.384 494.418C151.762 497.149 150.119 500.906 150.119 504.191Z" fill="#AFAFAF"/>
<path d="M189.101 492.07C188.087 496.267 187.065 500.513 187 504.825C187.018 507.51 187.221 510.192 187.609 512.849L188.369 519.093C188.63 521.199 188.884 523.297 189.253 525.38C189.489 526.454 189.618 527.548 189.637 528.646C189.566 529.729 189.394 530.804 189.123 531.855C188.667 534.063 188.413 536.307 188.362 538.56C188.283 542.165 188.732 545.77 189.014 549.375C189.578 556.559 189.494 563.778 188.761 570.947C188.468 572.882 188.89 574.857 189.949 576.506C190.379 577.026 190.732 577.604 191 578.222C191.543 579.873 190.275 581.524 189.949 583.218C189.74 584.54 190.067 585.889 190.858 586.971C191.649 588.052 192.839 588.777 194.166 588.986C199.963 589.671 205.919 589.361 211.143 592C211.694 590.399 210.491 588.582 211.041 586.953C211.389 585.944 212.346 585.288 212.998 584.437C213.874 583.141 214.311 581.599 214.244 580.039C214.27 578.002 213.906 575.978 213.172 574.076C212.556 572.49 211.672 570.925 211.723 569.224C211.723 568.387 212.02 567.508 211.679 566.736C211.446 566.293 211.128 565.899 210.744 565.576C208.579 563.215 207.248 560.215 206.955 557.032C206.672 553.873 206.774 550.692 207.259 547.558C207.614 544.573 208.092 541.422 209.998 539.094C209.114 532.032 209.634 524.867 211.527 518.005C211.715 517.37 212.012 516.635 212.665 516.483C212.924 516.457 213.185 516.493 213.427 516.588C213.669 516.684 213.885 516.835 214.056 517.031C215.193 518.091 215.737 519.627 216.229 521.098C216.773 522.691 217.324 524.392 216.911 526.022C216.737 526.743 216.389 527.377 216.186 528.07C215.745 529.461 215.822 530.963 216.403 532.302C216.687 532.791 216.864 533.334 216.925 533.895C216.858 534.377 216.711 534.845 216.49 535.28C216.222 536.133 216.136 537.033 216.24 537.921C216.343 538.809 216.634 539.665 217.092 540.435C218.015 541.966 219.155 543.357 220.475 544.566C219.844 547.333 220.008 550.221 220.946 552.901C221.014 553.021 221.057 553.154 221.074 553.291C221.09 553.429 221.079 553.568 221.041 553.701C220.91 553.975 220.577 554.076 220.316 554.27C219.591 554.862 220.041 555.979 220.526 556.751C221.857 558.868 223.326 560.896 224.924 562.821C226.373 564.545 226.243 567.868 228.402 568.488C229.31 568.683 230.248 568.683 231.156 568.488C233.286 568.164 235.663 567.551 236.706 565.677C237.133 564.905 237.307 563.968 237.974 563.391C238.641 562.814 239.503 562.713 239.872 562.021C240.242 561.329 239.829 560.421 239.952 559.62C240.075 558.82 240.778 558.178 241.003 557.335C241.539 555.388 239.256 553.787 238.945 551.797C238.496 548.913 242.148 546.75 241.995 543.867C241.677 537.601 241.474 531.307 241.148 525.041C240.738 519.429 240.68 513.797 240.974 508.177C241.227 504.681 241.698 501.018 240.409 497.766C238.554 493.181 233.438 490.607 228.489 490.117C223.54 489.626 218.606 490.794 213.701 491.558C205.559 492.807 197.288 492.979 189.101 492.07V492.07Z" fill="#303030"/>
<path d="M204 424C210.075 424 215 419.075 215 413C215 406.925 210.075 402 204 402C197.925 402 193 406.925 193 413C193 419.075 197.925 424 204 424Z" fill="#FFDFAE"/>
<path d="M199.527 426.191C199.158 427.095 198.536 427.86 197.744 428.386C196.952 428.912 196.027 429.174 195.091 429.137C194.697 430.85 195.642 432.576 196.722 433.924C198.965 436.665 201.863 438.728 205.118 439.901C208.373 441.073 211.867 441.313 215.24 440.595C216.552 440.348 217.797 439.803 218.888 438.997C220.358 437.708 221.345 435.913 221.673 433.932C221.986 431.964 222.075 429.964 221.938 427.975C221.976 427.582 221.869 427.188 221.639 426.876C221.367 426.655 221.031 426.539 220.688 426.548C218.392 426.334 215.994 426.241 213.976 425.057C211.959 423.873 210.525 421.197 211.497 419C211.341 419.342 207.373 419.507 206.85 419.578C205.213 419.82 203.576 420.092 201.946 420.405C201.162 420.451 200.388 420.604 199.643 420.862C198.658 421.397 199.025 421.133 199.255 422.103C199.602 423.587 200.111 424.65 199.527 426.191Z" fill="#FFDFAE"/>
<path d="M207.99 433.332C206.452 433.35 204.917 433.179 203.42 432.825C201.908 432.471 200.576 431.58 199.67 430.316C199.142 429.516 198.8 428.509 197.959 428.058C196.583 427.344 195.014 428.551 193.916 429.659C192.917 430.751 191.758 431.686 190.48 432.432C188.954 433.239 187.172 433.525 185.732 434.475C184.606 435.327 183.641 436.372 182.88 437.562L172.777 451.353C168.721 456.899 165.191 462.851 161.577 468.703C158.447 473.77 156.807 479.601 154.447 485.067C154.26 485.402 154.183 485.786 154.226 486.167C154.312 486.539 154.761 486.839 155.075 486.625C154.012 487.682 154.946 489.483 154.697 490.969C154.413 492.009 153.822 492.939 153 493.635C154.569 493.43 156.162 493.505 157.705 493.856C159.3 494.309 160.805 495.035 162.154 496C163.017 495.864 162.939 494.328 163.58 493.756C163.965 493.42 164.536 493.463 165.042 493.363C166.945 492.992 167.701 490.698 169.163 489.405C170.382 488.325 172.107 487.975 173.398 486.961C175.494 485.31 175.943 482.373 177.041 479.936C177.975 477.871 179.443 476.071 180.263 473.955C180.798 472.583 181.055 471.097 181.817 469.832C183.037 467.789 185.332 466.702 187.521 465.724C188.904 465.102 190.373 464.459 191.863 464.559C191.785 467.882 191.364 471.154 192.084 474.398C192.334 475.542 192.683 476.657 192.982 477.793C194.344 482.909 194.665 488.24 194.729 493.513C198.005 492.762 201.35 492.36 204.71 492.313C207.355 492.234 209.993 492.577 212.638 492.527C215.775 492.47 218.877 491.863 222.014 491.648C225.151 491.434 228.43 491.648 231.204 493.077C230.978 488.549 231.105 484.009 231.581 479.5L232.337 472.398C232.508 470.334 232.825 468.285 233.285 466.267C233.699 464.637 234.298 463.065 234.754 461.443C236.358 455.727 236.066 449.624 235.759 443.672C235.603 440.613 234.426 437.605 233.043 434.883C232.542 433.871 231.971 432.897 231.332 431.967C229.661 429.659 227.433 427.813 224.857 426.601C222.282 425.389 219.442 424.85 216.602 425.036C216.24 425.047 215.882 425.124 215.547 425.264C214.945 425.651 214.475 426.211 214.2 426.872C212.725 429.529 210.584 431.756 207.99 433.332Z" fill="#303030"/>
<path d="M193.606 416.955C193.937 416.267 194.827 416.012 195.371 415.462C196.416 414.416 195.945 412.744 196.107 411.333C196.372 409.269 198.203 407.542 200.299 406.806C202.436 406.164 204.711 406.029 206.918 406.414C207.98 406.486 209.006 406.805 209.903 407.342C210.286 407.604 210.639 407.941 210.999 408.182C211.656 408.553 212.442 408.67 213.19 408.507C213.937 408.343 214.587 407.913 215 407.308C212.397 404.377 209.514 401.281 205.557 400.379C204.2 400.12 202.817 399.998 201.431 400.015C199.6 399.98 197.71 399.953 196.019 400.606C193.717 401.494 192.099 403.537 191.268 405.739C190.541 407.971 190.152 410.287 190.113 412.62C189.962 414.176 189.962 415.742 190.113 417.299C190.397 419.424 191.241 421.45 192.569 423.195C192.749 423.466 193.003 423.687 193.305 423.835C196.658 425.211 193.334 417.526 193.606 416.955Z" fill="#303030"/>
<path d="M214 404.84C213.611 401.557 211.238 398.846 208.716 396.665C206.683 394.774 204.262 393.336 201.617 392.449C198.953 391.676 195.888 391.843 193.606 393.411C191.769 394.672 190.604 396.679 189.707 398.7C188.528 401.085 187.944 403.713 188.004 406.366C188.181 409 189.481 411.669 191.798 413C192.631 411.787 194.079 411.16 195.471 410.665C201.536 408.395 207.722 406.45 214 404.84V404.84Z" fill="#FED253"/>
<path opacity="0.1" d="M192.125 404C192.456 404 192.673 404.205 192.838 404.373C193.681 405.16 194.404 405.991 195 406.855C193.79 407.01 191.711 407.184 191.111 406.545C190.791 406.222 191.173 403.969 192.125 404Z" fill="black"/>
<path opacity="0.1" d="M209.351 401.951C209.189 402.135 209.001 401.759 209.001 401.487V398.382C208.996 398.296 209.013 398.21 209.048 398.134C209.076 398.096 209.11 398.066 209.148 398.044C209.186 398.022 209.228 398.009 209.27 398.006C209.816 397.934 210.268 398.486 210.618 399.015C211.15 399.87 211.613 400.784 212 401.743L209.149 401.639" fill="black"/>
<path d="M246.64 447.817C247.291 447.178 247.985 446.588 248.718 446.053C250.676 444.699 253.043 444.164 255.241 443.3C257.439 442.437 259.672 441.038 260.527 438.769C260.955 437.35 261.095 435.855 260.937 434.377C260.958 433.758 260.852 433.142 260.626 432.569C260.357 432.062 259.974 431.63 259.51 431.31C256.527 429.026 252.527 428.843 248.824 429.077C240.66 429.601 232.657 431.671 225.213 435.182C224.819 435.317 224.474 435.572 224.223 435.914C224.078 436.231 224.013 436.581 224.032 436.932C223.901 439.09 224.172 441.255 224.831 443.308C225.806 445.914 227.813 448.015 228.654 450.672C229.036 451.865 229.163 453.132 229.495 454.332C229.768 455.572 230.476 456.663 231.481 457.392C234.273 459.12 236.909 456.799 238.845 454.998L246.64 447.817Z" fill="#303030"/>
<path d="M209.804 458.243L206.153 450.309C205.618 449.21 205.156 448.077 204.771 446.917C204.353 445.532 204.151 444.098 203.763 442.706C202.481 438.072 199.248 434.213 197.671 429.672C197.571 429.262 197.368 428.884 197.08 428.575C196.85 428.413 196.587 428.303 196.309 428.253C196.032 428.204 195.747 428.215 195.474 428.288C193.271 428.668 191.55 430.339 189.534 431.286C188.598 431.717 187.589 432.003 186.653 432.498C186.185 432.719 185.771 433.038 185.438 433.433C185.105 433.828 184.861 434.289 184.723 434.787C184.5 435.884 185.047 436.939 185.508 438.007C187.467 442.412 187.913 447.333 188 452.153C188.065 455.395 187.899 458.874 185.976 461.478C182.282 466.499 184.644 473.873 186.027 479.949C186.192 480.667 186.387 481.441 186.502 482.202C186.624 483.153 186.679 484.112 186.668 485.071C186.668 488.292 186.488 491.613 185.134 494.532C186.47 495.241 187.944 495.656 189.454 495.752C193.636 496.283 197.834 496.656 202.049 496.871C203.369 496.994 204.701 496.927 206.002 496.67C207.547 496.254 208.909 495.337 209.873 494.064C210.836 492.791 211.347 491.234 211.323 489.64C211.554 491.627 211.979 493.786 213.426 495.164C214.874 496.541 216.983 496.749 218.949 496.856C224.497 497.15 230.06 496.994 235.583 496.39C235.936 496.374 236.282 496.294 236.606 496.153C237.671 495.623 237.729 494.159 237.643 492.983C237.484 490.781 237.319 488.579 237.052 486.391C236.826 484.996 236.711 483.586 236.707 482.173C236.816 480.72 237.057 479.279 237.427 477.869C238.392 473.393 239.155 468.824 238.831 464.24C238.703 463.123 238.657 461.999 238.694 460.876C238.881 458.343 240.221 455.933 239.969 453.416C239.248 446.013 238.665 438.416 236.591 431.272C236.217 429.995 235.742 428.625 234.626 427.893C233.185 426.932 231.162 427.434 229.513 426.824C228.739 426.466 228.003 426.031 227.317 425.526C225.824 424.596 224.114 424.072 222.355 424.005C221.03 423.955 219.554 424.249 218.755 425.311C218.385 425.909 218.14 426.575 218.035 427.269C216.991 431.645 215.766 435.97 214.542 440.296L213.369 444.442L210.222 455.575C209.912 456.758 210.121 457.124 209.804 458.243Z" fill="#AFAFAF"/>
<path d="M227.68 414L297 486.824V493H266.092L214 425.033" fill="#F1C0C0"/>
<path d="M227.68 414L297 486.824V493H266.092L214 425.033" fill="#FFC267"/>
<path opacity="0.1" d="M215.104 424L215.326 424.079L266.536 486.818H297V493H266.092L214 424.961L215.104 424Z" fill="black"/>
<path d="M222.938 426.103C220.532 427.239 217.857 428.694 217.136 431.426C216.993 431.906 216.962 432.416 217.046 432.911C217.222 433.494 217.557 434.005 218.008 434.377C218.458 434.75 219.003 434.966 219.569 434.997C220.701 435.027 221.827 434.805 222.876 434.344L237.072 429.28C237.457 429.147 237.897 428.946 237.994 428.538C238.018 428.281 237.97 428.022 237.856 427.796C237.416 426.637 236.983 424.269 236.062 423.46C235.306 422.806 233.807 423.036 232.893 423.051C229.373 423.081 226.066 424.618 222.938 426.103Z" fill="#AFAFAF"/>
<path d="M236.226 429.942C238.771 429.935 241.301 430.31 243.724 431.054C246.158 431.81 248.314 433.218 249.935 435.111C250.407 435.64 250.743 436.268 250.915 436.943C251.061 437.643 253.446 438.063 252.92 438.538C254.522 438.293 254.141 439.014 255.765 439C257.389 438.986 259.145 438.587 260.118 437.349C260.794 436.332 261.095 435.128 260.974 433.929C260.995 433.098 260.83 432.273 260.491 431.509C259.759 430.04 258.077 429.25 256.526 428.571L243.461 422.857C242.703 422.471 241.889 422.195 241.047 422.038C240.338 421.974 239.623 421.991 238.918 422.087L233 422.738C234.294 423.538 235.348 424.648 236.057 425.957C236.767 427.265 237.107 428.728 237.045 430.201" fill="#303030"/>
</svg>
