<svg width="820" height="820" viewBox="0 0 820 820" fill="none" xmlns="http://www.w3.org/2000/svg">
<circle cx="410" cy="410" r="410" fill="#C4C4C4" fill-opacity="0.6"/>
<path d="M50 588.485C50 598.15 57.835 605.985 67.5 605.985H752.5C762.165 605.985 770 598.15 770 588.485V588.485C770 578.82 762.165 570.985 752.5 570.985H67.5C57.835 570.985 50 578.82 50 588.485V588.485Z" fill="#656565"/>
<g opacity="0.7">
<path opacity="0.7" d="M405.529 628.472H135.278L137.149 413.749L214.438 392.047H323.709L403.658 407.418L405.529 628.472Z" fill="url(#paint0_linear_116_59)"/>
</g>
<path d="M405 594.985H139L140.894 412.868L215.597 393.985H327.308L403.106 407.359L405 594.985Z" fill="#EEEEEE"/>
<g opacity="0.7">
<path opacity="0.7" d="M239.752 315.194H220.033V381.204H239.752V315.194Z" fill="url(#paint1_linear_116_59)"/>
</g>
<g opacity="0.7">
<path opacity="0.7" d="M220.024 465.198V393.852H134.37L119.824 465.198V472.51H220.565V465.198H220.024Z" fill="url(#paint2_linear_116_59)"/>
</g>
<path d="M220 465.985H121L135.369 393.985H220V465.985Z" fill="#AFAFAF"/>
<path opacity="0.1" d="M220 465.985H121L135.369 393.985H220V465.985Z" fill="black"/>
<path d="M220 465.985H121V471.985H220V465.985Z" fill="#AFAFAF"/>
<g opacity="0.7">
<path opacity="0.7" d="M404.529 392.949H318.646V465.104H318.105V472.51H419.121V465.104L404.529 392.949Z" fill="url(#paint3_linear_116_59)"/>
</g>
<path d="M318 465.985H418L403.486 393.985H318V465.985Z" fill="#AFAFAF"/>
<path opacity="0.1" d="M318 465.985H418L403.486 393.985H318V465.985Z" fill="black"/>
<path d="M318 471.985H418V465.985H318V471.985Z" fill="#AFAFAF"/>
<path opacity="0.5" d="M201 500.985H148V556.985H201V500.985Z" fill="#AFAFAF"/>
<path opacity="0.1" d="M204 553.985H144V563.985H204V553.985Z" fill="black"/>
<path d="M204 552.985H144V562.985H204V552.985Z" fill="#535461"/>
<g opacity="0.1">
<path opacity="0.1" d="M201.378 500.995H147.54V523.6H201.378V500.995Z" fill="black"/>
</g>
<path opacity="0.5" d="M392 500.985H337V556.985H392V500.985Z" fill="#AFAFAF"/>
<path opacity="0.1" d="M395 553.985H335V563.985H395V553.985Z" fill="black"/>
<path d="M395 552.985H335V562.985H395V552.985Z" fill="#535461"/>
<g opacity="0.1">
<path opacity="0.1" d="M391.671 500.995H337.833V523.6H391.671V500.995Z" fill="black"/>
</g>
<g opacity="0.7">
<path opacity="0.7" d="M335.256 398.986L269.505 312.736L205.872 398.924L200.882 388.329L269.431 295.499L340.144 388.267L335.256 398.986Z" fill="url(#paint4_linear_116_59)"/>
</g>
<path opacity="0.1" d="M211 471.985H141V473.985H211V471.985Z" fill="black"/>
<path opacity="0.1" d="M400 471.985H328V473.985H400V471.985Z" fill="black"/>
<path d="M240 315.985H220V380.985H240V315.985Z" fill="#535461"/>
<g opacity="0.7">
<path opacity="0.7" d="M328.771 625.765H209.375V378.03L269.587 375.774L328.771 378.03V625.765Z" fill="url(#paint5_linear_116_59)"/>
</g>
<path d="M327 594.985H211V371.263L269.005 307.985L327 371.263V594.985Z" fill="white"/>
<path d="M284 520.985H255V594.985H284V520.985Z" fill="#535461"/>
<path opacity="0.1" d="M299 467.985H240V477.985H299V467.985Z" fill="black"/>
<path opacity="0.5" d="M297 414.985H242V471.985H297V414.985Z" fill="#AFAFAF"/>
<path d="M299 467.985H240V477.985H299V467.985Z" fill="#535461"/>
<g opacity="0.1">
<path opacity="0.1" d="M296.258 415.103H242.421V437.708H296.258V415.103Z" fill="black"/>
</g>
<path d="M335.121 399.985L269.493 313.308L205.98 399.922L201 389.275L269.42 295.985L340 389.213L335.121 399.985Z" fill="#AFAFAF"/>
<path d="M281.5 565.985C282.881 565.985 284 563.97 284 561.485C284 559 282.881 556.985 281.5 556.985C280.119 556.985 279 559 279 561.485C279 563.97 280.119 565.985 281.5 565.985Z" fill="#E0E0E0"/>
<g opacity="0.7">
<path opacity="0.7" d="M717.107 628.985H494.769L496.3 347.6L559.887 319.161H649.796L715.575 339.308L717.107 628.985Z" fill="url(#paint6_linear_116_59)"/>
</g>
<path d="M714 594.985H498L499.539 348.524L560.201 322.985H650.91L712.461 341.073L714 594.985Z" fill="#EEEEEE"/>
<g opacity="0.7">
<path opacity="0.7" d="M580.716 197.907H564.491V252.218H580.716V197.907Z" fill="url(#paint7_linear_116_59)"/>
</g>
<g opacity="0.7">
<path opacity="0.7" d="M564.491 365.211V306.513H494.017L482.048 365.211V371.231H564.932V365.211H564.491Z" fill="url(#paint8_linear_116_59)"/>
</g>
<path d="M564 364.985H483L494.759 306.985H564V364.985Z" fill="#AFAFAF"/>
<path opacity="0.1" d="M564 364.985H483L494.759 306.985H564V364.985Z" fill="black"/>
<path d="M565 364.985H483V370.985H565V364.985Z" fill="#AFAFAF"/>
<g opacity="0.7">
<path opacity="0.7" d="M716.291 307.26H645.633V366.626H645.183V372.725H728.287V366.626L716.291 307.26Z" fill="url(#paint9_linear_116_59)"/>
</g>
<path d="M646 366.985H727L715.243 308.985H646V366.985Z" fill="#AFAFAF"/>
<path opacity="0.1" d="M646 366.985H727L715.243 308.985H646V366.985Z" fill="black"/>
<path d="M645 371.985H727V366.985H645V371.985Z" fill="#AFAFAF"/>
<path opacity="0.5" d="M549 524.985H505V570.985H549V524.985Z" fill="#AFAFAF"/>
<path opacity="0.1" d="M551 567.985H502V575.985H551V567.985Z" fill="black"/>
<path d="M551 566.985H502V574.985H551V566.985Z" fill="#535461"/>
<g opacity="0.1">
<path opacity="0.1" d="M549.138 524.097H504.848V542.688H549.138V524.097Z" fill="black"/>
</g>
<path opacity="0.5" d="M706 524.985H661V570.985H706V524.985Z" fill="#AFAFAF"/>
<path opacity="0.1" d="M708 567.985H658V575.985H708V567.985Z" fill="black"/>
<path d="M708 566.985H658V574.985H708V566.985Z" fill="#535461"/>
<g opacity="0.1">
<path opacity="0.1" d="M705.706 524.097H661.417V542.688H705.706V524.097Z" fill="black"/>
</g>
<path opacity="0.5" d="M706 414.985H661V460.985H706V414.985Z" fill="#AFAFAF"/>
<path opacity="0.1" d="M708 458.985H658V466.985H708V458.985Z" fill="black"/>
<path d="M708 457.985H658V465.985H708V457.985Z" fill="#535461"/>
<g opacity="0.1">
<path opacity="0.1" d="M705.706 414.745H661.417V433.336H705.706V414.745Z" fill="black"/>
</g>
<path opacity="0.5" d="M551 414.985H506V460.985H551V414.985Z" fill="#AFAFAF"/>
<path opacity="0.1" d="M553 458.985H503V466.985H553V458.985Z" fill="black"/>
<path d="M553 457.985H503V465.985H553V457.985Z" fill="#535461"/>
<g opacity="0.1">
<path opacity="0.1" d="M550.459 414.745H506.169V433.336H550.459V414.745Z" fill="black"/>
</g>
<g opacity="0.7">
<path opacity="0.7" d="M659.289 276.145L605.204 205.188L552.843 276.099L548.734 267.386L605.14 191L663.315 267.324L659.289 276.145Z" fill="url(#paint10_linear_116_59)"/>
</g>
<path opacity="0.1" d="M557 370.985H499V371.985H557V370.985Z" fill="black"/>
<path opacity="0.1" d="M713 371.985H654V372.985H713V371.985Z" fill="black"/>
<path d="M580 197.985H565V251.985H580V197.985Z" fill="#535461"/>
<g opacity="0.7">
<path opacity="0.7" d="M654.18 626.76H555.943V266.655L605.488 263.373L654.18 266.655V626.76Z" fill="url(#paint11_linear_116_59)"/>
</g>
<path d="M653.115 594.985H557V261.276L605.057 204.985L654 263.343L653.115 594.985Z" fill="white"/>
<path d="M617 531.985H593V594.985H617V531.985Z" fill="#535461"/>
<path opacity="0.1" d="M629 496.985H580V504.985H629V496.985Z" fill="black"/>
<path opacity="0.5" d="M628 452.985H583V499.985H628V452.985Z" fill="#AFAFAF"/>
<path d="M629 495.985H580V503.985H629V495.985Z" fill="#535461"/>
<g opacity="0.1">
<path opacity="0.1" d="M627.207 453.436H582.917V472.027H627.207V453.436Z" fill="black"/>
</g>
<path opacity="0.5" d="M628 360.985H583V408.985H628V360.985Z" fill="#AFAFAF"/>
<path d="M629 403.985H580V412.985H629V403.985Z" fill="#535461"/>
<g opacity="0.1">
<path opacity="0.1" d="M627.207 361.57H582.917V380.161H627.207V361.57Z" fill="black"/>
</g>
<path opacity="0.5" d="M628 269.985H583V316.985H628V269.985Z" fill="#AFAFAF"/>
<path d="M629 312.985H580V320.985H629V312.985Z" fill="#535461"/>
<g opacity="0.1">
<path opacity="0.1" d="M627.207 269.689H582.917V288.28H627.207V269.689Z" fill="black"/>
</g>
<path d="M658.994 278.985L605.183 208.146L553.088 278.923L549 270.227L605.119 193.985L663 270.165L658.994 278.985Z" fill="#AFAFAF"/>
<path d="M613.5 570.985C614.328 570.985 615 569.866 615 568.485C615 567.104 614.328 565.985 613.5 565.985C612.672 565.985 612 567.104 612 568.485C612 569.866 612.672 570.985 613.5 570.985Z" fill="#E0E0E0"/>
<defs>
<linearGradient id="paint0_linear_116_59" x1="270.403" y1="628.472" x2="270.403" y2="392.047" gradientUnits="userSpaceOnUse">
<stop stop-color="#808080" stop-opacity="0.25"/>
<stop offset="0.54" stop-color="#808080" stop-opacity="0.12"/>
<stop offset="1" stop-color="#808080" stop-opacity="0.1"/>
</linearGradient>
<linearGradient id="paint1_linear_116_59" x1="6633.63" y1="8384.88" x2="6633.63" y2="5584.75" gradientUnits="userSpaceOnUse">
<stop stop-color="#808080" stop-opacity="0.25"/>
<stop offset="0.54" stop-color="#808080" stop-opacity="0.12"/>
<stop offset="1" stop-color="#808080" stop-opacity="0.1"/>
</linearGradient>
<linearGradient id="paint2_linear_116_59" x1="26328.6" y1="14627" x2="26328.6" y2="10650" gradientUnits="userSpaceOnUse">
<stop stop-color="#808080" stop-opacity="0.25"/>
<stop offset="0.54" stop-color="#808080" stop-opacity="0.12"/>
<stop offset="1" stop-color="#808080" stop-opacity="0.1"/>
</linearGradient>
<linearGradient id="paint3_linear_116_59" x1="48452.3" y1="14789.3" x2="48452.3" y2="10720.6" gradientUnits="userSpaceOnUse">
<stop stop-color="#808080" stop-opacity="0.25"/>
<stop offset="0.54" stop-color="#808080" stop-opacity="0.12"/>
<stop offset="1" stop-color="#808080" stop-opacity="0.1"/>
</linearGradient>
<linearGradient id="paint4_linear_116_59" x1="51663.7" y1="14130.7" x2="51663.7" y2="7246.74" gradientUnits="userSpaceOnUse">
<stop stop-color="#808080" stop-opacity="0.25"/>
<stop offset="0.54" stop-color="#808080" stop-opacity="0.12"/>
<stop offset="1" stop-color="#808080" stop-opacity="0.1"/>
</linearGradient>
<linearGradient id="paint5_linear_116_59" x1="44143.6" y1="70238.1" x2="44143.6" y2="30067.1" gradientUnits="userSpaceOnUse">
<stop stop-color="#808080" stop-opacity="0.25"/>
<stop offset="0.54" stop-color="#808080" stop-opacity="0.12"/>
<stop offset="1" stop-color="#808080" stop-opacity="0.1"/>
</linearGradient>
<linearGradient id="paint6_linear_116_59" x1="163971" y1="87543.9" x2="163971" y2="25842.4" gradientUnits="userSpaceOnUse">
<stop stop-color="#808080" stop-opacity="0.25"/>
<stop offset="0.54" stop-color="#808080" stop-opacity="0.12"/>
<stop offset="1" stop-color="#808080" stop-opacity="0.1"/>
</linearGradient>
<linearGradient id="paint7_linear_116_59" x1="11904.1" y1="2335.03" x2="11904.1" y2="439.046" gradientUnits="userSpaceOnUse">
<stop stop-color="#808080" stop-opacity="0.25"/>
<stop offset="0.54" stop-color="#808080" stop-opacity="0.12"/>
<stop offset="1" stop-color="#808080" stop-opacity="0.1"/>
</linearGradient>
<linearGradient id="paint8_linear_116_59" x1="53972.9" y1="7804.14" x2="53972.9" y2="5111.86" gradientUnits="userSpaceOnUse">
<stop stop-color="#808080" stop-opacity="0.25"/>
<stop offset="0.54" stop-color="#808080" stop-opacity="0.12"/>
<stop offset="1" stop-color="#808080" stop-opacity="0.1"/>
</linearGradient>
<linearGradient id="paint9_linear_116_59" x1="69069.7" y1="7954.24" x2="69069.7" y2="5199.47" gradientUnits="userSpaceOnUse">
<stop stop-color="#808080" stop-opacity="0.25"/>
<stop offset="0.54" stop-color="#808080" stop-opacity="0.12"/>
<stop offset="1" stop-color="#808080" stop-opacity="0.1"/>
</linearGradient>
<linearGradient id="paint10_linear_116_59" x1="84807.1" y1="4851" x2="84807.1" y2="191" gradientUnits="userSpaceOnUse">
<stop stop-color="#808080" stop-opacity="0.25"/>
<stop offset="0.54" stop-color="#808080" stop-opacity="0.12"/>
<stop offset="1" stop-color="#808080" stop-opacity="0.1"/>
</linearGradient>
<linearGradient id="paint11_linear_116_59" x1="72691.5" y1="102048" x2="72691.5" y2="17168.2" gradientUnits="userSpaceOnUse">
<stop stop-color="#808080" stop-opacity="0.25"/>
<stop offset="0.54" stop-color="#808080" stop-opacity="0.12"/>
<stop offset="1" stop-color="#808080" stop-opacity="0.1"/>
</linearGradient>
</defs>
</svg>
