<svg width="50" height="50" viewBox="0 0 50 50" fill="none" xmlns="http://www.w3.org/2000/svg">
<path d="M37.2167 1.09243C37.0041 1.15722 36.7355 1.24558 36.6292 1.2927C36.5229 1.33393 36.1816 1.4694 35.8739 1.5872C34.6318 2.0643 32.9422 2.88303 31.7561 3.58396C31.1182 3.96093 30.2286 4.5146 30.1951 4.55583C30.1783 4.5735 29.7978 4.85033 29.339 5.17429C28.3375 5.89289 28.332 5.89289 27.6718 6.43478C26.1164 7.72472 24.4938 9.42107 23.2629 11.035C22.502 12.0304 22.4573 12.1011 21.7859 13.1908C21.1257 14.2569 21.1593 14.198 20.9802 14.5396C20.8963 14.6986 20.7956 14.8871 20.762 14.9519C20.7228 15.0167 20.5102 15.4526 20.292 15.9238C20.0682 16.395 19.8724 16.8191 19.85 16.8662C19.7773 17.0076 19.3017 18.2209 19.1507 18.6332C18.3058 20.9598 17.6121 24.3467 17.4386 26.9972C17.3715 28.0692 17.3155 28.7643 17.2987 28.7643C17.2876 28.7643 17.1924 28.723 17.0805 28.6759C16.7672 28.5345 16.2469 28.5345 16.107 28.6641C15.9448 28.8232 15.7322 29.4181 15.5587 30.1897C15.43 30.7905 15.4133 30.9789 15.4077 32.0922C15.4077 32.7695 15.4244 33.4881 15.4468 33.6825C15.514 34.2539 15.7042 35.3612 15.7937 35.7441C16.0063 36.6158 16.5211 38.3534 16.6777 38.748C16.7225 38.8423 16.8232 39.125 16.9127 39.3665C16.9966 39.608 17.1029 39.8613 17.1421 39.926C17.1813 39.9908 17.2148 40.0733 17.2148 40.1145C17.2148 40.2853 18.2275 42.4294 18.9548 43.8135L19.4528 44.756L19.3689 45.7573C19.3241 46.3051 19.2794 46.8882 19.2738 47.0531C19.257 47.3358 19.2514 47.3417 19.0612 47.3829C18.9548 47.4065 18.3898 47.4536 17.8023 47.4949C16.0679 47.6068 13.9921 47.8836 13.3375 48.0898C13.0018 48.1958 12.9627 48.2193 13.0242 48.3018C13.0914 48.3784 13.2536 48.3902 14.3055 48.3607C14.9657 48.343 16.784 48.2959 18.345 48.2547C22.0712 48.1604 24.8183 48.2311 28.9977 48.5315C29.3055 48.5551 29.658 48.5551 29.7754 48.5315C29.9657 48.4903 29.9769 48.4844 29.8817 48.4137C29.5628 48.184 28.5669 47.9543 26.5919 47.6716C26.1331 47.6009 25.7359 47.5361 25.7079 47.5184C25.6856 47.5008 25.6632 47.4301 25.6632 47.3535C25.6632 47.2239 25.8646 45.8574 25.7807 45.8574C25.7583 45.8574 25.4226 47.1709 25.3946 47.271L25.3443 47.4654L24.8351 47.4595C24.5498 47.4595 24.3036 47.4419 24.2868 47.4183C24.2644 47.4006 24.2812 47.2121 24.326 46.9942L24.3987 46.6113H24.8295C25.3554 46.6113 25.4394 46.6408 25.4394 46.8234C25.4394 46.9 25.4618 46.9647 25.4953 46.9647C25.6408 46.9647 25.8534 46.146 25.7807 45.8574C25.7303 45.663 25.6296 45.6277 25.5792 45.7808C25.5401 45.9163 25.3499 45.9399 24.8575 45.8692C24.6225 45.8338 24.6001 45.8162 24.6001 45.6689C24.9079 40.8744 24.354 45.4274 24.2477 45.7396C24.2141 45.8338 24.1302 45.8456 23.593 45.8456C22.9776 45.8456 22.9776 45.8456 22.9776 45.7043C22.9776 45.3214 22.793 45.2566 22.6923 45.6041C22.6307 45.8162 22.6083 45.8338 22.3734 45.8692C22.2391 45.8869 21.9481 45.9045 21.7355 45.9045H21.3495L21.3663 45.7455C21.383 45.61 21.4894 45.5158 22.0488 45.1565C22.4181 44.9268 22.737 44.7442 22.7594 44.7618C22.7818 44.7736 22.7874 44.8914 22.7706 45.021C22.7538 45.1506 22.7258 45.9045 22.7594 45.9045C22.8377 45.9045 23.0168 44.9562 23.0615 44.7088C23.1063 44.4614 23.2518 44.326 23.9791 43.8489C24.6169 43.4248 24.6169 43.4248 24.5889 43.6839C24.5442 44.1198 24.5814 44.6558 24.6821 44.1728C24.7045 44.0609 24.9918 43.1362 25.0421 43.0949C25.2939 42.8888 26.2339 42.2468 26.2506 42.2644C26.2674 42.2762 26.245 42.3881 26.2115 42.5059C26.1779 42.6237 25.4785 46.9471 25.4953 46.9647C25.5848 47.0649 26.5528 42.4235 26.6367 42.0583C26.6703 41.911 26.7766 41.8109 27.7221 41.0216C28.0578 40.7507 28.1417 40.4503 27.9851 40.1322C27.9011 39.9555 27.9011 39.9555 28.4774 39.0307C29.0201 38.159 29.9713 36.5274 29.9713 36.4685C29.9713 36.4568 30.1167 36.1623 30.3014 35.8206C30.7825 34.9077 31.9015 32.5045 32.2876 31.5444C32.3659 31.3441 32.4946 31.0261 32.5673 30.8376C33.9716 27.3506 35.1522 23.4631 35.8348 20.0763C35.8963 19.7936 35.9131 19.6758 36.0977 18.6627C36.1425 18.4035 36.204 18.003 36.232 17.7792C36.26 17.5495 36.3215 17.0724 36.3719 16.7189C36.4166 16.3596 36.4838 15.7 36.5173 15.2464C36.5565 14.7516 36.6236 14.2922 36.6852 14.0978C36.9314 13.338 37.1048 12.6371 37.295 11.5945C37.3622 11.2352 37.4405 10.8288 37.4741 10.6816C37.5076 10.5343 37.5524 10.2339 37.5804 10.0042C37.6083 9.78037 37.6643 9.2856 37.7091 8.91452C37.9329 7.16516 38 5.91055 38 3.54272C38 1.03353 38.0056 1.08065 37.7202 1.00408C37.6587 0.986411 37.4349 1.02764 37.2167 1.09243ZM37.0041 4.18475C36.9537 5.6455 36.8698 6.69983 36.6348 8.85562C36.5397 9.73914 36.5117 9.78626 36.4334 9.23848C36.3719 8.84384 36.2264 8.18415 36.1705 8.05457C36.1369 7.98388 36.053 7.89553 35.9802 7.8543C35.8739 7.78951 35.8292 7.7954 35.7061 7.87786L35.5662 7.9721V7.70705C35.5662 7.55979 35.7285 6.82763 35.7061 6.82763C35.6445 6.82763 35.1913 8.00744 35.1466 8.23716C35.1186 8.37263 34.9172 8.58468 34.3073 9.13246C33.8597 9.53299 33.4737 9.85694 33.4401 9.85694C33.4121 9.85694 33.3842 9.79804 33.3842 9.72147C33.3842 9.65079 33.3618 9.55655 33.3394 9.51532C33.5856 3.28356 33.1716 9.63901 33.1156 10.016C33.0765 10.3046 33.0429 10.3517 32.2428 11.2352C31.7896 11.7418 31.3924 12.1364 31.3644 12.1188C31.3364 12.1011 31.3141 12.0245 31.3141 11.9479C31.3141 11.8714 31.0288 9.13575 31.0009 9.11808C30.9169 9.05918 31.0791 12.0422 31.107 12.2896C31.135 12.4957 31.107 12.5487 30.7378 13.0258C30.5196 13.3086 30.3237 13.5618 30.2958 13.5972C30.1559 13.7974 29.6188 14.4218 29.5796 14.4395C29.5572 14.4512 29.5069 14.3688 29.4733 14.2628C29.4062 14.0743 28.8844 11.3118 28.8061 11.4237C28.7389 11.5121 29.2439 14.3806 29.2719 14.6162L29.3111 14.9283L28.9194 15.4997C28.7068 15.8119 28.3991 16.2831 28.2312 16.5422C27.6326 17.4729 27.5934 17.641 27.4144 17.0135C27.2115 16.4598 27.3515 16.9663 27.4634 17.3433C27.525 17.5671 27.3696 17.95 27.1011 18.4271C26.5416 19.4225 26.1387 20.1058 26.1108 20.1058C26.0884 20.1058 26.038 20.041 25.9989 19.9585C25.9597 19.8761 24.3256 17.1666 24.3032 17.1666C24.2248 17.1666 25.7919 20.0999 25.8646 20.3237C25.9373 20.5475 25.9373 20.5475 25.3554 21.7962C25.0365 22.4795 24.7456 23.0567 24.7176 23.0744C24.6897 23.0921 24.6281 23.0449 24.5778 22.9625C24.5274 22.88 22.6419 20.6418 22.6139 20.6418C22.5244 20.6418 24.3651 23.1451 24.4659 23.363C24.5498 23.5397 24.5498 23.5868 24.477 23.7635C24.298 24.1876 23.7777 25.56 23.593 26.0842C23.5259 26.2786 23.4252 26.5437 23.3692 26.6733C23.3189 26.8028 23.2518 26.9678 23.235 27.0384C23.179 27.2151 22.9529 26.7114 22.375 26.1298C22.0753 25.9601 22.8601 26.7734 23.0615 27.2387C23.1622 27.4802 23.0336 27.7512 22.9552 27.9691C22.8825 28.1929 22.6923 28.8349 22.4741 29.6183C22.4181 29.8127 22.3174 30.172 22.2503 30.4135C22.1831 30.655 22.088 30.9848 22.0433 31.1439L21.9537 31.4384L21.825 31.2617C21.7523 31.1674 21.6908 31.0732 21.6908 31.0437C21.6908 31.0202 20.6712 29.6242 20.6376 29.6242C20.5089 29.6242 21.5173 31.3088 21.6628 31.7093C21.7467 31.939 21.8027 32.1452 21.7803 32.1629C21.7523 32.1923 21.3159 31.8153 20.9131 31.4207C20.6781 31.1969 19.7829 30.4076 19.4136 30.1131C19.1451 29.8952 19.0667 29.795 19.0388 29.6242C19.0052 29.4298 19.0947 27.9396 19.1451 27.8866C19.1619 27.8748 19.257 27.9337 19.3689 28.0221C19.5591 28.1752 20.8571 30.1602 20.8571 30.0424C20.8571 29.9128 19.4472 27.6981 19.2682 27.4861C19.1675 27.3683 19.1619 27.3035 19.1954 26.85C19.2178 26.5731 19.2738 26.0901 19.3185 25.7721C19.3689 25.4599 19.4192 25.1065 19.4304 24.9946C19.4864 24.5528 19.7269 23.4514 19.7885 23.3453C19.8277 23.2805 19.8668 23.2864 19.9843 23.3689C20.1074 23.4514 23.0468 27.2548 22.375 26.1298C22.9853 26.9588 20.1242 23.1745 19.9899 22.9389C19.8724 22.8329 19.878 22.7799 20.0459 22.1496C20.4431 20.6712 21.0418 18.9866 21.1704 18.9866C21.1872 18.9866 23.3133 21.6195 23.3693 21.6725C23.5819 21.8787 21.4838 18.9925 21.2879 18.7275V18.5684L21.411 18.2622C21.618 17.7497 21.9593 17.0547 22.4908 16.0416C22.6307 15.7765 23.0951 15.0403 23.1902 14.9225C23.207 14.9048 23.2294 14.9225 23.2406 14.9578C23.2518 14.9931 24.947 18.5095 24.9918 18.5684C25.1205 18.7451 23.5427 15.1345 23.5035 14.7458C23.47 14.4336 23.4811 14.4041 23.7105 14.0389C24.1022 13.4146 25.0309 12.1777 25.3163 11.9008L25.4841 11.73L27.9515 18.7275C28.0522 19.0573 25.7751 12.1188 25.7751 11.6534V11.2824L26.6423 10.3458C27.4032 9.5271 28.1641 8.8085 28.2033 8.8674C28.2089 8.87329 28.2424 8.97343 28.2704 9.08534C28.3208 9.27971 29.0369 13.2261 29.132 13.1319C29.1936 13.0671 28.5166 8.99109 28.5166 8.82617C28.5166 8.51988 28.6453 8.3314 29.1544 7.93087C29.339 7.77773 29.5069 7.63636 29.5237 7.61869C29.6691 7.45377 30.6483 6.73518 30.7266 6.73518C30.7434 6.73518 30.7546 6.8412 30.7546 6.97078C30.7546 7.10036 30.9983 10.0874 31.0319 10.0874C31.099 10.0874 31.0903 6.77641 31.0903 6.63504C31.0903 6.57614 31.1294 6.47012 31.1742 6.39944C31.3252 6.17561 33.2107 4.91512 33.4066 4.90923C33.4289 4.90923 33.2487 8.39109 33.4401 7.70705C33.3618 8.13702 33.6336 5.36194 33.6978 4.82881C33.8153 4.53431 33.9325 4.53816 34.3297 4.30255C35.141 3.82545 36.3942 3.22466 36.4446 3.28356C36.4614 3.30123 36.439 3.40726 36.3998 3.51917C36.3439 3.68409 35.3448 7.56568 35.3952 7.61869C35.4847 7.71294 36.6404 3.80189 36.6852 3.63697C36.7299 3.47205 36.9593 3.02439 37.0041 3.02439C37.0209 3.02439 37.0209 3.54862 37.0041 4.18475ZM35.1466 11.5356C35.0906 13.497 34.8445 16.2772 34.5535 18.3093C34.3857 19.4873 34.0444 21.4369 33.8597 22.2557C33.5856 23.4749 33.4793 23.9344 33.4122 24.17C33.373 24.3172 33.2835 24.6588 33.2163 24.9357C32.8583 26.3788 31.9127 29.3003 31.4539 30.384C31.4148 30.4783 31.3252 30.708 31.2581 30.8847C30.8273 32.0451 29.7027 34.4247 28.9754 35.7264C28.1865 37.1282 27.2409 38.5713 27.0507 38.6538C26.978 38.6832 26.7262 38.3887 25.6911 37.0517C25.1652 36.3743 24.4826 35.4849 24.1637 35.0785C23.8448 34.6662 23.5147 34.2244 23.4252 34.0889L23.2685 33.8533L23.3469 33.3821C23.3916 33.1288 23.442 32.8108 23.4588 32.6812C23.5539 31.992 23.9567 30.1484 24.2756 28.9704C24.4267 28.3991 25.0477 26.3788 25.1652 26.0548C25.8086 24.329 25.8814 24.1346 26.3346 23.0803C26.6311 22.397 27.4424 20.6948 27.6773 20.253C27.8004 20.0233 27.9235 19.7877 27.9515 19.717C28.1305 19.2811 29.5293 16.9428 30.2734 15.8472C30.5531 15.429 30.8609 14.9814 30.9504 14.84C31.2301 14.4277 32.1141 13.2438 32.6512 12.5664C33.2331 11.8301 34.2346 10.6816 34.6486 10.2751L35.0906 9.83927L35.1354 10.1573C35.1578 10.334 35.1634 10.9525 35.1466 11.5356ZM18.5912 31.3913C19.1171 31.7505 19.5871 32.0922 19.6318 32.1452C19.6822 32.1982 19.7381 32.2394 19.7605 32.2394C19.906 32.2394 21.1648 33.4587 21.2432 33.6766C21.3103 33.8651 21.2432 34.3363 20.8851 36.2447C20.7844 36.7572 20.6277 37.6407 20.4599 38.6008C20.3927 38.9718 20.3032 39.4489 20.2641 39.661C20.2193 39.873 20.1578 40.2147 20.1242 40.4267C20.0906 40.6388 20.0291 40.9804 19.9899 41.1924C19.9452 41.4045 19.878 41.7343 19.8388 41.9287C19.7997 42.1231 19.7493 42.3057 19.7269 42.3292C19.6206 42.4647 18.5968 40.5386 18.0932 39.2487C17.7743 38.43 17.3435 36.9928 17.2092 36.3095C17.1813 36.174 17.1365 35.962 17.1085 35.8383C16.9854 35.3671 16.812 34.1596 16.7393 33.2997C16.6162 31.8978 16.6385 30.8906 16.8008 30.3664C16.8344 30.2486 17.4666 30.6138 18.5912 31.3913ZM23.6993 36.4803C24.2924 37.1223 25.2044 38.1649 25.4114 38.4241C25.5289 38.5713 25.7359 38.8305 25.8814 39.0072C26.1947 39.3842 26.5807 39.9319 26.6759 40.1145C26.7374 40.2382 26.7318 40.2618 26.6255 40.3384C26.564 40.3914 26.4744 40.462 26.4353 40.5033C26.3402 40.5975 24.7792 41.7755 24.0686 42.2821C22.53 43.3894 22.1384 43.6663 21.8139 43.8665C21.618 43.9902 21.4502 44.0786 21.4334 44.0609C21.3998 44.0256 21.5061 42.9006 21.6068 42.2526C21.646 41.9758 21.7131 41.5399 21.7467 41.2808C21.7859 41.0216 21.825 40.7566 21.8362 40.6977C21.8474 40.6329 21.881 40.3678 21.9146 40.1086C21.9481 39.8436 22.0153 39.4666 22.06 39.2605C22.1048 39.0543 22.1384 38.8187 22.1384 38.7304C22.1384 38.642 22.1775 38.4005 22.2223 38.1885C22.2726 37.9764 22.3622 37.5523 22.4237 37.246C22.5971 36.339 22.6251 36.227 22.7482 35.9267L22.8657 35.6439L23.1343 35.8972C23.2797 36.0386 23.5315 36.2977 23.6993 36.4803ZM24.0798 46.6467C24.0966 46.6997 24.0686 46.8823 24.0183 47.059L23.9231 47.3771H23.3077C22.6251 47.3771 22.6587 47.4065 22.7594 46.9117C22.8265 46.576 22.8209 46.576 23.5819 46.5583C23.9623 46.5524 24.0518 46.5701 24.0798 46.6467ZM22.4741 46.6997C22.4741 46.7409 22.4461 46.9176 22.4125 47.0884L22.351 47.3888L21.8754 47.3653C21.3495 47.3358 21.2991 47.3005 21.2991 46.953C21.2991 46.6585 21.3886 46.6172 21.9873 46.6113C22.3734 46.6113 22.4741 46.629 22.4741 46.6997Z" fill="white"/>
</svg>
