<svg width="82" height="40" viewBox="0 0 82 40" fill="none" xmlns="http://www.w3.org/2000/svg">
<g clip-path="url(#clip0_4_2)">
<path d="M22.342 0.0777777C22.1634 0.132282 21.9379 0.206609 21.8486 0.246249C21.7593 0.280934 21.4726 0.394896 21.2141 0.493996C20.1707 0.895349 18.7514 1.58409 17.7551 2.17373C17.2193 2.49085 16.4721 2.95662 16.4439 2.9913C16.4298 3.00617 16.1102 3.23905 15.7248 3.51157C14.8835 4.11608 14.8788 4.11608 14.3243 4.57194C13.0177 5.65708 11.6548 7.08411 10.6209 8.44177C9.98171 9.27916 9.94411 9.33862 9.38014 10.2553C8.82557 11.1521 8.85377 11.1026 8.70338 11.39C8.63288 11.5238 8.54829 11.6823 8.52009 11.7368C8.48719 11.7913 8.3086 12.158 8.12531 12.5544C7.93732 12.9508 7.77283 13.3076 7.75403 13.3472C7.69293 13.4661 7.29346 14.4868 7.16656 14.8337C6.4569 16.7909 5.87413 19.64 5.72844 21.8698C5.67205 22.7716 5.62505 23.3562 5.61095 23.3562C5.60155 23.3562 5.52165 23.3216 5.42766 23.2819C5.16447 23.163 4.7274 23.163 4.6099 23.272C4.47361 23.4058 4.29502 23.9062 4.14933 24.5553C4.04123 25.0608 4.02714 25.2193 4.02244 26.1558C4.02244 26.7256 4.03653 27.3301 4.05533 27.4936C4.11173 27.9743 4.27152 28.9058 4.34672 29.2279C4.52531 29.9612 4.95768 31.4229 5.08928 31.7549C5.12688 31.8342 5.21147 32.072 5.28667 32.2752C5.35716 32.4783 5.44646 32.6914 5.47936 32.7459C5.51225 32.8004 5.54045 32.8698 5.54045 32.9045C5.54045 33.0482 6.39111 34.8518 7.00207 36.0162L7.42035 36.809L7.34985 37.6513C7.31225 38.1122 7.27466 38.6027 7.26996 38.7414C7.25586 38.9793 7.25116 38.9842 7.09137 39.0189C7.00207 39.0387 6.5274 39.0784 6.03393 39.1131C4.57701 39.2072 2.8334 39.4401 2.28353 39.6135C2.00155 39.7027 1.96865 39.7225 2.02035 39.7919C2.07674 39.8563 2.21304 39.8662 3.09659 39.8414C3.65116 39.8266 5.17857 39.7869 6.4898 39.7523C9.61983 39.673 11.9274 39.7324 15.4381 39.9851C15.6966 40.005 15.9927 40.005 16.0914 39.9851C16.2512 39.9505 16.2606 39.9455 16.1807 39.886C15.9128 39.6928 15.0762 39.4995 13.4172 39.2617C13.0318 39.2022 12.6982 39.1477 12.6747 39.1329C12.6559 39.118 12.6371 39.0586 12.6371 38.9941C12.6371 38.8851 12.8063 37.7356 12.7358 37.7356C12.717 37.7356 12.435 38.8405 12.4115 38.9248L12.3692 39.0883L11.9415 39.0833C11.7018 39.0833 11.495 39.0685 11.4809 39.0486C11.4621 39.0338 11.4762 38.8752 11.5138 38.6919L11.5749 38.3698H11.9368C12.3786 38.3698 12.4491 38.3946 12.4491 38.5482C12.4491 38.6126 12.4679 38.6671 12.4961 38.6671C12.6183 38.6671 12.7969 37.9784 12.7358 37.7356C12.6935 37.5721 12.6089 37.5423 12.5666 37.6712C12.5337 37.7851 12.3739 37.8049 11.9603 37.7455C11.7629 37.7158 11.7441 37.7009 11.7441 37.577C12.0026 33.5437 11.5373 37.3739 11.448 37.6365C11.4198 37.7158 11.3493 37.7257 10.8982 37.7257C10.3812 37.7257 10.3812 37.7257 10.3812 37.6067C10.3812 37.2847 10.2261 37.2302 10.1415 37.5225C10.0898 37.7009 10.071 37.7158 9.87361 37.7455C9.76082 37.7604 9.51643 37.7752 9.33784 37.7752H9.01356L9.02766 37.6414C9.04176 37.5275 9.13106 37.4482 9.60103 37.1459C9.91121 36.9527 10.1791 36.7991 10.1979 36.814C10.2167 36.8239 10.2214 36.923 10.2073 37.032C10.1932 37.141 10.1697 37.7752 10.1979 37.7752C10.2637 37.7752 10.4141 36.9775 10.4517 36.7694C10.4893 36.5612 10.6115 36.4473 11.2224 36.0459C11.7582 35.6892 11.7582 35.6892 11.7347 35.9072C11.6971 36.2739 11.7284 36.7248 11.813 36.3185C11.8318 36.2243 12.0731 35.4464 12.1154 35.4117C12.3269 35.2383 13.1164 34.6982 13.1305 34.713C13.1446 34.723 13.1258 34.8171 13.0976 34.9162C13.0694 35.0153 12.482 38.6522 12.4961 38.6671C12.5713 38.7513 13.3843 34.8468 13.4548 34.5396C13.483 34.4157 13.5723 34.3315 14.3666 33.6675C14.6486 33.4396 14.719 33.1869 14.5875 32.9193C14.517 32.7707 14.517 32.7707 15.001 31.9928C15.4569 31.2594 16.2559 29.8869 16.2559 29.8373C16.2559 29.8274 16.3781 29.5797 16.5331 29.2923C16.9373 28.5243 17.8773 26.5027 18.2016 25.695C18.2674 25.5265 18.3754 25.259 18.4365 25.1004C19.6162 22.167 20.6078 18.8968 21.1812 16.0477C21.2329 15.8098 21.247 15.7107 21.4021 14.8585C21.4397 14.6404 21.4914 14.3035 21.5149 14.1152C21.5384 13.922 21.5901 13.5206 21.6324 13.2233C21.67 12.9211 21.7264 12.3661 21.7546 11.9846C21.7875 11.5684 21.8439 11.1819 21.8956 11.0184C22.1023 10.3792 22.248 9.78953 22.4078 8.9125C22.4642 8.61024 22.53 8.26835 22.5582 8.14448C22.5864 8.0206 22.624 7.7679 22.6475 7.57465C22.671 7.38636 22.718 6.97015 22.7556 6.65798C22.9436 5.18636 23 4.13094 23 2.13904C23 0.0282259 23.0047 0.0678685 22.765 0.00345386C22.7133 -0.0114111 22.5253 0.023273 22.342 0.0777777ZM22.1634 2.67914C22.1211 3.90797 22.0506 4.79491 21.8533 6.60843C21.7734 7.35168 21.7499 7.39132 21.6841 6.93051C21.6324 6.59852 21.5102 6.04357 21.4632 5.93456C21.435 5.8751 21.3645 5.80077 21.3034 5.76609C21.2141 5.71158 21.1765 5.71654 21.0731 5.78591L20.9556 5.86519V5.64221C20.9556 5.51834 21.0919 4.90242 21.0731 4.90242C21.0214 4.90242 20.6407 5.89492 20.6031 6.08816C20.5796 6.20212 20.4104 6.38051 19.8982 6.84132C19.5222 7.17826 19.1979 7.45078 19.1697 7.45078C19.1462 7.45078 19.1227 7.40123 19.1227 7.33681C19.1227 7.27736 19.1039 7.19808 19.0851 7.16339C19.2919 1.92103 18.9441 7.26745 18.8971 7.58456C18.8642 7.82736 18.836 7.867 18.164 8.61024C17.7833 9.03637 17.4496 9.36836 17.4261 9.35349C17.4026 9.33863 17.3838 9.27421 17.3838 9.20979C17.3838 9.14538 17.1442 6.84409 17.1207 6.82922C17.0502 6.77967 17.1864 9.28907 17.2099 9.49718C17.2334 9.67061 17.2099 9.7152 16.8997 10.1166C16.7164 10.3544 16.5519 10.5675 16.5284 10.5972C16.411 10.7657 15.9598 11.2909 15.9269 11.3057C15.9081 11.3157 15.8658 11.2463 15.8376 11.1571C15.7812 10.9985 15.3429 8.67466 15.2771 8.7688C15.2207 8.84313 15.6449 11.2562 15.6684 11.4544L15.7013 11.717L15.3723 12.1976C15.1937 12.4603 14.9352 12.8567 14.7942 13.0747C14.2914 13.8576 14.2585 13.999 14.1081 13.4711C13.9377 13.0053 14.0553 13.4314 14.1493 13.7485C14.201 13.9368 14.0705 14.2589 13.8449 14.6603C13.3749 15.4977 13.0365 16.0724 13.013 16.0724C12.9942 16.0724 12.9519 16.0179 12.919 15.9486C12.8861 15.8792 11.5135 13.5999 11.4947 13.5999C11.4289 13.5999 12.7452 16.0675 12.8063 16.2558C12.8673 16.4441 12.8674 16.4441 12.3786 17.4945C12.1107 18.0693 11.8663 18.5549 11.8428 18.5697C11.8193 18.5846 11.7676 18.545 11.7253 18.4756C11.683 18.4062 10.0992 16.5233 10.0757 16.5233C10.0005 16.5233 11.5467 18.6292 11.6313 18.8125C11.7018 18.9612 11.7018 19.0008 11.6407 19.1495C11.4903 19.5062 11.0533 20.6607 10.8982 21.1017C10.8418 21.2652 10.7572 21.4882 10.7102 21.5972C10.6679 21.7062 10.6115 21.845 10.5974 21.9044C10.5504 22.0531 10.3604 21.6293 9.875 21.14C9.62329 20.9973 10.2825 21.6815 10.4517 22.0729C10.5363 22.2761 10.4282 22.504 10.3624 22.6873C10.3013 22.8756 10.1415 23.4157 9.95821 24.0747C9.91121 24.2382 9.82662 24.5405 9.77022 24.7436C9.71382 24.9468 9.63393 25.2243 9.59633 25.3581L9.52113 25.6058L9.41304 25.4572C9.35194 25.3779 9.30025 25.2986 9.30025 25.2738C9.30025 25.254 8.44378 24.0797 8.41558 24.0797C8.30749 24.0797 9.15455 25.4968 9.27675 25.8337C9.34724 26.027 9.39424 26.2004 9.37544 26.2153C9.35194 26.24 8.98536 25.9229 8.64698 25.5909C8.44959 25.4026 7.69763 24.7387 7.38745 24.4909C7.16186 24.3076 7.09607 24.2234 7.07257 24.0797C7.04437 23.9162 7.11957 22.6625 7.16186 22.618C7.17596 22.608 7.25586 22.6576 7.34985 22.7319C7.50964 22.8607 8.59998 24.5306 8.59998 24.4315C8.59998 24.3225 7.41565 22.4594 7.26526 22.281C7.18066 22.1819 7.17596 22.1274 7.20416 21.7459C7.22296 21.513 7.26996 21.1067 7.30756 20.8391C7.34985 20.5765 7.39215 20.2792 7.40155 20.1851C7.44855 19.8134 7.65064 18.8869 7.70233 18.7977C7.73523 18.7432 7.76813 18.7481 7.86682 18.8175C7.97022 18.8869 10.4393 22.0864 9.875 21.14C10.3876 21.8374 7.98432 18.654 7.87152 18.4558C7.77283 18.3666 7.77753 18.322 7.91852 17.7918C8.2522 16.5481 8.75508 15.131 8.86317 15.131C8.87727 15.131 10.6632 17.3459 10.7102 17.3905C10.8888 17.5639 9.12636 15.1359 8.96186 14.913V14.7792L9.06526 14.5215C9.23915 14.0904 9.52583 13.5058 9.97231 12.6535C10.0898 12.4305 10.4799 11.8112 10.5598 11.7121C10.5739 11.6972 10.5927 11.7121 10.6021 11.7418C10.6115 11.7715 12.0355 14.7296 12.0731 14.7792C12.1812 14.9278 10.8559 11.8904 10.823 11.5634C10.7948 11.3008 10.8042 11.276 10.9969 10.9688C11.3258 10.4436 12.106 9.40304 12.3457 9.17016L12.4867 9.02646L14.5593 14.913C14.6439 15.1904 12.7311 9.35349 12.7311 8.96205V8.64988L13.4595 7.86204C14.0987 7.1733 14.7378 6.56879 14.7707 6.61834C14.7754 6.6233 14.8036 6.70753 14.8271 6.80168C14.8694 6.96519 15.471 10.285 15.5509 10.2057C15.6026 10.1512 15.0339 6.7224 15.0339 6.58366C15.0339 6.326 15.142 6.16744 15.5697 5.8305C15.7248 5.70167 15.8658 5.58275 15.8799 5.56789C16.0021 5.42915 16.8245 4.82464 16.8903 4.82464C16.9044 4.82464 16.9138 4.91383 16.9138 5.02284C16.9138 5.13185 17.1186 7.64465 17.1468 7.64465C17.2032 7.64465 17.1958 4.85933 17.1958 4.74041C17.1958 4.69086 17.2287 4.60167 17.2663 4.54221C17.3932 4.35392 18.977 3.29355 19.1415 3.2886C19.1603 3.2886 19.0089 6.21765 19.1697 5.64221C19.1039 6.00393 19.3322 3.66943 19.3861 3.22095C19.4848 2.9732 19.5833 2.97644 19.917 2.77824C20.5984 2.37689 21.6512 1.87148 21.6935 1.92103C21.7076 1.93589 21.6888 2.02508 21.6559 2.11923C21.6089 2.25797 20.7696 5.52329 20.8119 5.56789C20.8871 5.64717 21.858 2.35707 21.8956 2.21833C21.9332 2.07959 22.1258 1.70301 22.1634 1.70301C22.1775 1.70301 22.1775 2.144 22.1634 2.67914ZM20.6031 8.86295C20.5561 10.513 20.3493 12.8517 20.105 14.5612C19.964 15.5522 19.6773 17.1923 19.5222 17.881C19.2919 18.9067 19.2026 19.2932 19.1462 19.4914C19.1133 19.6152 19.0381 19.9026 18.9817 20.1355C18.6809 21.3495 17.8867 23.8071 17.5013 24.7189C17.4684 24.7981 17.3932 24.9914 17.3368 25.14C16.9749 26.1162 16.0303 28.118 15.4193 29.213C14.7566 30.3923 13.9624 31.6063 13.8026 31.6756C13.7415 31.7004 13.53 31.4527 12.6606 30.3279C12.2188 29.7581 11.6454 29.0099 11.3775 28.668C11.1096 28.3211 10.8324 27.9495 10.7572 27.8355L10.6256 27.6373L10.6914 27.2409C10.729 27.0279 10.7713 26.7603 10.7854 26.6513C10.8653 26.0716 11.2036 24.5207 11.4715 23.5297C11.5984 23.049 12.1201 21.3495 12.2188 21.077C12.7593 19.6251 12.8204 19.4616 13.201 18.5747C13.4501 17.9999 14.1316 16.5679 14.329 16.1963C14.4324 16.0031 14.5358 15.8049 14.5593 15.7454C14.7096 15.3787 15.8846 13.4116 16.5097 12.49C16.7446 12.1382 17.0031 11.7616 17.0783 11.6427C17.3133 11.2958 18.0559 10.2999 18.507 9.73007C18.9958 9.1107 19.8371 8.14447 20.1848 7.80258L20.5561 7.43591L20.5937 7.70348C20.6125 7.85213 20.6172 8.3724 20.6031 8.86295ZM6.69659 25.5662C7.13837 25.8684 7.53314 26.1558 7.57074 26.2004C7.61304 26.245 7.66004 26.2797 7.67883 26.2797C7.80103 26.2797 8.85847 27.3054 8.92427 27.4887C8.98066 27.6473 8.92427 28.0436 8.62348 29.6491C8.53889 30.0801 8.4073 30.8234 8.2663 31.631C8.20991 31.9432 8.13471 32.3446 8.10181 32.5229C8.06421 32.7013 8.01252 32.9887 7.98432 33.1671C7.95612 33.3455 7.90442 33.6329 7.87152 33.8112C7.83393 33.9896 7.77753 34.2671 7.74463 34.4306C7.71173 34.5941 7.66944 34.7477 7.65064 34.7675C7.56134 34.8815 6.70129 33.2612 6.27831 32.1761C6.01043 31.4874 5.64855 30.2783 5.53575 29.7036C5.51225 29.5896 5.47466 29.4112 5.45116 29.3072C5.34776 28.9108 5.20207 27.895 5.14097 27.1716C5.03758 25.9923 5.05638 25.145 5.19267 24.704C5.22087 24.6049 5.75194 24.9121 6.69659 25.5662ZM10.9875 29.8473C11.4856 30.3874 12.2517 31.2644 12.4256 31.4824C12.5243 31.6063 12.6982 31.8243 12.8204 31.9729C13.0835 32.2901 13.4078 32.7509 13.4877 32.9045C13.5394 33.0085 13.5347 33.0284 13.4454 33.0928C13.3937 33.1374 13.3185 33.1968 13.2856 33.2315C13.2057 33.3108 11.8945 34.3018 11.2976 34.7279C10.0052 35.6594 9.67623 35.8923 9.40364 36.0608C9.23915 36.1649 9.09816 36.2392 9.08406 36.2243C9.05586 36.1946 9.14515 35.2482 9.22975 34.7031C9.26265 34.4702 9.31905 34.1036 9.34724 33.8856C9.38014 33.6675 9.41304 33.4446 9.42244 33.395C9.43184 33.3405 9.46004 33.1175 9.48824 32.8995C9.51643 32.6765 9.57283 32.3594 9.61043 32.186C9.64803 32.0126 9.67623 31.8144 9.67623 31.7401C9.67623 31.6657 9.70912 31.4626 9.74672 31.2842C9.78902 31.1058 9.86421 30.7491 9.91591 30.4914C10.0616 29.7283 10.0851 29.6342 10.1885 29.3815L10.2872 29.1437L10.5128 29.3567C10.635 29.4756 10.8465 29.6937 10.9875 29.8473ZM11.307 38.3995C11.3211 38.4441 11.2976 38.5977 11.2553 38.7464L11.1754 39.014H10.6585C10.0851 39.014 10.1133 39.0387 10.1979 38.6225C10.2543 38.3401 10.2496 38.3401 10.8888 38.3252C11.2083 38.3203 11.2835 38.3351 11.307 38.3995ZM9.95821 38.4441C9.95821 38.4788 9.93471 38.6275 9.90651 38.7712L9.85482 39.0239L9.45534 39.0041C9.01356 38.9793 8.97126 38.9495 8.97126 38.6572C8.97126 38.4095 9.04646 38.3748 9.54933 38.3698C9.87361 38.3698 9.95821 38.3847 9.95821 38.4441Z" fill="#002160"/>
<path d="M28.24 28V14H34.24C34.6267 14 34.96 14.14 35.24 14.42C35.5333 14.7 35.68 15.04 35.68 15.44V19.74C35.68 20.14 35.5333 20.48 35.24 20.76C34.96 21.04 34.6267 21.18 34.24 21.18H30.1V28H28.24ZM30.1 19.32H33.1C33.3 19.32 33.4667 19.2533 33.6 19.12C33.7467 18.9733 33.82 18.8 33.82 18.6V16.56C33.82 16.3733 33.7467 16.2133 33.6 16.08C33.4667 15.9333 33.3 15.86 33.1 15.86H30.1V19.32ZM36.9705 28V14H38.8305V26.14H43.6105V28H36.9705ZM46.0472 28C45.6472 28 45.3072 27.86 45.0272 27.58C44.7472 27.3 44.6072 26.96 44.6072 26.56V14H46.4672V25.44C46.4672 25.6267 46.5339 25.7933 46.6672 25.94C46.8139 26.0733 46.9872 26.14 47.1872 26.14H49.4472C49.6472 26.14 49.8139 26.0733 49.9472 25.94C50.0939 25.7933 50.1672 25.6267 50.1672 25.44V14H52.0272V26.56C52.0272 26.96 51.8872 27.3 51.6072 27.58C51.3272 27.86 50.9872 28 50.5872 28H46.0472ZM53.7088 28V14H55.5688L58.3487 22.54L61.1288 14H62.9888V28H61.1288V19.68L59.2688 25.38H57.4288L55.5688 19.68V28H53.7088ZM64.0611 28.02L66.8811 14.02H68.7011L71.4811 28.02H69.6211L69.0811 25.4H66.4211L65.9211 28.02H64.0611ZM66.7811 23.56H68.7611L67.8011 18.58L66.7811 23.56Z" fill="#002160"/>
</g>
<defs>
<clipPath id="clip0_4_2">
<rect width="82" height="40" fill="white"/>
</clipPath>
</defs>
</svg>
